<svg width="186" height="202" viewBox="0 0 186 202" fill="none" xmlns="http://www.w3.org/2000/svg">
<g clip-path="url(#clip0_858_7837)">
<path d="M181.274 77.1062C185.953 86.6772 184.554 93.2649 181.042 96.8876C180.56 97.3879 180.032 97.8234 179.476 98.2125C173.167 102.576 158.5 113.343 149.772 112.37C145.417 111.888 139.524 110.415 134.827 108.284C130.101 106.134 126.59 103.318 127.081 100.158C127.813 95.3959 134.512 91.5878 140.349 91.6342C143.462 92.5607 146.612 93.2 149.216 93.4872C157.953 94.4508 172.62 83.6938 178.93 79.3298C179.838 78.7091 180.616 77.9493 181.237 77.0691L181.283 77.1062H181.274Z" fill="#F1FEEE"/>
<path d="M125.948 45.6966C141.338 40.5636 160.396 36.3016 168.726 45.8541C182.846 62.0499 184.885 71.8433 181.225 77.069C180.604 77.9492 179.826 78.6997 178.918 79.3297C172.608 83.6937 157.941 94.46 149.204 93.4871C146.6 93.1999 143.45 92.5606 140.337 91.634C134.5 91.5877 127.801 95.3958 127.069 100.158C126.578 103.318 130.089 106.134 134.815 108.284C130.775 109.609 127.264 112.453 126.763 115.789C126.207 119.384 130.979 122.534 136.742 124.702C132.684 125.869 129.042 128.677 128.542 131.994C127.643 137.812 141.402 142.362 149.454 143.251L149.621 143.27C128.199 155.24 108.9 155.574 86.1904 170.167C86.6629 167.628 86.9131 164.849 86.9131 161.856C86.9131 139.008 72.4499 112.138 54.6142 101.835C53.317 101.094 52.0477 100.464 50.7969 99.9172L67.3818 91.0874C74.4512 87.3164 79.5471 80.6732 81.3446 72.8625L85.9402 52.8587C87.4134 46.4564 91.1195 40.786 96.3915 36.8575L101.978 32.6974C106.565 29.2878 109.826 24.3679 111.188 18.818L114.746 4.34553C115.154 2.68704 116.59 1.47329 118.285 1.39917C135.927 0.648675 130.228 24.0714 125.948 45.6874V45.6966Z" fill="#F1FEEE"/>
<path d="M181.039 96.8967C183.68 104.29 182.271 109.507 179.325 112.583C178.852 113.074 178.334 113.519 177.778 113.899C171.644 118.161 157.357 128.63 148.851 127.685C145.34 127.296 140.8 126.24 136.742 124.711C130.979 122.534 126.207 119.393 126.763 115.798C127.272 112.462 130.784 109.618 134.814 108.293C139.512 110.433 145.405 111.897 149.759 112.379C158.497 113.352 173.154 102.586 179.464 98.2217C180.02 97.8325 180.548 97.3971 181.03 96.8967H181.039Z" fill="#F1FEEE"/>
<path d="M179.329 112.583C183.109 121.58 180.811 127.463 176.846 130.206C171.064 134.208 157.685 144.094 149.624 143.27C149.569 143.27 149.513 143.26 149.458 143.251C141.406 142.362 127.647 137.812 128.546 131.994C129.055 128.677 132.687 125.869 136.746 124.702C140.804 126.231 145.344 127.287 148.855 127.676C157.361 128.621 171.648 118.151 177.782 113.889C178.338 113.51 178.856 113.065 179.329 112.574V112.583Z" fill="#F1FEEE"/>
<path d="M86.9075 161.856C86.9075 164.849 86.6573 167.628 86.1848 170.167C85.5177 173.762 84.4058 176.875 82.9141 179.488C81.1537 182.555 78.8744 184.908 76.1875 186.446L55.6092 198.231C62.1876 194.46 66.3292 185.862 66.3292 173.641C66.3292 150.793 51.8753 123.924 34.0303 113.621C25.8213 108.886 18.3256 108.478 12.6367 111.656L33.0204 99.9636C36.5042 97.9622 40.6828 97.3137 45.2877 98.2031C47.0666 98.546 48.9012 99.1204 50.7913 99.9265C52.0421 100.464 53.3114 101.103 54.6086 101.844C72.4443 112.147 86.9075 139.017 86.9075 161.865V161.856Z" fill="#056F67"/>
<path d="M66.3361 173.651C66.3361 185.871 62.2037 194.47 55.6161 198.241C49.8994 201.521 42.3389 201.159 34.0372 196.378C16.1922 186.066 1.73828 159.206 1.73828 136.358C1.73828 124.026 5.954 115.39 12.6343 111.666C18.3325 108.488 25.8188 108.895 34.0279 113.63C51.8636 123.924 66.3268 150.802 66.3268 173.651H66.3361Z" fill="#F1FEEE"/>
<path d="M47.3004 201.78C42.9271 201.78 38.174 200.372 33.3375 197.583C15.1405 187.067 0.34375 159.604 0.34375 136.358C0.34375 124.007 4.578 114.556 11.9532 110.452C18.2999 106.922 26.3885 107.617 34.7273 112.435C52.9151 122.932 67.7211 150.395 67.7211 173.66C67.7211 185.89 63.561 195.294 56.3063 199.454C53.5915 201.011 50.5525 201.789 47.3004 201.789V201.78ZM20.7645 111.008C18.059 111.008 15.5481 111.628 13.3152 112.87C6.83874 116.474 3.13261 125.035 3.13261 136.348C3.13261 158.715 17.3085 185.102 34.7366 195.165C42.2693 199.51 49.4407 200.168 54.9257 197.027C61.291 193.376 64.9415 184.852 64.9415 173.641C64.9415 151.265 50.7656 124.887 33.3375 114.825C28.9365 112.286 24.6559 111.008 20.7645 111.008Z" fill="#373A3A"/>
<path d="M55.6098 199.631C55.128 199.631 54.6555 199.38 54.4053 198.936C54.0254 198.269 54.2571 197.416 54.9242 197.036L75.5024 185.241C77.9948 183.805 80.0888 181.637 81.7195 178.793C83.1556 176.263 84.2026 173.28 84.8233 169.907C84.9623 169.148 85.685 168.647 86.4448 168.796C87.1953 168.935 87.6956 169.657 87.5566 170.417C86.8802 174.086 85.7221 177.375 84.1284 180.173C82.2476 183.453 79.8108 185.964 76.883 187.65L56.3047 199.445C56.0916 199.566 55.8507 199.631 55.6191 199.631H55.6098Z" fill="#373A3A"/>
<path d="M86.1884 171.557C86.105 171.557 86.0216 171.557 85.9289 171.529C85.1785 171.39 84.6781 170.667 84.8171 169.907C85.2804 167.406 85.512 164.7 85.512 161.847C85.512 139.48 71.3361 113.102 53.908 103.03C52.6479 102.308 51.4064 101.687 50.239 101.187C48.46 100.427 46.7089 99.8709 45.0226 99.5559C40.7883 98.7405 36.9803 99.2779 33.7096 101.159L13.1406 112.954C12.4735 113.333 11.6211 113.102 11.2412 112.435C10.8614 111.768 11.093 110.915 11.7601 110.535L32.3291 98.7498C36.1464 96.5632 40.7142 95.8961 45.5507 96.8226C47.4316 97.1839 49.3773 97.7862 51.3415 98.6293C52.6016 99.1667 53.9358 99.8338 55.2978 100.612C73.4949 111.128 88.3009 138.591 88.3009 161.837C88.3009 164.858 88.0507 167.739 87.5596 170.398C87.4392 171.066 86.8555 171.538 86.1976 171.538L86.1884 171.557Z" fill="#373A3A"/>
<path d="M50.7939 101.316C50.2936 101.316 49.8118 101.048 49.5616 100.584C49.2003 99.9079 49.4597 99.0648 50.1361 98.7034L66.721 89.8736C73.4383 86.2879 78.2748 79.9875 79.9796 72.5659L84.5752 52.5621C86.1225 45.8448 90.0232 39.8779 95.5546 35.7549L101.142 31.5947C105.459 28.3889 108.545 23.7285 109.832 18.4936L113.39 4.02116C113.946 1.76042 115.929 0.120461 118.218 0.0185427C122.637 -0.166764 126.028 1.07479 128.289 3.72467C134.348 10.8034 131.263 26.156 128.011 42.4166C127.77 43.6026 127.538 44.7885 127.298 45.9745C125.593 54.6005 123.971 63.5601 124.527 70.018C124.592 70.787 124.027 71.4541 123.258 71.519C122.489 71.5838 121.822 71.0186 121.757 70.2496C121.173 63.4396 122.832 54.2577 124.574 45.4371L125.287 41.87C128.27 26.9806 131.356 11.5817 126.176 5.5314C124.472 3.53936 121.914 2.63136 118.338 2.79814C117.273 2.84446 116.346 3.62275 116.087 4.68826L112.529 19.1607C111.093 25.0256 107.637 30.2327 102.8 33.8277L97.2131 37.9878C92.2099 41.7125 88.689 47.1049 87.29 53.1829L82.6944 73.1867C80.8042 81.3865 75.4582 88.3633 68.0274 92.3289L51.4425 101.159C51.2386 101.27 51.007 101.325 50.7939 101.325V101.316Z" fill="#373A3A"/>
<path d="M140.333 93.0236C140.203 93.0236 140.065 93.0051 139.935 92.968C135.154 91.5504 124.137 87.5571 125.138 81.0621C125.564 78.2825 127.63 75.9106 130.957 74.3911C135.423 72.3527 140.963 72.3342 144.818 74.2706L146.096 73.2607C149.487 70.583 152.452 68.2389 156.955 65.7558L151.572 58.3065C151.118 57.6857 151.266 56.8148 151.887 56.37C152.508 55.916 153.379 56.0643 153.823 56.6851L160.133 65.4223C160.374 65.7465 160.448 66.1635 160.356 66.5526C160.263 66.9418 160.003 67.2753 159.642 67.4699C154.555 70.1198 151.581 72.4732 147.81 75.4473C147.162 75.9569 146.495 76.485 145.79 77.0317C145.327 77.393 144.688 77.4208 144.197 77.1151C141.13 75.1972 136.043 75.1138 132.096 76.9205C130.679 77.5691 128.251 79.0237 127.871 81.4883C127.427 84.3606 132.597 87.8999 140.713 90.2996C141.445 90.522 141.871 91.291 141.649 92.023C141.473 92.6252 140.917 93.0144 140.315 93.0144L140.333 93.0236Z" fill="#373A3A"/>
<path d="M150.333 94.9417C149.898 94.9417 149.472 94.9231 149.055 94.8768C146.257 94.5618 143.023 93.8854 139.947 92.9682C139.215 92.7458 138.789 91.9768 139.011 91.2355C139.233 90.5036 140.002 90.0774 140.734 90.2997C143.653 91.1707 146.72 91.81 149.36 92.1065C156.976 92.9496 170.3 83.6473 176.702 79.1814L178.129 78.19C178.917 77.6433 179.575 76.9948 180.084 76.2721C183.911 70.8241 179.5 60.345 167.669 46.7713C161.526 39.7204 148.017 39.8038 126.382 47.0122C125.65 47.2531 124.863 46.864 124.622 46.132C124.381 45.4 124.77 44.6125 125.502 44.3716C148.323 36.7648 162.804 36.9501 169.772 44.9368C186.116 63.6898 185.643 73.196 182.363 77.8657C181.669 78.8571 180.77 79.7373 179.714 80.4692L178.296 81.4606C171.449 86.2415 158.978 94.9417 150.333 94.9417Z" fill="#373A3A"/>
<path d="M150.888 113.824C150.452 113.824 150.017 113.806 149.6 113.759C144.68 113.213 138.648 111.564 134.238 109.553C126.492 106.032 125.315 102.391 125.695 99.9541C126.585 94.1818 134.08 90.1978 140.344 90.2534C141.113 90.2534 141.733 90.8834 141.724 91.6524C141.724 92.4214 141.094 93.0329 140.334 93.0329C140.297 93.0329 140.26 93.0329 140.232 93.0329C134.738 93.0329 129.031 96.5816 128.447 100.38C128.123 102.456 130.661 104.874 135.396 107.024C139.565 108.923 145.264 110.48 149.915 110.998C157.522 111.86 170.817 102.558 177.22 98.1011L178.684 97.0819C179.184 96.7391 179.638 96.3499 180.046 95.933C183.798 92.0601 183.798 85.4261 180.027 77.7266C179.693 77.041 179.971 76.2071 180.666 75.8643C181.352 75.5308 182.186 75.8087 182.529 76.5036C188.644 89.0211 184.224 95.6087 182.047 97.8694C181.519 98.4161 180.916 98.9257 180.277 99.3704L178.823 100.38C171.985 105.152 159.541 113.834 150.906 113.834L150.888 113.824Z" fill="#373A3A"/>
<path d="M150.561 144.706C150.191 144.706 149.82 144.687 149.468 144.65L149.283 144.632C142.788 143.909 132.021 140.777 128.399 136.052C127.342 134.681 126.925 133.245 127.148 131.781C127.787 127.611 132.225 124.544 136.339 123.368C137.071 123.155 137.849 123.581 138.062 124.322C138.275 125.063 137.849 125.832 137.108 126.045C133.244 127.148 130.28 129.687 129.89 132.207C129.779 132.902 130.011 133.606 130.595 134.366C133.3 137.896 142.593 141.102 149.579 141.871L149.746 141.889C156.686 142.603 168.786 134.125 174.605 130.048L176.022 129.057C180.238 126.138 180.979 120.171 178.014 113.111C177.718 112.407 178.051 111.592 178.756 111.295C179.46 110.999 180.275 111.332 180.572 112.036C184.083 120.403 182.971 127.621 177.597 131.345L176.189 132.327C169.926 136.71 158.502 144.706 150.534 144.706H150.561Z" fill="#373A3A"/>
<path d="M149.961 129.131C149.525 129.131 149.108 129.112 148.701 129.066C144.837 128.64 140.186 127.491 136.257 126.008C128.549 123.099 124.796 119.495 125.399 115.575C125.954 111.953 129.485 108.571 134.395 106.968C135.118 106.727 135.905 107.125 136.146 107.857C136.387 108.589 135.989 109.368 135.257 109.609C131.393 110.878 128.53 113.444 128.141 116.002C127.78 118.355 131.171 121.125 137.23 123.405C140.955 124.813 145.356 125.888 149.007 126.295C156.447 127.139 169.464 118.021 175.718 113.639L176.997 112.75C177.479 112.416 177.924 112.036 178.331 111.61C181.389 108.423 181.889 103.364 179.74 97.3598C179.48 96.6371 179.86 95.8403 180.583 95.5809C181.305 95.3215 182.102 95.7013 182.362 96.424C185.762 105.94 182.556 111.23 180.342 113.537C179.804 114.093 179.221 114.593 178.591 115.038L177.321 115.918C170.632 120.597 158.448 129.121 149.979 129.121L149.961 129.131Z" fill="#373A3A"/>
<path d="M86.1869 171.557C85.7329 171.557 85.2789 171.334 85.0195 170.917C84.6026 170.269 84.7879 169.416 85.4364 168.999C97.9724 160.939 109.563 157.149 120.774 153.489C130.308 150.376 139.314 147.43 148.932 142.056C149.599 141.685 150.451 141.917 150.822 142.593C151.192 143.26 150.961 144.113 150.284 144.483C140.435 149.987 130.874 153.109 121.636 156.13C110.592 159.734 99.1769 163.468 86.9374 171.334C86.7058 171.482 86.4464 171.557 86.1869 171.557Z" fill="#373A3A"/>
</g>
<defs>
<clipPath id="clip0_858_7837">
<rect width="185.288" height="201.78" fill="white" transform="translate(0.347656)"/>
</clipPath>
</defs>
</svg>
