<svg width="362" height="242" viewBox="0 0 362 242" fill="none" xmlns="http://www.w3.org/2000/svg">
<g clip-path="url(#clip0_813_2049)">
<path d="M359.562 57.43V92.43L260.473 149.64C256.283 152.06 252.493 152.29 249.753 150.7L249.553 150.58C246.933 148.95 245.312 145.61 245.312 140.89C245.312 131.23 252.103 119.48 260.473 114.65L359.562 57.43Z" fill="#047A71"/>
<path d="M310.001 86.05L260.471 114.65C252.101 119.48 245.311 131.23 245.311 140.89C245.311 145.61 246.931 148.95 249.551 150.58L152.881 94.77C150.141 93.19 148.441 89.8 148.441 84.96C148.441 75.3 155.231 63.55 163.601 58.72L262.691 1.5L294.941 20.12L281.031 28.15C278.281 29.73 276.941 31.85 276.941 34.07C276.941 36.75 278.901 39.58 282.731 41.79C289.721 45.83 300.301 46.26 306.351 42.77L320.261 34.74L359.561 57.43L310.001 86.05ZM289.201 73.19C292.501 71.29 292.501 68.21 289.201 66.31C285.911 64.41 280.571 64.41 277.271 66.31C273.981 68.21 273.981 71.29 277.271 73.19C280.571 75.09 285.911 75.09 289.201 73.19ZM262.771 59.66C266.061 57.75 266.061 54.67 262.771 52.77C259.471 50.87 254.131 50.87 250.841 52.77C247.541 54.67 247.541 57.75 250.841 59.66C254.131 61.56 259.471 61.56 262.771 59.66ZM236.731 53.44C240.021 51.54 240.021 48.46 236.731 46.55C233.431 44.65 228.091 44.65 224.801 46.55C221.501 48.46 221.501 51.54 224.801 53.44C228.091 55.34 233.431 55.34 236.731 53.44Z" fill="#73CAC4"/>
<path d="M327.942 30.31V39.17L320.262 34.74L327.942 30.31Z" fill="#047A71"/>
<path d="M327.941 30.31L306.351 42.77C300.301 46.26 289.721 45.83 282.731 41.79C278.901 39.58 276.941 36.75 276.941 34.07C276.941 31.85 278.281 29.73 281.031 28.15L302.611 15.69L327.941 30.31Z" fill="#D5FCF5"/>
<path d="M289.202 66.31C292.502 68.21 292.502 71.29 289.202 73.19C285.912 75.09 280.572 75.09 277.272 73.19C273.982 71.29 273.982 68.21 277.272 66.31C280.572 64.41 285.912 64.41 289.202 66.31Z" fill="#D5FCF5"/>
<path d="M262.772 52.77C266.062 54.67 266.062 57.75 262.772 59.66C259.472 61.56 254.132 61.56 250.842 59.66C247.542 57.75 247.542 54.67 250.842 52.77C254.132 50.87 259.472 50.87 262.772 52.77Z" fill="#D5FCF5"/>
<path d="M236.733 46.55C240.023 48.46 240.023 51.54 236.733 53.44C233.433 55.34 228.093 55.34 224.803 53.44C221.503 51.54 221.503 48.46 224.803 46.55C228.093 44.65 233.433 44.65 236.733 46.55Z" fill="#D5FCF5"/>
<path d="M249.541 152.08C249.271 152.08 249.001 152.01 248.751 151.85C245.561 149.87 243.801 145.97 243.801 140.89C243.801 130.77 250.941 118.41 259.711 113.35L358.801 56.13C359.521 55.72 360.431 55.96 360.851 56.68C361.261 57.4 361.021 58.31 360.301 58.73L261.211 115.95C253.261 120.54 246.801 131.72 246.801 140.89C246.801 144.9 248.051 147.89 250.331 149.31C251.031 149.75 251.251 150.67 250.811 151.38C250.531 151.84 250.041 152.09 249.541 152.09V152.08Z" fill="#057A71"/>
<path d="M253.688 153.22C251.988 153.22 250.398 152.81 248.988 152C248.268 151.58 248.028 150.67 248.438 149.95C248.858 149.23 249.768 148.99 250.488 149.4C252.858 150.78 256.138 150.4 259.708 148.34L358.048 91.56V58.3L319.498 36.04C318.778 35.63 318.538 34.71 318.948 33.99C319.358 33.27 320.278 33.03 320.998 33.44L360.298 56.13C360.758 56.4 361.048 56.89 361.048 57.43V92.43C361.048 92.97 360.758 93.46 360.298 93.73L261.208 150.94C258.588 152.46 256.018 153.22 253.688 153.22Z" fill="#057A71"/>
<path d="M215.218 132.12C214.868 132.12 214.518 132 214.238 131.75C211.728 129.58 210.398 126.07 210.398 121.59C210.398 116.65 212.048 111.08 215.038 105.91C218.018 100.74 222.018 96.53 226.298 94.05L248.988 80.95L254.788 60.65C255.018 59.85 255.848 59.39 256.638 59.62C257.438 59.85 257.898 60.68 257.668 61.47L251.698 82.35C251.588 82.72 251.338 83.04 251.008 83.24L227.798 96.64C223.968 98.86 220.358 102.68 217.638 107.4C214.908 112.12 213.398 117.16 213.398 121.58C213.398 125.1 214.398 127.9 216.198 129.47C216.828 130.01 216.898 130.96 216.348 131.59C216.048 131.93 215.638 132.11 215.208 132.11L215.218 132.12Z" fill="#057A71"/>
<path d="M177.14 110.13C176.79 110.13 176.45 110.01 176.16 109.77C173.65 107.61 172.32 104.1 172.32 99.62C172.32 94.68 173.97 89.11 176.96 83.93C179.95 78.74 183.95 74.53 188.22 72.07L222.96 52.01C223.68 51.6 224.59 51.84 225.01 52.56C225.42 53.28 225.18 54.19 224.46 54.61L189.72 74.67C185.9 76.87 182.29 80.69 179.56 85.43C176.83 90.16 175.32 95.2 175.32 99.62C175.32 103.14 176.31 105.94 178.12 107.49C178.75 108.03 178.82 108.98 178.28 109.61C177.98 109.95 177.56 110.13 177.14 110.13Z" fill="#057A71"/>
<path d="M249.74 152.2C249.49 152.2 249.23 152.14 248.99 152L152.12 96.07C148.77 94.14 146.93 90.19 146.93 84.96C146.93 74.84 154.07 62.48 162.84 57.42L261.94 0.199998C262.4 -0.0700024 262.98 -0.0700024 263.44 0.199998L295.69 18.82C296.41 19.23 296.65 20.15 296.24 20.87C295.83 21.59 294.91 21.83 294.19 21.42L262.69 3.23L164.35 60.02C156.4 64.61 149.94 75.79 149.94 84.96C149.94 89.08 151.25 92.1 153.63 93.47L250.5 149.4C251.22 149.81 251.46 150.73 251.05 151.45C250.77 151.93 250.27 152.2 249.75 152.2H249.74Z" fill="#057A71"/>
<path d="M309.988 87.55C309.738 87.55 309.478 87.49 309.238 87.35L287.718 74.92C286.998 74.51 286.758 73.59 287.168 72.87C287.578 72.15 288.498 71.91 289.218 72.32L310.738 84.75C311.458 85.16 311.698 86.08 311.288 86.8C311.008 87.28 310.508 87.55 309.988 87.55Z" fill="#047A71"/>
<path d="M230.758 56.37C228.338 56.37 225.928 55.83 224.048 54.74C221.968 53.54 220.828 51.86 220.828 50C220.828 48.14 221.968 46.45 224.048 45.25C227.808 43.08 233.708 43.08 237.478 45.25C239.558 46.46 240.698 48.14 240.698 50C240.698 51.86 239.548 53.54 237.478 54.74C235.598 55.82 233.178 56.37 230.758 56.37ZM230.758 46.63C228.858 46.63 226.958 47.04 225.548 47.85C224.448 48.48 223.818 49.27 223.828 50C223.828 50.73 224.458 51.51 225.548 52.14C228.368 53.77 233.148 53.77 235.978 52.14C237.068 51.51 237.688 50.73 237.698 50C237.698 49.27 237.068 48.48 235.978 47.85C234.568 47.04 232.668 46.63 230.768 46.63H230.758Z" fill="#057A71"/>
<path d="M256.801 62.59C254.381 62.59 251.971 62.05 250.091 60.96C248.011 59.75 246.861 58.07 246.871 56.21C246.871 54.35 248.021 52.67 250.101 51.47C253.861 49.3 259.751 49.3 263.531 51.47C265.601 52.67 266.751 54.35 266.751 56.21C266.751 58.07 265.611 59.76 263.531 60.96C261.651 62.04 259.231 62.59 256.811 62.59H256.801ZM256.801 52.85C254.901 52.85 253.001 53.26 251.591 54.07C250.491 54.7 249.871 55.48 249.871 56.21C249.871 56.94 250.501 57.73 251.601 58.36C254.421 59.99 259.191 59.99 262.031 58.36C263.121 57.73 263.751 56.94 263.751 56.21C263.751 55.48 263.121 54.7 262.031 54.07C260.621 53.26 258.711 52.85 256.811 52.85H256.801Z" fill="#057A71"/>
<path d="M283.229 76.12C280.809 76.12 278.399 75.58 276.509 74.49C274.429 73.29 273.289 71.61 273.289 69.75C273.289 67.89 274.429 66.21 276.509 65.01C280.279 62.84 286.179 62.84 289.939 65.01C292.019 66.21 293.159 67.89 293.159 69.75C293.159 71.61 292.009 73.29 289.929 74.49C288.049 75.57 285.639 76.12 283.219 76.12H283.229ZM283.229 66.39C281.329 66.39 279.429 66.8 278.009 67.61C276.919 68.24 276.299 69.02 276.299 69.75C276.299 70.48 276.929 71.26 278.019 71.89C280.849 73.52 285.629 73.52 288.449 71.89C289.549 71.26 290.169 70.48 290.169 69.75C290.169 69.02 289.539 68.24 288.449 67.61C287.039 66.79 285.139 66.39 283.239 66.39H283.229Z" fill="#047A71"/>
<path d="M296.061 46.65C291.181 46.65 286.061 45.45 281.981 43.09C277.821 40.69 275.441 37.4 275.441 34.07C275.441 31.21 277.161 28.64 280.281 26.85L301.861 14.39C302.321 14.12 302.901 14.12 303.361 14.39L328.691 29.01C329.151 29.28 329.441 29.77 329.441 30.31C329.441 30.85 329.151 31.34 328.691 31.61L307.101 44.07C304.101 45.8 300.171 46.65 296.061 46.65ZM302.611 17.42L281.781 29.45C280.251 30.33 278.441 31.84 278.441 34.07C278.441 36.3 280.281 38.64 283.481 40.49C290.041 44.28 299.961 44.72 305.601 41.47L324.941 30.31L302.611 17.42Z" fill="#047A71"/>
<path d="M327.941 40.67C327.111 40.67 326.441 40 326.441 39.17V30.31C326.441 29.48 327.111 28.81 327.941 28.81C328.771 28.81 329.441 29.48 329.441 30.31V39.17C329.441 40 328.771 40.67 327.941 40.67Z" fill="#047A71"/>
<path d="M189.051 209.12C201.151 216.1 201.151 227.43 189.051 234.42C176.951 241.4 157.331 241.4 145.231 234.42C133.131 227.43 133.131 216.1 145.231 209.12C157.331 202.13 176.951 202.13 189.051 209.12ZM173.811 225.62C177.501 223.49 177.501 220.04 173.811 217.92C170.131 215.79 164.161 215.79 160.471 217.92C156.791 220.04 156.791 223.49 160.471 225.62C164.161 227.75 170.131 227.75 173.811 225.62Z" fill="white"/>
<path d="M173.811 217.92C177.501 220.04 177.501 223.49 173.811 225.62C170.131 227.75 164.161 227.75 160.471 225.62C156.791 223.49 156.791 220.04 160.471 217.92C164.161 215.79 170.131 215.79 173.811 217.92Z" fill="#73CAC4"/>
<path d="M114.36 174.5C126.46 181.48 126.46 192.81 114.36 199.8C102.26 206.78 82.6395 206.78 70.5395 199.8C58.4295 192.81 58.4295 181.48 70.5395 174.5C82.6395 167.51 102.26 167.51 114.36 174.5ZM92.4495 194.41L105.02 187.15L92.4495 179.89L79.8695 187.15L92.4495 194.41Z" fill="#D5FCF5"/>
<path d="M105.021 187.15L92.4511 194.41L79.8711 187.15L92.4511 179.89L105.021 187.15Z" fill="#73CAC4"/>
<path d="M54.3911 131.37C66.4911 138.36 66.4911 149.68 54.3911 156.67C42.2911 163.66 22.6711 163.66 10.5711 156.67C-1.52891 149.68 -1.52891 138.36 10.5711 131.37C22.6711 124.38 42.2911 124.38 54.3911 131.37Z" fill="white"/>
<path d="M32.48 163.38C24.27 163.38 16.07 161.58 9.82 157.97C3.49 154.31 0 149.35 0 144.02C0 138.68 3.49 133.73 9.82 130.07C22.31 122.85 42.65 122.85 55.14 130.07C61.48 133.73 64.96 138.68 64.96 144.02C64.96 149.35 61.47 154.31 55.14 157.97C48.89 161.58 40.69 163.38 32.48 163.38ZM32.48 127.61C24.82 127.61 17.15 129.29 11.32 132.66C5.95 135.76 3 139.79 3 144.01C3 148.23 5.96 152.26 11.32 155.36C22.99 162.1 41.97 162.1 53.64 155.36C59.01 152.26 61.97 148.23 61.96 144.01C61.96 139.79 59 135.76 53.64 132.66C47.81 129.29 40.14 127.61 32.48 127.61Z" fill="#056F67"/>
<path d="M92.4509 206.5C84.2409 206.5 76.0409 204.7 69.7909 201.09C63.4509 197.43 59.9609 192.47 59.9609 187.13C59.9609 181.79 63.4509 176.84 69.7909 173.19C82.2809 165.97 102.611 165.97 115.111 173.19C121.441 176.84 124.931 181.79 124.941 187.13C124.941 192.47 121.451 197.43 115.111 201.09C108.861 204.69 100.661 206.5 92.4509 206.5ZM92.4509 170.74C84.7909 170.74 77.1209 172.43 71.2909 175.8C65.9209 178.9 62.9609 182.92 62.9609 187.14C62.9609 191.36 65.9209 195.4 71.2909 198.5C82.9609 205.23 101.941 205.23 113.611 198.5C118.981 195.4 121.941 191.36 121.931 187.14C121.931 182.92 118.971 178.89 113.611 175.8C107.781 172.43 100.111 170.74 92.4509 170.74Z" fill="#056F67"/>
<path d="M167.138 241.12C158.928 241.12 150.728 239.32 144.478 235.71C138.138 232.05 134.648 227.09 134.648 221.75C134.648 216.41 138.138 211.46 144.478 207.81C156.968 200.59 177.308 200.59 189.798 207.81C196.128 211.46 199.618 216.41 199.618 221.75C199.618 227.09 196.128 232.05 189.798 235.71C183.548 239.31 175.348 241.12 167.138 241.12ZM167.138 205.36C159.478 205.36 151.808 207.05 145.978 210.42C140.608 213.52 137.658 217.54 137.658 221.76C137.658 225.98 140.618 230.02 145.978 233.12C157.648 239.85 176.628 239.85 188.298 233.12C193.668 230.02 196.628 225.99 196.618 221.76C196.618 217.54 193.658 213.51 188.298 210.42C182.468 207.05 174.798 205.36 167.138 205.36Z" fill="#056F67"/>
<path d="M189.059 210.62C188.619 210.62 188.179 210.42 187.879 210.05C187.369 209.4 187.479 208.46 188.129 207.94L193.519 203.7C200.249 198.41 203.809 192.2 203.809 185.74C203.809 179.28 200.309 173.18 193.689 167.91C185.889 161.71 181.909 154.01 182.479 146.24C182.869 140.93 185.319 135.85 189.569 131.32C180.899 134.27 171.009 135.84 160.709 135.84C148.639 135.84 137.059 133.66 127.229 129.54C107.779 121.39 81.6989 121.43 62.3289 129.64L54.9789 132.75C54.2089 133.07 53.3389 132.71 53.0089 131.95C52.6889 131.19 53.0389 130.31 53.8089 129.98L61.1589 126.87C81.2289 118.37 108.239 118.33 128.379 126.77C137.849 130.74 149.019 132.83 160.699 132.83C175.409 132.83 189.209 129.54 199.569 123.56C200.289 123.15 201.199 123.39 201.619 124.11C202.029 124.83 201.789 125.74 201.069 126.16H201.059C191.569 131.65 186.029 138.85 185.469 146.45C184.959 153.3 188.449 159.91 195.549 165.56C202.909 171.42 206.809 178.39 206.809 185.73C206.809 193.07 202.859 200.17 195.379 206.05L189.989 210.29C189.709 210.51 189.389 210.61 189.059 210.61V210.62Z" fill="#057A71"/>
<path d="M114.371 176C113.851 176 113.351 175.73 113.071 175.25C112.661 174.53 112.901 173.62 113.621 173.2L199.581 123.57C200.301 123.16 201.211 123.4 201.631 124.12C202.041 124.84 201.801 125.75 201.081 126.17L115.121 175.8C114.881 175.94 114.631 176 114.371 176Z" fill="#057A71"/>
<path d="M92.4511 195.91C92.1911 195.91 91.9311 195.84 91.7011 195.71L79.1211 188.45C78.6611 188.18 78.3711 187.69 78.3711 187.15C78.3711 186.61 78.6611 186.12 79.1211 185.85L91.7011 178.59C92.1611 178.32 92.7411 178.32 93.2011 178.59L105.771 185.85C106.231 186.12 106.521 186.61 106.521 187.15C106.521 187.69 106.231 188.18 105.771 188.45L93.2011 195.71C92.9711 195.84 92.7111 195.91 92.4511 195.91ZM82.8711 187.15L92.4511 192.68L102.021 187.15L92.4511 181.62L82.8711 187.15Z" fill="#057A71"/>
<path d="M167.149 228.72C164.479 228.72 161.809 228.12 159.729 226.92C157.459 225.61 156.219 223.78 156.219 221.76C156.219 219.75 157.469 217.92 159.729 216.62C163.899 214.22 170.419 214.22 174.569 216.62C176.829 217.92 178.079 219.75 178.089 221.76C178.089 223.77 176.839 225.6 174.569 226.92C172.489 228.12 169.819 228.72 167.149 228.72ZM167.149 217.83C164.989 217.83 162.829 218.29 161.229 219.22C159.949 219.96 159.219 220.88 159.219 221.77C159.219 222.65 159.949 223.59 161.229 224.33C164.439 226.18 169.859 226.18 173.069 224.33C174.349 223.59 175.089 222.66 175.089 221.77C175.089 220.89 174.349 219.96 173.079 219.23C171.479 218.3 169.319 217.84 167.159 217.84L167.149 217.83Z" fill="#057A71"/>
<path d="M38.6809 149.1C38.4309 149.1 38.1709 149.04 37.9309 148.9L25.5309 141.74C24.8109 141.33 24.5709 140.41 24.9809 139.69C25.3909 138.97 26.3109 138.73 27.0309 139.14L39.4309 146.3C40.1509 146.71 40.3909 147.63 39.9809 148.35C39.7009 148.83 39.2009 149.1 38.6809 149.1Z" fill="#047A71"/>
<path d="M44.9482 145.48C44.6982 145.48 44.4382 145.42 44.1982 145.28L31.8082 138.12C31.0882 137.7 30.8482 136.79 31.2582 136.07C31.6782 135.35 32.5882 135.11 33.3082 135.52L45.6982 142.68C46.4182 143.09 46.6582 144.01 46.2482 144.73C45.9682 145.21 45.4682 145.48 44.9482 145.48Z" fill="#047A71"/>
<path d="M32.4014 152.72C32.1514 152.72 31.8914 152.66 31.6514 152.52L19.2614 145.37C18.5414 144.96 18.3014 144.04 18.7114 143.32C19.1214 142.6 20.0414 142.36 20.7614 142.77L33.1514 149.92C33.8714 150.33 34.1114 151.25 33.7014 151.97C33.4214 152.45 32.9214 152.72 32.4014 152.72Z" fill="#047A71"/>
</g>
<defs>
<clipPath id="clip0_813_2049">
<rect width="361.05" height="241.12" fill="white"/>
</clipPath>
</defs>
</svg>
