<svg width="680" height="976" viewBox="0 0 680 976" fill="none" xmlns="http://www.w3.org/2000/svg">
<g clip-path="url(#clip0_843_4724)">
<rect width="680" height="976" rx="24" fill="#056F67"/>
<rect x="200.543" y="176.685" width="364.278" height="143.814" rx="14.5" transform="rotate(-3.0713 200.543 176.685)" fill="#04615B" stroke="#055852" stroke-width="3"/>
<path d="M237.474 224.784L232.054 209.246L234.92 209.115L237.801 217.319C237.95 217.744 238.094 218.198 238.231 218.681C238.368 219.15 238.509 219.726 238.656 220.411C238.753 219.701 238.848 219.113 238.942 218.648C239.05 218.168 239.158 217.703 239.267 217.251L241.385 208.819L244.424 208.679L247.24 216.886C247.39 217.325 247.533 217.787 247.671 218.27C247.823 218.752 247.978 219.321 248.138 219.976C248.248 219.237 248.35 218.635 248.444 218.17C248.551 217.69 248.654 217.253 248.751 216.86L250.91 208.382L253.712 208.253L249.65 224.226L246.978 224.348L243.09 213.038L240.168 224.661L237.474 224.784ZM257.269 224.157C256.148 224.209 255.243 223.948 254.555 223.375C253.88 222.787 253.52 221.997 253.474 221.006C253.43 220.029 253.732 219.237 254.381 218.632C255.043 218.011 256.004 217.621 257.264 217.463L260.442 217.058L260.431 216.821C260.408 216.333 260.297 215.949 260.097 215.67C259.911 215.376 259.65 215.172 259.313 215.058C258.976 214.93 258.585 214.876 258.14 214.896C257.364 214.932 256.775 215.117 256.373 215.452C255.97 215.773 255.781 216.214 255.807 216.774L253.566 216.877C253.53 216.101 253.694 215.424 254.056 214.846C254.432 214.253 254.972 213.782 255.676 213.433C256.394 213.083 257.227 212.886 258.175 212.843C259.138 212.799 259.972 212.933 260.677 213.246C261.382 213.545 261.936 214.024 262.341 214.682C262.745 215.326 262.969 216.143 263.015 217.134L263.311 223.599L261.005 223.705L260.739 222.141C260.535 222.697 260.11 223.163 259.465 223.538C258.834 223.913 258.102 224.119 257.269 224.157ZM258.018 222.136C258.837 222.099 259.473 221.839 259.926 221.358C260.393 220.875 260.608 220.225 260.571 219.406L260.545 218.846L258.333 219.12C257.518 219.229 256.944 219.428 256.612 219.717C256.279 219.992 256.122 220.344 256.142 220.775C256.163 221.249 256.338 221.601 256.665 221.831C256.993 222.061 257.443 222.162 258.018 222.136ZM268.114 223.379L265.506 223.499L264.771 207.466L267.379 207.346L268.114 223.379ZM273.091 223.151L270.484 223.271L269.749 207.237L272.356 207.118L273.091 223.151ZM280.194 223.106C279.145 223.154 278.2 222.96 277.36 222.523C276.533 222.072 275.87 221.44 275.372 220.628C274.874 219.801 274.599 218.842 274.549 217.75C274.499 216.644 274.676 215.657 275.083 214.789C275.489 213.921 276.084 213.231 276.867 212.72C277.649 212.195 278.557 211.908 279.592 211.861C280.669 211.812 281.606 211.999 282.403 212.423C283.2 212.833 283.824 213.431 284.278 214.216C284.746 215.001 285.005 215.953 285.057 217.074L285.093 217.871L275.957 218.312L275.923 216.629L282.41 216.332C282.376 215.599 282.112 215.021 281.618 214.597C281.137 214.173 280.502 213.979 279.712 214.015C279.094 214.043 278.576 214.197 278.157 214.475C277.752 214.753 277.454 215.155 277.262 215.682C277.07 216.209 276.991 216.846 277.026 217.593C277.078 218.743 277.362 219.601 277.878 220.167C278.408 220.733 279.161 220.994 280.138 220.949C280.856 220.916 281.439 220.753 281.886 220.459C282.348 220.164 282.639 219.762 282.76 219.253L285.195 219.141C285.018 220.315 284.485 221.254 283.596 221.957C282.721 222.659 281.587 223.042 280.194 223.106ZM285.334 211.922L292.057 211.613L292.158 213.811L285.434 214.12L285.334 211.922ZM290.498 222.353L287.869 222.474L287.229 208.509L289.858 208.389L290.498 222.353ZM303.953 221.736L297.283 206.256L300.214 206.121L304.078 215.036C304.272 215.488 304.459 215.961 304.64 216.457C304.821 216.952 305.012 217.512 305.214 218.137C305.369 217.438 305.521 216.834 305.67 216.323C305.82 215.813 305.957 215.353 306.082 214.944L309.071 205.715L311.937 205.584L306.798 221.606L303.953 221.736ZM316.772 221.429C315.723 221.477 314.778 221.283 313.938 220.846C313.111 220.395 312.448 219.763 311.95 218.951C311.452 218.124 311.177 217.165 311.127 216.073C311.076 214.967 311.254 213.98 311.661 213.112C312.067 212.244 312.662 211.554 313.445 211.043C314.227 210.518 315.135 210.231 316.17 210.184C317.247 210.134 318.184 210.322 318.981 210.746C319.777 211.156 320.402 211.753 320.856 212.539C321.324 213.324 321.583 214.276 321.635 215.397L321.671 216.194L312.535 216.635L312.501 214.952L318.988 214.655C318.954 213.922 318.69 213.344 318.196 212.92C317.715 212.496 317.08 212.302 316.29 212.338C315.672 212.366 315.154 212.52 314.735 212.798C314.33 213.076 314.032 213.478 313.84 214.005C313.648 214.532 313.569 215.169 313.603 215.916C313.656 217.066 313.94 217.924 314.456 218.49C314.986 219.056 315.739 219.317 316.716 219.272C317.434 219.239 318.017 219.076 318.464 218.782C318.926 218.487 319.217 218.085 319.338 217.575L321.773 217.464C321.596 218.638 321.063 219.577 320.174 220.28C319.299 220.982 318.165 221.365 316.772 221.429ZM329.751 209.842L329.863 212.277L328.893 212.322C327.931 212.366 327.188 212.659 326.666 213.201C326.143 213.729 325.905 214.51 325.953 215.545L326.19 220.717L323.561 220.837L323.074 210.213L325.552 210.099L325.868 212.287L325.61 212.299C325.721 211.589 326.032 210.999 326.544 210.529C327.055 210.059 327.734 209.805 328.582 209.766C328.768 209.757 328.956 209.756 329.143 209.762C329.33 209.768 329.533 209.794 329.751 209.842ZM331.59 220.469L331.102 209.823L333.731 209.703L334.219 220.348L331.59 220.469ZM332.297 207.63C331.852 207.651 331.464 207.517 331.134 207.23C330.818 206.928 330.65 206.554 330.629 206.109C330.609 205.663 330.743 205.283 331.03 204.968C331.333 204.651 331.706 204.483 332.152 204.463C332.597 204.442 332.978 204.576 333.293 204.864C333.623 205.151 333.798 205.517 333.819 205.963C333.839 206.408 333.698 206.796 333.397 207.127C333.109 207.442 332.742 207.61 332.297 207.63ZM334.96 209.646L346.08 209.136L346.181 211.335L335.061 211.844L334.96 209.646ZM341.27 204.066L341.372 206.307C341.214 206.315 341.056 206.322 340.898 206.329C340.754 206.336 340.604 206.343 340.446 206.35C339.857 206.377 339.469 206.553 339.282 206.878C339.095 207.204 339.014 207.632 339.039 208.164L339.586 220.102L336.979 220.222L336.431 208.283C336.386 207.306 336.501 206.516 336.776 205.913C337.064 205.296 337.475 204.838 338.009 204.54C338.556 204.227 339.189 204.054 339.907 204.021C340.122 204.011 340.345 204.008 340.576 204.012C340.806 204.015 341.038 204.034 341.27 204.066ZM343.939 219.903L343.451 209.257L346.08 209.136L346.568 219.782L343.939 219.903ZM344.666 207.02C344.22 207.041 343.84 206.907 343.524 206.619C343.209 206.331 343.041 205.964 343.021 205.519C343.001 205.088 343.135 204.715 343.423 204.399C343.711 204.084 344.077 203.916 344.523 203.895C344.954 203.876 345.327 204.01 345.642 204.298C345.958 204.585 346.126 204.945 346.145 205.376C346.166 205.821 346.032 206.202 345.744 206.517C345.456 206.833 345.097 207 344.666 207.02ZM347.978 214.362C347.928 213.27 348.106 212.29 348.512 211.422C348.933 210.553 349.528 209.864 350.296 209.353C351.079 208.828 351.994 208.541 353.043 208.493C354.494 208.427 355.696 208.753 356.651 209.472C357.619 210.177 358.204 211.165 358.406 212.437L355.777 212.557C355.592 211.961 355.276 211.522 354.832 211.24C354.4 210.943 353.869 210.809 353.237 210.838C352.691 210.863 352.208 211.022 351.79 211.315C351.385 211.593 351.079 211.981 350.872 212.48C350.664 212.979 350.576 213.566 350.607 214.241C350.638 214.917 350.772 215.494 351.01 215.972C351.248 216.451 351.574 216.817 351.989 217.072C352.418 217.311 352.912 217.418 353.472 217.392C354.133 217.362 354.672 217.179 355.088 216.843C355.519 216.507 355.793 216.041 355.91 215.445L358.56 215.324C358.484 216.162 358.223 216.908 357.778 217.562C357.346 218.201 356.772 218.717 356.056 219.11C355.339 219.488 354.514 219.699 353.58 219.741C352.503 219.791 351.551 219.604 350.725 219.181C349.899 218.744 349.244 218.119 348.761 217.306C348.291 216.478 348.03 215.497 347.978 214.362ZM363.446 219.289C362.325 219.34 361.421 219.08 360.732 218.507C360.057 217.918 359.697 217.129 359.652 216.137C359.607 215.16 359.909 214.369 360.558 213.764C361.22 213.143 362.182 212.753 363.441 212.595L366.619 212.19L366.608 211.953C366.585 211.464 366.474 211.081 366.274 210.802C366.088 210.508 365.827 210.304 365.49 210.19C365.153 210.062 364.762 210.008 364.317 210.028C363.541 210.064 362.952 210.249 362.55 210.584C362.147 210.905 361.959 211.345 361.984 211.906L359.743 212.008C359.708 211.233 359.871 210.556 360.233 209.978C360.609 209.385 361.149 208.913 361.853 208.564C362.571 208.215 363.404 208.018 364.352 207.975C365.315 207.931 366.149 208.065 366.854 208.378C367.559 208.677 368.114 209.156 368.518 209.814C368.922 210.457 369.147 211.275 369.192 212.266L369.489 218.731L367.183 218.837L366.917 217.273C366.712 217.829 366.287 218.295 365.642 218.67C365.011 219.045 364.279 219.251 363.446 219.289ZM364.195 217.268C365.014 217.23 365.65 216.971 366.103 216.489C366.571 216.007 366.786 215.357 366.748 214.538L366.722 213.978L364.511 214.252C363.695 214.361 363.121 214.56 362.789 214.849C362.456 215.123 362.299 215.476 362.319 215.907C362.341 216.381 362.515 216.733 362.842 216.963C363.17 217.193 363.621 217.294 364.195 217.268ZM369.949 208.042L376.673 207.734L376.773 209.932L370.05 210.24L369.949 208.042ZM375.113 218.473L372.484 218.594L371.844 204.63L374.473 204.509L375.113 218.473ZM378.386 218.323L377.898 207.678L380.527 207.557L381.015 218.203L378.386 218.323ZM379.093 205.485C378.647 205.505 378.26 205.372 377.93 205.085C377.614 204.782 377.445 204.409 377.425 203.963C377.405 203.518 377.538 203.137 377.826 202.822C378.128 202.506 378.502 202.337 378.948 202.317C379.393 202.297 379.773 202.43 380.089 202.718C380.419 203.005 380.594 203.372 380.614 203.817C380.635 204.262 380.494 204.65 380.193 204.981C379.905 205.297 379.538 205.464 379.093 205.485ZM382.43 212.782C382.379 211.676 382.579 210.695 383.029 209.839C383.479 208.969 384.124 208.278 384.964 207.764C385.805 207.25 386.771 206.968 387.862 206.918C388.969 206.868 389.957 207.06 390.826 207.495C391.71 207.93 392.415 208.56 392.942 209.385C393.469 210.196 393.758 211.154 393.809 212.261C393.859 213.367 393.66 214.355 393.21 215.225C392.76 216.081 392.115 216.765 391.274 217.279C390.449 217.792 389.482 218.074 388.376 218.124C387.284 218.175 386.297 217.982 385.413 217.548C384.529 217.113 383.824 216.49 383.297 215.68C382.77 214.854 382.481 213.889 382.43 212.782ZM385.059 212.662C385.089 213.308 385.244 213.87 385.525 214.346C385.821 214.822 386.197 215.187 386.655 215.439C387.127 215.691 387.665 215.803 388.269 215.776C388.872 215.748 389.397 215.587 389.844 215.293C390.292 214.999 390.633 214.602 390.87 214.101C391.106 213.601 391.209 213.028 391.179 212.381C391.149 211.72 390.994 211.159 390.714 210.696C390.433 210.22 390.056 209.856 389.584 209.604C389.111 209.352 388.574 209.24 387.97 209.267C387.367 209.295 386.841 209.456 386.394 209.75C385.961 210.043 385.62 210.441 385.369 210.942C385.132 211.427 385.029 212.001 385.059 212.662ZM398.336 217.409L395.707 217.529L395.218 206.883L397.654 206.772L397.932 208.141C398.238 207.594 398.686 207.156 399.276 206.827C399.88 206.497 400.541 206.316 401.259 206.283C402.595 206.221 403.619 206.57 404.331 207.33C405.056 208.088 405.451 209.15 405.513 210.515L405.814 217.066L403.184 217.186L402.913 211.26C402.872 210.369 402.64 209.718 402.218 209.305C401.796 208.878 401.24 208.681 400.55 208.712C399.731 208.75 399.104 209.038 398.668 209.576C398.232 210.114 398.033 210.814 398.073 211.676L398.336 217.409Z" fill="#098D83"/>
<rect x="428.35" y="178.377" width="116.115" height="53.7073" rx="25.8598" transform="rotate(-2.97452 428.35 178.377)" fill="#065852" stroke="#05534E" stroke-width="2.3697"/>
<circle cx="515.456" cy="200.916" r="20.326" transform="rotate(-2.97452 515.456 200.916)" fill="#057068" stroke="#055852" stroke-width="1.74223"/>
<path d="M134.5 279C134.5 262.155 148.155 248.5 165 248.5H678.5V998.5H134.5V279Z" fill="#04655E" stroke="#055852" stroke-width="3"/>
<rect x="315.553" y="466.786" width="172.69" height="17.9987" rx="6.94334" fill="#07756D" stroke="#055852" stroke-width="1.58243"/>
<rect x="257.791" y="419.791" width="288.219" height="32.6846" rx="6.94334" fill="#07756D" stroke="#055852" stroke-width="1.58243"/>
<rect x="186.808" y="647.808" width="176.384" height="18.3837" rx="7.09186" fill="#07756D" stroke="#055852" stroke-width="1.61628"/>
<rect x="186.808" y="676.808" width="456.384" height="52.3837" rx="12.0919" fill="#07756D" stroke="#055852" stroke-width="1.61628"/>
<rect x="186.808" y="762.808" width="176.384" height="18.3837" rx="7.09186" fill="#07756D" stroke="#055852" stroke-width="1.61628"/>
<rect x="186.808" y="791.808" width="456.384" height="52.3837" rx="12.0919" fill="#07756D" stroke="#055852" stroke-width="1.61628"/>
<circle cx="217.141" cy="565.859" r="38.4917" fill="#057068" stroke="#055852" stroke-width="3.29929"/>
<circle cx="347.423" cy="565.859" r="38.4917" fill="#057068" stroke="#055852" stroke-width="3.29929"/>
<circle cx="477.708" cy="565.859" r="38.4917" fill="#057068" stroke="#055852" stroke-width="3.29929"/>
<circle cx="607.989" cy="565.859" r="38.4917" fill="#057068" stroke="#055852" stroke-width="3.29929"/>
<rect x="174.808" y="293.808" width="129.384" height="60.3837" rx="29.093" fill="#07756D" stroke="#055852" stroke-width="1.61628"/>
<circle cx="207.135" cy="323.799" r="22.4729" fill="#05635C" stroke="#055852" stroke-width="1.92625"/>
<path d="M255.5 318L265.719 330.077C266.124 330.556 266.866 330.547 267.26 330.059L277 318" stroke="#055852" stroke-width="2"/>
<rect x="466.808" y="303.808" width="95.3837" height="18.3837" rx="7.09186" fill="#07756D" stroke="#055852" stroke-width="1.61628"/>
<path d="M626 307.558L634.555 317.669C634.895 318.07 635.515 318.063 635.846 317.654L644 307.558" stroke="#055852" stroke-width="3"/>
<rect x="466.808" y="327.808" width="176.384" height="18.3837" rx="7.09186" fill="#07756D" stroke="#055852" stroke-width="1.61628"/>
<rect x="187.049" y="900.715" width="279.56" height="56.4552" rx="28.2276" fill="#056F67"/>
<rect x="187.049" y="900.715" width="279.56" height="56.4552" rx="28.2276" stroke="#055852" stroke-width="2.09701"/>
<path d="M222.15 936.442H220.225L225.208 922.797H227.265L232.266 936.442H230.322L229.096 933.045H223.358L222.15 936.442ZM226 925.741L223.924 931.441H228.548L226.453 925.741C226.416 925.603 226.371 925.464 226.321 925.326C226.271 925.175 226.239 925.049 226.227 924.948C226.202 925.049 226.17 925.175 226.132 925.326C226.095 925.464 226.051 925.603 226 925.741ZM232.428 931.837C232.428 930.868 232.617 930.019 232.994 929.289C233.384 928.559 233.919 927.987 234.598 927.572C235.278 927.157 236.064 926.949 236.958 926.949C238.115 926.949 239.078 927.257 239.845 927.874C240.613 928.49 241.072 929.308 241.223 930.327H239.449C239.298 929.736 239.002 929.289 238.562 928.987C238.121 928.685 237.606 928.534 237.014 928.534C236.461 928.534 235.97 928.673 235.542 928.95C235.114 929.214 234.781 929.591 234.542 930.082C234.303 930.573 234.183 931.151 234.183 931.818C234.183 932.485 234.297 933.064 234.523 933.555C234.749 934.033 235.07 934.41 235.486 934.687C235.901 934.951 236.385 935.083 236.939 935.083C237.568 935.083 238.109 934.926 238.562 934.611C239.015 934.297 239.317 933.869 239.468 933.328H241.242C241.129 933.995 240.871 934.58 240.468 935.083C240.078 935.574 239.575 935.964 238.958 936.253C238.354 936.53 237.681 936.669 236.939 936.669C236.033 936.669 235.24 936.467 234.561 936.065C233.894 935.662 233.372 935.102 232.994 934.385C232.617 933.655 232.428 932.806 232.428 931.837ZM242.132 931.837C242.132 930.868 242.321 930.019 242.698 929.289C243.089 928.559 243.623 927.987 244.303 927.572C244.982 927.157 245.768 926.949 246.662 926.949C247.819 926.949 248.782 927.257 249.549 927.874C250.317 928.49 250.776 929.308 250.927 930.327H249.153C249.002 929.736 248.706 929.289 248.266 928.987C247.826 928.685 247.31 928.534 246.718 928.534C246.165 928.534 245.674 928.673 245.246 928.95C244.819 929.214 244.485 929.591 244.246 930.082C244.007 930.573 243.887 931.151 243.887 931.818C243.887 932.485 244.001 933.064 244.227 933.555C244.454 934.033 244.775 934.41 245.19 934.687C245.605 934.951 246.089 935.083 246.643 935.083C247.272 935.083 247.813 934.926 248.266 934.611C248.719 934.297 249.021 933.869 249.172 933.328H250.946C250.833 933.995 250.575 934.58 250.172 935.083C249.782 935.574 249.279 935.964 248.662 936.253C248.058 936.53 247.385 936.669 246.643 936.669C245.737 936.669 244.944 936.467 244.265 936.065C243.598 935.662 243.076 935.102 242.698 934.385C242.321 933.655 242.132 932.806 242.132 931.837ZM256.423 936.669C255.529 936.669 254.737 936.467 254.045 936.065C253.353 935.649 252.812 935.083 252.422 934.366C252.031 933.636 251.836 932.793 251.836 931.837C251.836 930.868 252.025 930.019 252.403 929.289C252.793 928.559 253.321 927.987 253.988 927.572C254.667 927.157 255.454 926.949 256.347 926.949C257.228 926.949 257.989 927.138 258.631 927.515C259.285 927.893 259.788 928.421 260.141 929.1C260.506 929.78 260.688 930.579 260.688 931.497V932.158L252.78 932.177L252.818 930.988H258.914C258.914 930.22 258.681 929.604 258.216 929.138C257.75 928.673 257.127 928.44 256.347 928.44C255.756 928.44 255.246 928.572 254.818 928.836C254.403 929.088 254.082 929.465 253.856 929.969C253.642 930.459 253.535 931.051 253.535 931.743C253.535 932.85 253.787 933.706 254.29 934.309C254.793 934.901 255.517 935.197 256.46 935.197C257.152 935.197 257.719 935.058 258.159 934.781C258.599 934.504 258.895 934.102 259.046 933.573H260.707C260.48 934.555 259.996 935.316 259.254 935.857C258.511 936.398 257.568 936.669 256.423 936.669ZM262.292 940.575V927.213H263.896L264.028 928.874C264.33 928.232 264.777 927.754 265.368 927.44C265.972 927.113 266.639 926.949 267.369 926.949C268.25 926.949 269.011 927.157 269.653 927.572C270.294 927.974 270.785 928.541 271.125 929.27C271.477 929.988 271.653 930.818 271.653 931.762C271.653 932.705 271.483 933.548 271.144 934.291C270.816 935.033 270.332 935.618 269.69 936.046C269.061 936.474 268.287 936.687 267.369 936.687C266.627 936.687 265.966 936.537 265.387 936.235C264.808 935.933 264.368 935.498 264.066 934.932V940.575H262.292ZM264.085 931.837C264.085 932.454 264.198 933.014 264.425 933.517C264.664 934.008 264.997 934.391 265.425 934.668C265.865 934.945 266.387 935.083 266.991 935.083C267.595 935.083 268.111 934.945 268.539 934.668C268.967 934.379 269.294 933.989 269.52 933.498C269.759 933.007 269.879 932.454 269.879 931.837C269.879 931.195 269.759 930.629 269.52 930.139C269.294 929.648 268.967 929.264 268.539 928.987C268.111 928.71 267.595 928.572 266.991 928.572C266.387 928.572 265.865 928.71 265.425 928.987C264.997 929.264 264.664 929.648 264.425 930.139C264.198 930.629 264.085 931.195 264.085 931.837ZM272.158 927.213H277.555V928.704H272.158V927.213ZM275.743 936.442H273.969V924.326H275.743V936.442ZM286.36 928.478L287.172 929.497C286.517 929.837 285.989 930.176 285.586 930.516C285.184 930.843 284.888 931.189 284.699 931.554C284.51 931.919 284.416 932.322 284.416 932.762C284.416 933.504 284.699 934.089 285.265 934.517C285.832 934.945 286.605 935.159 287.587 935.159C288.983 935.159 290.065 934.718 290.833 933.838C291.613 932.944 292.003 931.686 292.003 930.063H293.721C293.721 931.397 293.456 932.561 292.928 933.555C292.412 934.549 291.682 935.322 290.739 935.876C289.807 936.417 288.7 936.687 287.417 936.687C286.448 936.687 285.599 936.53 284.869 936.216C284.139 935.889 283.573 935.448 283.17 934.895C282.768 934.328 282.566 933.661 282.566 932.894C282.566 932.303 282.705 931.749 282.982 931.233C283.258 930.705 283.674 930.22 284.227 929.78C284.794 929.327 285.504 928.893 286.36 928.478ZM288.002 929.176L287.134 928.119C287.788 927.754 288.272 927.352 288.587 926.911C288.902 926.471 289.059 925.98 289.059 925.439C289.059 924.999 288.927 924.653 288.663 924.401C288.398 924.137 288.027 924.005 287.549 924.005C287.071 924.005 286.687 924.143 286.398 924.42C286.121 924.684 285.983 925.043 285.983 925.496C285.983 925.735 286.027 925.968 286.115 926.194C286.203 926.421 286.347 926.678 286.549 926.968C286.763 927.257 287.052 927.616 287.417 928.044L294.796 936.442H292.72L286.039 928.836C285.41 928.132 284.963 927.534 284.699 927.043C284.435 926.54 284.303 926.03 284.303 925.515C284.303 924.936 284.441 924.426 284.718 923.986C284.995 923.545 285.379 923.199 285.869 922.948C286.36 922.696 286.926 922.57 287.568 922.57C288.197 922.57 288.744 922.69 289.21 922.929C289.688 923.168 290.059 923.501 290.323 923.929C290.588 924.344 290.72 924.835 290.72 925.401C290.72 926.106 290.506 926.754 290.078 927.345C289.663 927.937 288.971 928.547 288.002 929.176ZM304.071 936.442L298.881 922.797H300.863L304.184 931.516C304.335 931.894 304.48 932.29 304.618 932.705C304.757 933.108 304.895 933.567 305.034 934.083C305.197 933.542 305.354 933.051 305.505 932.611C305.656 932.171 305.789 931.799 305.902 931.497L309.205 922.797H311.13L305.996 936.442H304.071ZM314.713 936.669C313.819 936.669 313.027 936.467 312.335 936.065C311.643 935.649 311.102 935.083 310.711 934.366C310.321 933.636 310.126 932.793 310.126 931.837C310.126 930.868 310.315 930.019 310.693 929.289C311.083 928.559 311.611 927.987 312.278 927.572C312.957 927.157 313.744 926.949 314.637 926.949C315.518 926.949 316.279 927.138 316.921 927.515C317.575 927.893 318.078 928.421 318.431 929.1C318.795 929.78 318.978 930.579 318.978 931.497V932.158L311.07 932.177L311.108 930.988H317.204C317.204 930.22 316.971 929.604 316.506 929.138C316.04 928.673 315.417 928.44 314.637 928.44C314.046 928.44 313.536 928.572 313.108 928.836C312.693 929.088 312.372 929.465 312.146 929.969C311.932 930.459 311.825 931.051 311.825 931.743C311.825 932.85 312.077 933.706 312.58 934.309C313.083 934.901 313.807 935.197 314.75 935.197C315.442 935.197 316.009 935.058 316.449 934.781C316.889 934.504 317.185 934.102 317.336 933.573H318.997C318.77 934.555 318.286 935.316 317.544 935.857C316.801 936.398 315.858 936.669 314.713 936.669ZM325.866 927.138V928.761H325.074C324.231 928.761 323.564 929.006 323.073 929.497C322.595 929.975 322.356 930.661 322.356 931.554V936.442H320.582V927.232H322.243L322.394 929.082H322.224C322.35 928.478 322.652 927.987 323.13 927.61C323.608 927.219 324.206 927.024 324.923 927.024C325.086 927.024 325.237 927.037 325.376 927.062C325.527 927.075 325.69 927.1 325.866 927.138ZM327.153 936.442V927.213H328.927V936.442H327.153ZM328.021 925.024C327.707 925.024 327.43 924.911 327.191 924.684C326.964 924.445 326.851 924.168 326.851 923.854C326.851 923.527 326.964 923.25 327.191 923.023C327.43 922.797 327.707 922.684 328.021 922.684C328.348 922.684 328.625 922.797 328.852 923.023C329.078 923.25 329.191 923.527 329.191 923.854C329.191 924.168 329.078 924.445 328.852 924.684C328.625 924.911 328.348 925.024 328.021 925.024ZM330.144 927.213H335.466V928.704H330.144V927.213ZM335.523 922.627V924.156C335.409 924.156 335.284 924.156 335.145 924.156C335.019 924.156 334.881 924.156 334.73 924.156C334.151 924.156 333.761 924.294 333.56 924.571C333.371 924.848 333.277 925.238 333.277 925.741V936.442H331.503V925.741C331.503 924.986 331.628 924.376 331.88 923.91C332.144 923.432 332.49 923.086 332.918 922.872C333.358 922.658 333.862 922.552 334.428 922.552C334.604 922.552 334.787 922.558 334.975 922.57C335.164 922.583 335.346 922.602 335.523 922.627ZM337.474 927.213L340.72 936.197L339.625 937.707L335.605 927.213H337.474ZM335.851 940.575V939.122H337.04C337.329 939.122 337.593 939.091 337.832 939.028C338.071 938.977 338.292 938.858 338.493 938.669C338.694 938.493 338.864 938.21 339.002 937.82L342.89 927.213H344.721L340.361 938.518C340.047 939.311 339.65 939.883 339.172 940.236C338.694 940.588 338.103 940.764 337.398 940.764C337.109 940.764 336.838 940.745 336.587 940.707C336.335 940.682 336.09 940.638 335.851 940.575ZM353.601 936.442L349.543 922.797H351.468L353.959 931.139C354.06 931.491 354.154 931.862 354.242 932.252C354.33 932.642 354.425 933.095 354.525 933.611C354.639 933.058 354.745 932.598 354.846 932.233C354.959 931.869 355.066 931.504 355.167 931.139L357.753 922.797H359.753L362.32 931.139C362.433 931.504 362.54 931.881 362.641 932.271C362.741 932.661 362.842 933.108 362.943 933.611C363.069 933.032 363.175 932.554 363.264 932.177C363.364 931.799 363.459 931.46 363.547 931.158L366.057 922.797H367.944L363.83 936.442H362.056L358.753 925.647L355.412 936.442H353.601ZM370.521 936.669C369.54 936.669 368.766 936.411 368.2 935.895C367.646 935.379 367.369 934.706 367.369 933.875C367.369 933.032 367.671 932.359 368.275 931.856C368.879 931.34 369.722 931.038 370.804 930.95L373.711 930.724V930.459C373.711 929.943 373.616 929.535 373.428 929.233C373.239 928.918 372.981 928.698 372.654 928.572C372.327 928.434 371.956 928.364 371.54 928.364C370.798 928.364 370.219 928.522 369.804 928.836C369.401 929.138 369.2 929.572 369.2 930.139H367.652C367.652 929.497 367.816 928.937 368.143 928.459C368.47 927.981 368.93 927.61 369.521 927.345C370.125 927.081 370.823 926.949 371.616 926.949C372.383 926.949 373.05 927.087 373.616 927.364C374.195 927.628 374.642 928.037 374.956 928.591C375.283 929.132 375.447 929.818 375.447 930.648V936.442H373.937L373.748 934.951C373.509 935.48 373.094 935.901 372.503 936.216C371.924 936.518 371.264 936.669 370.521 936.669ZM371.031 935.291C371.874 935.291 372.534 935.039 373.012 934.536C373.491 934.02 373.73 933.328 373.73 932.46V931.969L371.37 932.158C370.59 932.233 370.024 932.416 369.672 932.705C369.332 932.995 369.162 933.366 369.162 933.819C369.162 934.309 369.326 934.681 369.653 934.932C369.993 935.171 370.452 935.291 371.031 935.291ZM379.338 936.442H377.564V922.552H379.338V936.442ZM383.384 936.442H381.61V922.552H383.384V936.442ZM389.601 936.669C388.707 936.669 387.915 936.467 387.223 936.065C386.531 935.649 385.99 935.083 385.599 934.366C385.209 933.636 385.014 932.793 385.014 931.837C385.014 930.868 385.203 930.019 385.581 929.289C385.971 928.559 386.499 927.987 387.166 927.572C387.845 927.157 388.632 926.949 389.525 926.949C390.406 926.949 391.167 927.138 391.809 927.515C392.463 927.893 392.966 928.421 393.319 929.1C393.683 929.78 393.866 930.579 393.866 931.497V932.158L385.958 932.177L385.996 930.988H392.092C392.092 930.22 391.859 929.604 391.394 929.138C390.928 928.673 390.305 928.44 389.525 928.44C388.934 928.44 388.424 928.572 387.996 928.836C387.581 929.088 387.26 929.465 387.034 929.969C386.82 930.459 386.713 931.051 386.713 931.743C386.713 932.85 386.965 933.706 387.468 934.309C387.971 934.901 388.695 935.197 389.638 935.197C390.33 935.197 390.897 935.058 391.337 934.781C391.777 934.504 392.073 934.102 392.224 933.573H393.885C393.658 934.555 393.174 935.316 392.432 935.857C391.689 936.398 390.746 936.669 389.601 936.669ZM394.396 927.213H399.794V928.704H394.396V927.213ZM397.982 936.442H396.208V924.326H397.982V936.442Z" fill="white"/>
<path d="M431.855 929.313L427.136 934.031C427.038 934.13 426.904 934.185 426.765 934.185C426.626 934.185 426.493 934.13 426.394 934.031C426.296 933.933 426.241 933.8 426.241 933.66C426.241 933.521 426.296 933.388 426.394 933.289L430.218 929.466H419.95C419.811 929.466 419.678 929.411 419.579 929.313C419.481 929.214 419.426 929.081 419.426 928.942C419.426 928.803 419.481 928.67 419.579 928.571C419.678 928.473 419.811 928.418 419.95 928.418H430.218L426.394 924.595C426.296 924.496 426.241 924.363 426.241 924.224C426.241 924.085 426.296 923.951 426.394 923.853C426.493 923.755 426.626 923.699 426.765 923.699C426.904 923.699 427.038 923.755 427.136 923.853L431.855 928.571C431.903 928.62 431.942 928.678 431.968 928.741C431.995 928.805 432.008 928.873 432.008 928.942C432.008 929.011 431.995 929.079 431.968 929.143C431.942 929.207 431.903 929.264 431.855 929.313Z" fill="white"/>
<path d="M506.5 201L511.267 207.067L526 194.933" stroke="#84F3EB" stroke-width="2"/>
</g>
<defs>
<clipPath id="clip0_843_4724">
<rect width="680" height="976" rx="24" fill="white"/>
</clipPath>
</defs>
</svg>
