<svg width="680" height="976" viewBox="0 0 680 976" fill="none" xmlns="http://www.w3.org/2000/svg">
<g clip-path="url(#clip0_816_3989)">
<rect width="680" height="976" rx="24" fill="#056F67"/>
<rect x="170.578" y="99.0957" width="364.278" height="143.814" rx="14.5" transform="rotate(-3.0713 170.578 99.0957)" fill="#04615B" stroke="#055852" stroke-width="3"/>
<path d="M207.509 147.195L202.089 131.657L204.955 131.526L207.836 139.73C207.986 140.155 208.129 140.609 208.266 141.092C208.403 141.561 208.544 142.138 208.691 142.822C208.788 142.112 208.883 141.525 208.977 141.06C209.085 140.58 209.193 140.114 209.302 139.663L211.42 131.23L214.459 131.09L217.275 139.297C217.425 139.736 217.569 140.198 217.706 140.681C217.858 141.164 218.013 141.732 218.173 142.387C218.283 141.648 218.385 141.046 218.479 140.581C218.586 140.101 218.689 139.664 218.786 139.271L220.945 130.793L223.747 130.665L219.685 146.637L217.013 146.759L213.125 135.449L210.203 147.072L207.509 147.195ZM227.304 146.568C226.183 146.62 225.279 146.359 224.59 145.786C223.915 145.198 223.555 144.408 223.51 143.417C223.465 142.44 223.767 141.648 224.416 141.043C225.078 140.422 226.039 140.033 227.299 139.874L230.477 139.469L230.466 139.232C230.443 138.744 230.332 138.36 230.132 138.081C229.946 137.787 229.685 137.584 229.348 137.469C229.011 137.341 228.62 137.287 228.175 137.307C227.399 137.343 226.81 137.528 226.408 137.863C226.005 138.184 225.817 138.625 225.842 139.185L223.601 139.288C223.565 138.512 223.729 137.835 224.091 137.257C224.467 136.664 225.007 136.193 225.711 135.844C226.429 135.494 227.262 135.298 228.21 135.254C229.173 135.21 230.007 135.344 230.712 135.658C231.417 135.956 231.972 136.435 232.376 137.093C232.78 137.737 233.005 138.554 233.05 139.546L233.346 146.011L231.041 146.116L230.775 144.552C230.57 145.109 230.145 145.574 229.5 145.949C228.869 146.324 228.137 146.53 227.304 146.568ZM228.053 144.547C228.872 144.51 229.508 144.25 229.961 143.769C230.429 143.287 230.644 142.636 230.606 141.817L230.58 141.257L228.369 141.531C227.553 141.64 226.979 141.84 226.647 142.128C226.314 142.403 226.157 142.755 226.177 143.186C226.199 143.661 226.373 144.012 226.7 144.242C227.028 144.472 227.479 144.574 228.053 144.547ZM238.149 145.79L235.541 145.91L234.806 129.877L237.414 129.757L238.149 145.79ZM243.127 145.562L240.519 145.682L239.784 129.648L242.391 129.529L243.127 145.562ZM250.229 145.517C249.18 145.565 248.235 145.371 247.395 144.935C246.568 144.483 245.905 143.851 245.407 143.039C244.909 142.212 244.635 141.253 244.584 140.161C244.534 139.055 244.712 138.068 245.118 137.2C245.525 136.332 246.119 135.642 246.902 135.131C247.684 134.606 248.592 134.32 249.627 134.272C250.704 134.223 251.642 134.41 252.438 134.834C253.235 135.244 253.86 135.842 254.313 136.627C254.781 137.412 255.041 138.365 255.092 139.485L255.129 140.283L245.992 140.723L245.958 139.04L252.445 138.743C252.411 138.01 252.147 137.432 251.653 137.008C251.173 136.584 250.537 136.39 249.747 136.426C249.129 136.454 248.611 136.608 248.192 136.886C247.787 137.164 247.489 137.566 247.297 138.093C247.105 138.62 247.026 139.257 247.061 140.005C247.113 141.154 247.398 142.012 247.913 142.579C248.443 143.145 249.196 143.405 250.173 143.36C250.891 143.327 251.474 143.164 251.921 142.87C252.383 142.575 252.674 142.173 252.795 141.664L255.23 141.552C255.053 142.726 254.521 143.665 253.631 144.368C252.757 145.07 251.622 145.453 250.229 145.517ZM255.369 134.333L262.092 134.025L262.193 136.223L255.47 136.531L255.369 134.333ZM260.533 144.764L257.904 144.885L257.264 130.92L259.893 130.8L260.533 144.764ZM267.639 133.77L274.363 133.462L274.463 135.66L267.74 135.968L267.639 133.77ZM272.803 144.202L270.174 144.322L269.534 130.358L272.163 130.237L272.803 144.202ZM275.1 138.741C275.05 137.634 275.249 136.653 275.7 135.798C276.149 134.928 276.794 134.236 277.635 133.722C278.475 133.209 279.441 132.927 280.533 132.877C281.639 132.826 282.627 133.018 283.496 133.453C284.38 133.888 285.085 134.518 285.613 135.343C286.139 136.154 286.428 137.113 286.479 138.219C286.53 139.325 286.33 140.313 285.881 141.183C285.43 142.039 284.785 142.724 283.945 143.237C283.119 143.75 282.153 144.032 281.047 144.083C279.955 144.133 278.967 143.941 278.083 143.506C277.199 143.071 276.494 142.449 275.967 141.638C275.44 140.813 275.151 139.847 275.1 138.741ZM277.73 138.62C277.759 139.267 277.914 139.828 278.195 140.305C278.491 140.781 278.867 141.145 279.325 141.397C279.798 141.649 280.335 141.761 280.939 141.734C281.542 141.706 282.068 141.545 282.515 141.251C282.962 140.957 283.304 140.56 283.54 140.06C283.776 139.559 283.879 138.986 283.85 138.339C283.819 137.679 283.664 137.117 283.384 136.655C283.103 136.178 282.726 135.814 282.254 135.562C281.782 135.31 281.244 135.198 280.64 135.226C280.037 135.253 279.512 135.414 279.065 135.708C278.632 136.002 278.29 136.399 278.039 136.9C277.803 137.386 277.699 137.959 277.73 138.62ZM299.81 142.963L294.142 143.223L293.42 127.47L298.937 127.217C300.488 127.146 301.869 127.421 303.078 128.042C304.286 128.649 305.248 129.534 305.964 130.696C306.693 131.843 307.093 133.199 307.165 134.765C307.236 136.303 306.968 137.683 306.362 138.905C305.769 140.113 304.906 141.074 303.773 141.788C302.654 142.502 301.333 142.893 299.81 142.963ZM296.237 128.615L296.843 141.847L295.469 140.614L299.435 140.432C300.483 140.384 301.379 140.127 302.12 139.661C302.862 139.195 303.416 138.558 303.782 137.749C304.148 136.941 304.306 135.991 304.256 134.899C304.205 133.778 303.952 132.832 303.5 132.061C303.046 131.276 302.421 130.685 301.626 130.29C300.83 129.895 299.887 129.722 298.795 129.772L294.98 129.947L296.237 128.615ZM310.242 142.485L307.397 142.615L312.364 126.601L315.187 126.472L321.599 141.964L318.689 142.098L317.251 138.514L311.368 138.784L310.242 142.485ZM313.636 131.251L312.058 136.42L316.347 136.223L314.304 131.22C314.236 131.007 314.162 130.795 314.08 130.583C313.998 130.371 313.947 130.186 313.925 130.028C313.903 130.173 313.861 130.362 313.8 130.596C313.752 130.814 313.697 131.032 313.636 131.251ZM336.376 133.383C336.449 134.978 336.191 136.408 335.601 137.673C335.011 138.924 334.156 139.92 333.039 140.662C331.921 141.405 330.608 141.81 329.099 141.88C327.605 141.948 326.268 141.664 325.087 141.027C323.906 140.39 322.964 139.476 322.262 138.284C321.573 137.092 321.193 135.699 321.12 134.104C321.046 132.495 321.304 131.065 321.895 129.814C322.485 128.549 323.331 127.546 324.435 126.804C325.552 126.062 326.865 125.656 328.374 125.587C329.882 125.518 331.22 125.802 332.387 126.439C333.568 127.076 334.509 127.99 335.212 129.182C335.914 130.373 336.302 131.774 336.376 133.383ZM333.488 133.515C333.437 132.395 333.199 131.434 332.773 130.633C332.348 129.832 331.773 129.224 331.048 128.811C330.323 128.384 329.472 128.193 328.495 128.237C327.533 128.281 326.703 128.55 326.006 129.043C325.322 129.52 324.805 130.177 324.455 131.014C324.105 131.851 323.955 132.829 324.006 133.95C324.058 135.071 324.297 136.039 324.723 136.854C325.148 137.655 325.723 138.262 326.447 138.675C327.186 139.088 328.037 139.272 328.999 139.228C329.976 139.183 330.807 138.922 331.49 138.444C332.173 137.952 332.69 137.288 333.04 136.451C333.39 135.6 333.539 134.622 333.488 133.515Z" fill="#098D83"/>
<rect x="398.385" y="100.788" width="116.115" height="53.7073" rx="25.8598" transform="rotate(-2.97452 398.385 100.788)" fill="#065852" stroke="#05534E" stroke-width="2.3697"/>
<circle cx="485.491" cy="123.327" r="20.326" transform="rotate(-2.97452 485.491 123.327)" fill="#057068" stroke="#055852" stroke-width="1.74223"/>
<path d="M477 124L481.767 130.067L496.5 117.933" stroke="#84F3EB" stroke-width="2"/>
<path d="M132.5 208C132.5 191.155 146.155 177.5 163 177.5H722.5V987.5H132.5V208Z" fill="#04655E" stroke="#055852" stroke-width="3"/>
<path d="M178.786 531H177.188L181.324 519.672H183.032L187.184 531H185.57L184.552 528.18H179.789L178.786 531ZM181.982 522.117L180.259 526.848H184.097L182.358 522.117C182.28 521.897 182.202 521.631 182.17 521.459C182.139 521.615 182.061 521.882 181.982 522.117ZM189.943 531H188.47V519.469H189.943V531ZM193.615 531H192.142V519.469H193.615V531Z" fill="#0EB4A8"/>
<path d="M238.142 531H236.999L241.119 519.782H242.514L246.681 531H245.506L244.409 528.023H239.239L238.142 531ZM241.668 521.365L239.584 527.036H244.049L241.95 521.365C241.903 521.208 241.824 521.02 241.809 520.91C241.793 521.004 241.73 521.208 241.668 521.365ZM248.005 534.306V523.417H248.945L249.055 524.952C249.588 523.777 250.653 523.213 251.922 523.213C254.116 523.213 255.432 524.89 255.432 527.177C255.432 529.465 254.163 531.188 251.922 531.188C250.638 531.188 249.619 530.64 249.087 529.543V534.306H248.005ZM249.102 527.208C249.102 528.948 250.074 530.217 251.734 530.217C253.379 530.217 254.335 528.948 254.335 527.208C254.335 525.454 253.379 524.2 251.734 524.2C250.074 524.2 249.102 525.454 249.102 527.208ZM257.155 534.306V523.417H258.095L258.205 524.952C258.737 523.777 259.803 523.213 261.072 523.213C263.265 523.213 264.581 524.89 264.581 527.177C264.581 529.465 263.312 531.188 261.072 531.188C259.787 531.188 258.769 530.64 258.236 529.543V534.306H257.155ZM258.252 527.208C258.252 528.948 259.223 530.217 260.884 530.217C262.529 530.217 263.485 528.948 263.485 527.208C263.485 525.454 262.529 524.2 260.884 524.2C259.223 524.2 258.252 525.454 258.252 527.208ZM270.268 523.323V524.294H269.673C268.279 524.294 267.385 525.234 267.385 526.676V531H266.304V523.417H267.323L267.401 524.592C267.699 523.777 268.498 523.245 269.563 523.245C269.798 523.245 270.002 523.26 270.268 523.323ZM270.882 527.208C270.882 524.89 272.511 523.213 274.736 523.213C276.961 523.213 278.59 524.89 278.59 527.208C278.59 529.512 276.961 531.188 274.736 531.188C272.511 531.188 270.882 529.512 270.882 527.208ZM271.979 527.193C271.979 528.979 273.107 530.217 274.736 530.217C276.35 530.217 277.494 528.979 277.494 527.193C277.494 525.438 276.35 524.185 274.736 524.185C273.107 524.185 271.979 525.438 271.979 527.193ZM282.098 531L278.996 523.417H280.155L282.114 528.305C282.317 528.854 282.521 529.371 282.662 529.872C282.803 529.355 283.007 528.854 283.226 528.305L285.216 523.417H286.328L283.179 531H282.098ZM290.446 531.188C288.221 531.188 286.733 529.59 286.733 527.208C286.733 524.843 288.206 523.213 290.368 523.213C292.42 523.213 293.815 524.67 293.815 526.817V527.35H287.783C287.861 529.198 288.832 530.264 290.462 530.264C291.7 530.264 292.499 529.731 292.781 528.728H293.815C293.407 530.326 292.232 531.188 290.446 531.188ZM290.368 524.138C288.942 524.138 288.002 525.078 287.814 526.566H292.734C292.734 525.109 291.794 524.138 290.368 524.138ZM298.52 531.188C296.311 531.188 295.01 529.496 295.01 527.224C295.01 524.937 296.311 523.213 298.567 523.213C299.82 523.213 300.823 523.762 301.356 524.858V519.578H302.437V531H301.497L301.387 529.449C300.854 530.624 299.789 531.188 298.52 531.188ZM298.708 530.201C300.369 530.201 301.34 528.948 301.34 527.193C301.34 525.454 300.369 524.185 298.708 524.185C297.063 524.185 296.107 525.454 296.107 527.193C296.107 528.948 297.063 530.201 298.708 530.201Z" fill="#F0FDFC"/>
<path d="M350.337 531H346.922V519.782H350.306C353.69 519.782 355.946 522.038 355.946 525.391C355.946 528.744 353.706 531 350.337 531ZM350.259 520.816H348.05V529.966H350.29C353.032 529.966 354.787 528.18 354.787 525.391C354.787 522.587 353.032 520.816 350.259 520.816ZM360.929 531.188C358.704 531.188 357.216 529.59 357.216 527.208C357.216 524.843 358.689 523.213 360.851 523.213C362.903 523.213 364.298 524.67 364.298 526.817V527.35H358.266C358.344 529.198 359.315 530.264 360.945 530.264C362.183 530.264 362.982 529.731 363.264 528.728H364.298C363.89 530.326 362.715 531.188 360.929 531.188ZM360.851 524.138C359.425 524.138 358.485 525.078 358.297 526.566H363.217C363.217 525.109 362.277 524.138 360.851 524.138ZM367.107 531H366.026V523.417H366.966L367.123 524.733C367.624 523.762 368.627 523.213 369.724 523.213C371.807 523.213 372.669 524.451 372.669 526.362V531H371.588V526.597C371.588 524.827 370.789 524.2 369.536 524.2C367.984 524.2 367.107 525.328 367.107 527.036V531ZM375.356 521.333C374.918 521.333 374.557 520.973 374.557 520.534C374.557 520.096 374.918 519.719 375.356 519.719C375.795 519.719 376.171 520.096 376.171 520.534C376.171 520.973 375.795 521.333 375.356 521.333ZM374.824 531V523.417H375.905V531H374.824ZM381.34 531.188C379.115 531.188 377.626 529.59 377.626 527.208C377.626 524.843 379.099 523.213 381.261 523.213C383.314 523.213 384.708 524.67 384.708 526.817V527.35H378.676C378.754 529.198 379.726 530.264 381.355 530.264C382.593 530.264 383.392 529.731 383.674 528.728H384.708C384.301 530.326 383.126 531.188 381.34 531.188ZM381.261 524.138C379.835 524.138 378.895 525.078 378.707 526.566H383.627C383.627 525.109 382.687 524.138 381.261 524.138ZM389.413 531.188C387.204 531.188 385.904 529.496 385.904 527.224C385.904 524.937 387.204 523.213 389.46 523.213C390.714 523.213 391.716 523.762 392.249 524.858V519.578H393.33V531H392.39L392.28 529.449C391.748 530.624 390.682 531.188 389.413 531.188ZM389.601 530.201C391.262 530.201 392.233 528.948 392.233 527.193C392.233 525.454 391.262 524.185 389.601 524.185C387.956 524.185 387 525.454 387 527.193C387 528.948 387.956 530.201 389.601 530.201Z" fill="#F0FDFC"/>
<path d="M441.98 526.879H438.831V531H437.703V519.782H441.98C444.142 519.782 445.505 521.192 445.505 523.307C445.505 525.344 444.127 526.879 441.98 526.879ZM441.823 520.801H438.831V525.861H441.761C443.39 525.861 444.33 524.827 444.33 523.292C444.33 521.741 443.374 520.801 441.823 520.801ZM449.936 531.188C447.711 531.188 446.222 529.59 446.222 527.208C446.222 524.843 447.695 523.213 449.857 523.213C451.91 523.213 453.304 524.67 453.304 526.817V527.35H447.272C447.35 529.198 448.322 530.264 449.951 530.264C451.189 530.264 451.988 529.731 452.27 528.728H453.304C452.897 530.326 451.722 531.188 449.936 531.188ZM449.857 524.138C448.432 524.138 447.491 525.078 447.303 526.566H452.223C452.223 525.109 451.283 524.138 449.857 524.138ZM456.114 531H455.032V523.417H455.973L456.129 524.733C456.631 523.762 457.633 523.213 458.73 523.213C460.814 523.213 461.675 524.451 461.675 526.362V531H460.594V526.597C460.594 524.827 459.795 524.2 458.542 524.2C456.991 524.2 456.114 525.328 456.114 527.036V531ZM466.807 531.188C464.598 531.188 463.297 529.496 463.297 527.224C463.297 524.937 464.598 523.213 466.854 523.213C468.107 523.213 469.11 523.762 469.643 524.858V519.578H470.724V531H469.784L469.674 529.449C469.141 530.624 468.076 531.188 466.807 531.188ZM466.995 530.201C468.656 530.201 469.627 528.948 469.627 527.193C469.627 525.454 468.656 524.185 466.995 524.185C465.35 524.185 464.394 525.454 464.394 527.193C464.394 528.948 465.35 530.201 466.995 530.201ZM473.512 521.333C473.074 521.333 472.713 520.973 472.713 520.534C472.713 520.096 473.074 519.719 473.512 519.719C473.951 519.719 474.327 520.096 474.327 520.534C474.327 520.973 473.951 521.333 473.512 521.333ZM472.98 531V523.417H474.061V531H472.98ZM477.396 531H476.315V523.417H477.255L477.412 524.733C477.913 523.762 478.916 523.213 480.013 523.213C482.096 523.213 482.958 524.451 482.958 526.362V531H481.877V526.597C481.877 524.827 481.078 524.2 479.824 524.2C478.273 524.2 477.396 525.328 477.396 527.036V531ZM484.596 526.989C484.596 524.921 485.927 523.213 488.152 523.213C489.468 523.213 490.471 523.824 490.957 524.937L491.066 523.417H492.006V530.765C492.006 533.021 490.565 534.494 488.34 534.494C486.397 534.494 485.034 533.397 484.737 531.564H485.818C486.053 532.786 486.993 533.507 488.356 533.507C489.907 533.507 490.941 532.457 490.941 530.875V529.073C490.424 530.138 489.374 530.765 488.074 530.765C485.912 530.765 484.596 529.057 484.596 526.989ZM485.677 526.973C485.677 528.525 486.632 529.794 488.23 529.794C489.875 529.794 490.847 528.603 490.847 526.973C490.847 525.36 489.907 524.169 488.246 524.169C486.617 524.169 485.677 525.438 485.677 526.973Z" fill="#F0FDFC"/>
<path d="M539.898 531H536.482V519.782H539.866C543.251 519.782 545.507 522.038 545.507 525.391C545.507 528.744 543.266 531 539.898 531ZM539.819 520.816H537.61V529.966H539.851C542.592 529.966 544.347 528.18 544.347 525.391C544.347 522.587 542.592 520.816 539.819 520.816ZM547.842 521.333C547.403 521.333 547.043 520.973 547.043 520.534C547.043 520.096 547.403 519.719 547.842 519.719C548.281 519.719 548.657 520.096 548.657 520.534C548.657 520.973 548.281 521.333 547.842 521.333ZM547.309 531V523.417H548.39V531H547.309ZM550.002 528.869H551.036C551.036 529.747 551.694 530.295 552.76 530.295C553.935 530.295 554.624 529.794 554.624 528.979C554.624 528.352 554.311 527.992 553.418 527.773L552.117 527.444C550.801 527.114 550.159 526.425 550.159 525.391C550.159 524.059 551.271 523.213 552.901 523.213C554.499 523.213 555.533 524.091 555.58 525.501H554.53C554.499 524.623 553.888 524.106 552.869 524.106C551.804 524.106 551.209 524.561 551.209 525.375C551.209 525.955 551.616 526.362 552.446 526.566L553.747 526.895C555.063 527.224 555.658 527.835 555.658 528.932C555.658 530.295 554.499 531.188 552.775 531.188C551.068 531.188 550.002 530.279 550.002 528.869ZM559.616 531.188C558.002 531.188 557.046 530.279 557.046 528.948C557.046 527.553 558.112 526.676 559.882 526.535L562.389 526.331V526.08C562.389 524.592 561.496 524.122 560.383 524.122C559.067 524.122 558.284 524.717 558.284 525.736H557.297C557.297 524.2 558.55 523.213 560.415 523.213C562.169 523.213 563.454 524.091 563.454 526.096V531H562.545L562.404 529.668C561.934 530.624 560.9 531.188 559.616 531.188ZM559.866 530.311C561.464 530.311 562.389 529.198 562.389 527.553V527.146L560.148 527.318C558.723 527.444 558.143 528.07 558.143 528.916C558.143 529.841 558.832 530.311 559.866 530.311ZM566.564 531H565.624V519.578H566.705V524.89C567.237 523.777 568.271 523.213 569.556 523.213C571.765 523.213 573.05 524.937 573.05 527.224C573.05 529.496 571.734 531.188 569.525 531.188C568.256 531.188 567.206 530.624 566.673 529.449L566.564 531ZM566.72 527.193C566.72 528.948 567.692 530.201 569.352 530.201C570.997 530.201 571.953 528.948 571.953 527.193C571.953 525.454 570.997 524.185 569.352 524.185C567.692 524.185 566.72 525.454 566.72 527.193ZM575.901 531H574.82V519.578H575.901V531ZM581.381 531.188C579.156 531.188 577.668 529.59 577.668 527.208C577.668 524.843 579.14 523.213 581.302 523.213C583.355 523.213 584.749 524.67 584.749 526.817V527.35H578.717C578.796 529.198 579.767 530.264 581.396 530.264C582.634 530.264 583.433 529.731 583.715 528.728H584.749C584.342 530.326 583.167 531.188 581.381 531.188ZM581.302 524.138C579.877 524.138 578.937 525.078 578.749 526.566H583.668C583.668 525.109 582.728 524.138 581.302 524.138ZM589.454 531.188C587.245 531.188 585.945 529.496 585.945 527.224C585.945 524.937 587.245 523.213 589.501 523.213C590.755 523.213 591.758 523.762 592.29 524.858V519.578H593.371V531H592.431L592.322 529.449C591.789 530.624 590.723 531.188 589.454 531.188ZM589.642 530.201C591.303 530.201 592.275 528.948 592.275 527.193C592.275 525.454 591.303 524.185 589.642 524.185C587.997 524.185 587.042 525.454 587.042 527.193C587.042 528.948 587.997 530.201 589.642 530.201Z" fill="#F0FDFC"/>
<rect x="178" y="236" width="519" height="235" rx="7" fill="#04655E" stroke="#055852" stroke-width="2"/>
<rect x="218.791" y="354.791" width="177.418" height="32.4176" rx="6.94334" fill="#07756D" stroke="#055852" stroke-width="1.58243"/>
<rect x="218.791" y="397.791" width="288.219" height="32.6846" rx="6.94334" fill="#07756D" stroke="#055852" stroke-width="1.58243"/>
<rect x="177.808" y="551.808" width="176.384" height="18.3837" rx="7.09186" fill="#07756D" stroke="#055852" stroke-width="1.61628"/>
<rect x="177.808" y="580.808" width="510.384" height="52.3837" rx="12.0919" fill="#07756D" stroke="#055852" stroke-width="1.61628"/>
<rect x="177.808" y="666.808" width="176.384" height="18.3837" rx="7.09186" fill="#07756D" stroke="#055852" stroke-width="1.61628"/>
<rect x="177.808" y="695.808" width="510.384" height="52.3837" rx="12.0919" fill="#07756D" stroke="#055852" stroke-width="1.61628"/>
<rect x="177.808" y="781.808" width="176.384" height="18.3837" rx="7.09186" fill="#07756D" stroke="#055852" stroke-width="1.61628"/>
<rect x="177.808" y="810.808" width="510.384" height="52.3837" rx="12.0919" fill="#07756D" stroke="#055852" stroke-width="1.61628"/>
<rect x="177.808" y="896.808" width="176.384" height="18.3837" rx="7.09186" fill="#07756D" stroke="#055852" stroke-width="1.61628"/>
<rect x="177.808" y="925.808" width="510.384" height="52.3837" rx="12.0919" fill="#07756D" stroke="#055852" stroke-width="1.61628"/>
</g>
<defs>
<clipPath id="clip0_816_3989">
<rect width="680" height="976" rx="24" fill="white"/>
</clipPath>
</defs>
</svg>
