<svg width="680" height="976" viewBox="0 0 680 976" fill="none" xmlns="http://www.w3.org/2000/svg">
<g clip-path="url(#clip0_858_7726)">
<rect width="680" height="976" rx="24" fill="#056F67"/>
<rect x="170.578" y="125.096" width="364.278" height="143.814" rx="14.5" transform="rotate(-3.0713 170.578 125.096)" fill="#04615B" stroke="#055852" stroke-width="3"/>
<path d="M211.742 158.912C210.522 158.978 209.495 159.314 208.661 159.92C207.826 160.526 207.207 161.342 206.804 162.366C206.399 163.374 206.234 164.556 206.307 165.912C206.381 167.285 206.69 168.441 207.234 169.381C207.777 170.303 208.494 170.987 209.385 171.432C210.293 171.876 211.315 172.067 212.45 172.006C213.281 171.961 214.004 171.82 214.62 171.582C215.252 171.327 215.778 170.984 216.197 170.554C216.614 170.106 216.926 169.579 217.131 168.973C217.353 168.366 217.445 167.698 217.405 166.97L217.317 165.342L218.927 166.811L211.782 167.197L211.627 164.324L220.271 163.857L220.836 174.306L218.09 174.455L217.649 171.47L218.051 171.83C217.81 172.404 217.404 172.928 216.835 173.401C216.283 173.872 215.615 174.257 214.832 174.554C214.048 174.835 213.19 175 212.258 175.05C210.529 175.144 208.974 174.837 207.593 174.13C206.228 173.405 205.125 172.351 204.285 170.968C203.463 169.585 203 167.935 202.896 166.02C202.794 164.138 203.086 162.457 203.771 160.975C204.472 159.475 205.495 158.272 206.84 157.367C208.202 156.46 209.806 155.957 211.654 155.857C213.078 155.78 214.38 155.973 215.561 156.436C216.741 156.882 217.721 157.552 218.5 158.445C219.296 159.337 219.813 160.414 220.052 161.676L216.619 161.861C216.272 160.775 215.652 160.001 214.76 159.539C213.867 159.061 212.861 158.851 211.742 158.912ZM228.996 174.197C227.759 174.264 226.642 174.043 225.646 173.536C224.666 173.011 223.878 172.272 223.282 171.318C222.686 170.347 222.353 169.218 222.283 167.93C222.212 166.625 222.413 165.458 222.884 164.429C223.356 163.401 224.051 162.581 224.97 161.971C225.888 161.343 226.957 160.996 228.177 160.93C229.449 160.862 230.556 161.074 231.501 161.567C232.445 162.043 233.188 162.742 233.731 163.665C234.291 164.586 234.606 165.708 234.678 167.03L234.729 167.971L223.95 168.579L223.894 166.593L231.546 166.18C231.5 165.315 231.182 164.635 230.595 164.14C230.024 163.644 229.272 163.421 228.34 163.472C227.611 163.511 227.001 163.697 226.509 164.03C226.034 164.361 225.686 164.839 225.464 165.463C225.243 166.087 225.156 166.84 225.204 167.721C225.277 169.077 225.621 170.087 226.235 170.751C226.866 171.413 227.757 171.714 228.91 171.651C229.757 171.606 230.444 171.407 230.969 171.056C231.51 170.703 231.85 170.226 231.988 169.624L234.861 169.468C234.664 170.856 234.044 171.969 233.001 172.807C231.975 173.645 230.641 174.108 228.996 174.197ZM234.955 160.947L242.887 160.518L243.027 163.111L235.095 163.54L234.955 160.947ZM241.151 173.208L238.049 173.376L237.158 156.901L240.26 156.733L241.151 173.208ZM257.025 172.35L249.004 154.144L252.461 153.957L257.108 164.441C257.341 164.972 257.566 165.53 257.785 166.113C258.003 166.696 258.234 167.355 258.478 168.09C258.654 167.264 258.828 166.549 259 165.945C259.171 165.341 259.329 164.797 259.472 164.313L262.911 153.392L266.292 153.209L260.381 172.169L257.025 172.35ZM272.151 171.864C270.914 171.931 269.797 171.711 268.8 171.204C267.82 170.679 267.032 169.939 266.437 168.986C265.84 168.015 265.507 166.885 265.437 165.597C265.367 164.292 265.567 163.125 266.039 162.097C266.51 161.068 267.205 160.249 268.124 159.638C269.042 159.011 270.111 158.664 271.332 158.598C272.603 158.529 273.711 158.741 274.656 159.234C275.599 159.71 276.343 160.409 276.885 161.332C277.445 162.254 277.761 163.376 277.832 164.698L277.883 165.638L267.104 166.247L267.048 164.261L274.701 163.847C274.654 162.983 274.337 162.303 273.749 161.807C273.178 161.311 272.427 161.088 271.495 161.139C270.766 161.178 270.155 161.364 269.663 161.697C269.188 162.029 268.84 162.506 268.619 163.13C268.398 163.754 268.311 164.507 268.359 165.388C268.432 166.744 268.775 167.754 269.389 168.418C270.02 169.081 270.912 169.381 272.064 169.319C272.912 169.273 273.598 169.074 274.123 168.723C274.665 168.371 275.005 167.893 275.142 167.291L278.015 167.136C277.818 168.523 277.198 169.636 276.156 170.475C275.13 171.312 273.795 171.775 272.151 171.864ZM287.358 158.063L287.513 160.936L286.369 160.998C285.234 161.059 284.36 161.412 283.749 162.057C283.137 162.685 282.864 163.61 282.93 164.83L283.26 170.932L280.158 171.1L279.481 158.565L282.404 158.407L282.799 160.987L282.494 161.003C282.618 160.164 282.98 159.464 283.579 158.905C284.178 158.345 284.977 158.039 285.977 157.985C286.197 157.973 286.418 157.969 286.639 157.974C286.861 157.979 287.1 158.009 287.358 158.063ZM289.631 170.588L288.952 158.028L292.054 157.86L292.733 170.42L289.631 170.588ZM290.341 155.428C289.816 155.457 289.357 155.303 288.965 154.967C288.589 154.614 288.387 154.174 288.358 153.649C288.33 153.123 288.484 152.673 288.821 152.298C289.174 151.922 289.614 151.719 290.139 151.691C290.665 151.662 291.115 151.817 291.49 152.153C291.882 152.489 292.093 152.92 292.121 153.445C292.149 153.971 291.987 154.43 291.635 154.823C291.298 155.198 290.867 155.4 290.341 155.428ZM293.504 157.782L306.623 157.073L306.763 159.666L293.644 160.375L293.504 157.782ZM300.897 151.135L301.039 153.779C300.853 153.789 300.667 153.799 300.48 153.809C300.311 153.818 300.133 153.828 299.946 153.838C299.251 153.876 298.795 154.087 298.578 154.473C298.361 154.859 298.269 155.365 298.303 155.992L299.065 170.078L295.988 170.244L295.227 156.159C295.165 155.006 295.293 154.073 295.611 153.359C295.945 152.626 296.426 152.082 297.053 151.725C297.695 151.35 298.44 151.14 299.288 151.094C299.542 151.081 299.805 151.075 300.077 151.077C300.35 151.079 300.623 151.099 300.897 151.135ZM304.2 169.8L303.521 157.24L306.623 157.073L307.302 169.632L304.2 169.8ZM304.934 154.589C304.408 154.617 303.958 154.463 303.583 154.126C303.207 153.789 303.006 153.358 302.977 152.833C302.95 152.324 303.104 151.883 303.441 151.507C303.778 151.132 304.209 150.93 304.734 150.902C305.243 150.874 305.685 151.029 306.06 151.366C306.435 151.702 306.636 152.125 306.664 152.634C306.692 153.159 306.538 153.609 306.201 153.985C305.865 154.36 305.442 154.561 304.934 154.589ZM315.628 169.514C314.391 169.581 313.274 169.361 312.278 168.854C311.297 168.329 310.509 167.589 309.914 166.635C309.317 165.665 308.984 164.535 308.915 163.247C308.844 161.942 309.045 160.775 309.516 159.747C309.987 158.718 310.683 157.899 311.601 157.288C312.52 156.66 313.589 156.314 314.809 156.248C316.08 156.179 317.188 156.391 318.133 156.884C319.077 157.36 319.82 158.059 320.363 158.982C320.923 159.904 321.238 161.025 321.31 162.348L321.36 163.288L310.582 163.896L310.525 161.91L318.178 161.497C318.132 160.632 317.814 159.953 317.227 159.457C316.656 158.961 315.904 158.738 314.972 158.789C314.243 158.828 313.633 159.014 313.141 159.347C312.666 159.678 312.317 160.156 312.096 160.78C311.875 161.404 311.788 162.157 311.836 163.038C311.909 164.394 312.253 165.404 312.867 166.068C313.497 166.731 314.389 167.031 315.542 166.969C316.389 166.923 317.075 166.724 317.6 166.373C318.142 166.021 318.482 165.543 318.619 164.941L321.492 164.786C321.295 166.173 320.676 167.286 319.633 168.124C318.607 168.962 317.272 169.425 315.628 169.514ZM328.815 168.801C327.594 168.867 326.529 168.653 325.618 168.158C324.723 167.645 324.004 166.911 323.459 165.954C322.931 164.997 322.632 163.865 322.561 162.56C322.491 161.255 322.666 160.09 323.086 159.064C323.523 158.021 324.183 157.186 325.067 156.56C325.952 155.934 327.021 155.588 328.275 155.52C329.156 155.472 329.971 155.607 330.719 155.923C331.466 156.223 332.052 156.676 332.476 157.282L332.046 149.324L335.122 149.157L336.144 168.073L333.297 168.227L332.988 166.281C332.653 167.013 332.107 167.603 331.349 168.052C330.609 168.5 329.764 168.75 328.815 168.801ZM329.347 165.916C330.076 165.877 330.695 165.691 331.204 165.357C331.712 165.007 332.094 164.535 332.351 163.944C332.624 163.334 332.741 162.656 332.7 161.91C332.659 161.148 332.471 160.495 332.136 159.952C331.816 159.391 331.385 158.964 330.842 158.67C330.299 158.36 329.662 158.224 328.933 158.264C328.221 158.302 327.612 158.505 327.105 158.872C326.597 159.223 326.214 159.694 325.957 160.286C325.717 160.877 325.617 161.545 325.658 162.291C325.698 163.037 325.869 163.69 326.172 164.252C326.491 164.813 326.922 165.24 327.465 165.534C328.008 165.827 328.635 165.955 329.347 165.916Z" fill="#098D83"/>
<rect x="398.385" y="126.788" width="116.115" height="53.7073" rx="25.8598" transform="rotate(-2.97452 398.385 126.788)" fill="#065852" stroke="#05534E" stroke-width="2.3697"/>
<circle cx="485.491" cy="149.327" r="20.326" transform="rotate(-2.97452 485.491 149.327)" fill="#057068" stroke="#055852" stroke-width="1.74223"/>
<path d="M477 150L481.767 156.067L496.5 143.933" stroke="#84F3EB" stroke-width="2"/>
<path d="M114.5 239C114.5 222.155 128.155 208.5 145 208.5H704.5V1018.5H114.5V239Z" fill="#04655E" stroke="#055852" stroke-width="3"/>
<rect x="317" y="615" width="535" height="58" rx="7" fill="#04655E" stroke="#055852" stroke-width="2"/>
<rect x="317" y="322" width="535" height="58" rx="7" fill="#04655E" stroke="#055852" stroke-width="2"/>
<rect x="317" y="405" width="535" height="58" rx="7" fill="#04655E" stroke="#055852" stroke-width="2"/>
<rect x="317" y="488" width="535" height="107" rx="7" fill="#04655E" stroke="#055852" stroke-width="2"/>
<path d="M114.963 238.965C114.983 221.858 128.856 208 145.963 208H284C287.866 208 291 211.134 291 215V1073C291 1076.87 287.866 1080 284 1080H121.009C117.14 1080 114.005 1076.86 114.009 1072.99L114.963 238.965Z" fill="#04655E" stroke="#055852" stroke-width="2"/>
<rect x="130.859" y="321.859" width="118.282" height="26.2821" rx="7.53789" fill="#07756D" stroke="#055852" stroke-width="1.71793"/>
<rect x="130.859" y="363.859" width="134.282" height="26.2821" rx="7.53789" fill="#07756D" stroke="#055852" stroke-width="1.71793"/>
<rect x="130.859" y="464.859" width="134.282" height="26.2821" rx="7.53789" fill="#066860" stroke="#055852" stroke-width="1.71793"/>
<rect x="130.859" y="516.859" width="134.282" height="26.2821" rx="7.53789" fill="#066860" stroke="#055852" stroke-width="1.71793"/>
<rect x="613.859" y="510.859" width="219.282" height="12.2821" rx="1.54103" fill="#066860" stroke="#055852" stroke-width="1.71793"/>
<rect x="454.859" y="537.859" width="236.282" height="12.2821" rx="1.54103" fill="#066860" stroke="#055852" stroke-width="1.71793"/>
<rect x="130.859" y="568.859" width="134.282" height="26.2821" rx="7.53789" fill="#066860" stroke="#055852" stroke-width="1.71793"/>
<rect x="130.859" y="620.859" width="134.282" height="26.2821" rx="7.53789" fill="#066860" stroke="#055852" stroke-width="1.71793"/>
<rect x="130.859" y="672.859" width="134.282" height="26.2821" rx="7.53789" fill="#066860" stroke="#055852" stroke-width="1.71793"/>
<rect x="317" y="699" width="535" height="58" rx="7" fill="#04655E" stroke="#055852" stroke-width="2"/>
<rect x="317" y="783" width="535" height="58" rx="7" fill="#04655E" stroke="#055852" stroke-width="2"/>
<rect x="317" y="867" width="535" height="58" rx="7" fill="#04655E" stroke="#055852" stroke-width="2"/>
<rect x="338" y="636" width="15" height="15" rx="2" fill="#04655E" stroke="#055852" stroke-width="2"/>
<rect x="338" y="343" width="15" height="15" rx="2" fill="#04655E" stroke="#055852" stroke-width="2"/>
<rect x="338" y="426" width="15" height="15" rx="2" fill="#04655E" stroke="#055852" stroke-width="2"/>
<rect x="338" y="509" width="15" height="15" rx="2" fill="#04655E" stroke="#055852" stroke-width="2"/>
<rect x="338" y="720" width="15" height="15" rx="2" fill="#04655E" stroke="#055852" stroke-width="2"/>
<rect x="338" y="804" width="15" height="15" rx="2" fill="#04655E" stroke="#055852" stroke-width="2"/>
<rect x="338" y="888" width="15" height="15" rx="2" fill="#04655E" stroke="#055852" stroke-width="2"/>
<path d="M368.943 521.183C367.856 521.183 366.911 520.949 366.109 520.482C365.316 520.004 364.696 519.339 364.25 518.486C363.813 517.622 363.594 516.606 363.594 515.438C363.594 514.28 363.818 513.269 364.265 512.406C364.722 511.542 365.362 510.872 366.185 510.394C367.008 509.917 367.957 509.678 369.034 509.678C369.918 509.678 370.71 509.841 371.411 510.166C372.112 510.491 372.691 510.948 373.148 511.537C373.606 512.116 373.895 512.807 374.017 513.61H371.96C371.767 512.959 371.406 512.457 370.878 512.101C370.36 511.735 369.725 511.553 368.973 511.553C368.303 511.553 367.714 511.71 367.206 512.025C366.708 512.34 366.322 512.787 366.048 513.366C365.773 513.945 365.636 514.636 365.636 515.438C365.636 516.21 365.773 516.891 366.048 517.48C366.322 518.059 366.708 518.511 367.206 518.836C367.714 519.151 368.303 519.309 368.973 519.309C369.735 519.309 370.385 519.126 370.924 518.76C371.472 518.394 371.838 517.902 372.021 517.282H374.047C373.905 518.054 373.595 518.735 373.118 519.324C372.651 519.913 372.056 520.37 371.335 520.695C370.624 521.02 369.827 521.183 368.943 521.183ZM374.928 517.221C374.928 516.439 375.101 515.753 375.446 515.164C375.792 514.565 376.269 514.097 376.879 513.762C377.488 513.427 378.179 513.259 378.951 513.259C379.733 513.259 380.424 513.427 381.023 513.762C381.633 514.097 382.11 514.565 382.456 515.164C382.801 515.753 382.974 516.439 382.974 517.221C382.974 518.003 382.801 518.694 382.456 519.293C382.11 519.883 381.633 520.345 381.023 520.68C380.424 521.015 379.733 521.183 378.951 521.183C378.179 521.183 377.488 521.015 376.879 520.68C376.269 520.345 375.792 519.883 375.446 519.293C375.101 518.694 374.928 518.003 374.928 517.221ZM376.787 517.221C376.787 517.678 376.879 518.079 377.061 518.425C377.254 518.77 377.508 519.039 377.823 519.232C378.148 519.425 378.524 519.522 378.951 519.522C379.378 519.522 379.753 519.425 380.078 519.232C380.404 519.039 380.657 518.77 380.84 518.425C381.023 518.079 381.115 517.678 381.115 517.221C381.115 516.754 381.023 516.352 380.84 516.017C380.657 515.672 380.404 515.403 380.078 515.21C379.753 515.017 379.378 514.92 378.951 514.92C378.524 514.92 378.148 515.017 377.823 515.21C377.508 515.403 377.254 515.672 377.061 516.017C376.879 516.352 376.787 516.754 376.787 517.221ZM384.295 521V513.472H386.154V521H384.295ZM385.209 511.964C384.894 511.964 384.625 511.857 384.401 511.644C384.188 511.42 384.081 511.151 384.081 510.836C384.081 510.521 384.188 510.257 384.401 510.044C384.625 509.831 384.894 509.724 385.209 509.724C385.524 509.724 385.788 509.831 386.001 510.044C386.225 510.257 386.337 510.521 386.337 510.836C386.337 511.151 386.225 511.42 386.001 511.644C385.788 511.857 385.524 511.964 385.209 511.964ZM387.176 513.472H391.93V515.027H387.176V513.472ZM390.482 521H388.623V511.126H390.482V521ZM392.432 517.221C392.432 516.439 392.605 515.753 392.95 515.164C393.295 514.565 393.773 514.097 394.382 513.762C394.992 513.427 395.683 513.259 396.455 513.259C397.237 513.259 397.928 513.427 398.527 513.762C399.137 514.097 399.614 514.565 399.959 515.164C400.305 515.753 400.478 516.439 400.478 517.221C400.478 518.003 400.305 518.694 399.959 519.293C399.614 519.883 399.137 520.345 398.527 520.68C397.928 521.015 397.237 521.183 396.455 521.183C395.683 521.183 394.992 521.015 394.382 520.68C393.773 520.345 393.295 519.883 392.95 519.293C392.605 518.694 392.432 518.003 392.432 517.221ZM394.291 517.221C394.291 517.678 394.382 518.079 394.565 518.425C394.758 518.77 395.012 519.039 395.327 519.232C395.652 519.425 396.028 519.522 396.455 519.522C396.881 519.522 397.257 519.425 397.582 519.232C397.907 519.039 398.161 518.77 398.344 518.425C398.527 518.079 398.619 517.678 398.619 517.221C398.619 516.754 398.527 516.352 398.344 516.017C398.161 515.672 397.907 515.403 397.582 515.21C397.257 515.017 396.881 514.92 396.455 514.92C396.028 514.92 395.652 515.017 395.327 515.21C395.012 515.403 394.758 515.672 394.565 516.017C394.382 516.352 394.291 516.754 394.291 517.221ZM403.658 521H401.799V513.472H403.521L403.673 514.448C403.907 514.072 404.237 513.777 404.663 513.564C405.1 513.351 405.573 513.244 406.081 513.244C407.025 513.244 407.736 513.523 408.214 514.082C408.702 514.641 408.945 515.403 408.945 516.368V521H407.086V516.81C407.086 516.18 406.944 515.712 406.66 515.408C406.375 515.093 405.989 514.935 405.502 514.935C404.923 514.935 404.47 515.118 404.145 515.484C403.82 515.85 403.658 516.337 403.658 516.947V521Z" fill="white"/>
<path d="M454.96 521H454.229L458.236 510.181H459.318L463.371 521H462.625L461.482 517.968H456.088L454.96 521ZM458.678 510.958L456.331 517.297H461.238L458.861 510.958C458.851 510.907 458.835 510.862 458.815 510.821C458.795 510.77 458.78 510.725 458.769 510.684C458.759 510.714 458.744 510.76 458.724 510.821C458.714 510.872 458.698 510.918 458.678 510.958ZM463.817 517.373C463.817 516.601 463.959 515.926 464.244 515.347C464.538 514.768 464.945 514.316 465.463 513.991C465.981 513.665 466.59 513.503 467.291 513.503C468.074 513.503 468.739 513.716 469.288 514.143C469.846 514.57 470.207 515.128 470.369 515.819H469.653C469.501 515.281 469.201 514.864 468.754 514.57C468.317 514.275 467.83 514.128 467.291 514.128C466.753 514.128 466.27 514.26 465.844 514.524C465.427 514.788 465.097 515.164 464.853 515.652C464.62 516.129 464.503 516.698 464.503 517.358C464.503 517.988 464.615 518.542 464.838 519.019C465.062 519.497 465.376 519.872 465.783 520.147C466.189 520.411 466.662 520.543 467.2 520.543C467.789 520.543 468.307 520.39 468.754 520.086C469.211 519.781 469.521 519.38 469.684 518.882H470.4C470.268 519.339 470.049 519.74 469.745 520.086C469.44 520.431 469.069 520.7 468.632 520.893C468.195 521.086 467.718 521.183 467.2 521.183C466.529 521.183 465.94 521.025 465.432 520.71C464.924 520.385 464.528 519.938 464.244 519.37C463.959 518.801 463.817 518.135 463.817 517.373ZM471.388 517.373C471.388 516.601 471.53 515.926 471.815 515.347C472.109 514.768 472.515 514.316 473.034 513.991C473.552 513.665 474.161 513.503 474.862 513.503C475.644 513.503 476.31 513.716 476.858 514.143C477.417 514.57 477.778 515.128 477.94 515.819H477.224C477.072 515.281 476.772 514.864 476.325 514.57C475.888 514.275 475.401 514.128 474.862 514.128C474.324 514.128 473.841 514.26 473.414 514.524C472.998 514.788 472.668 515.164 472.424 515.652C472.19 516.129 472.074 516.698 472.074 517.358C472.074 517.988 472.185 518.542 472.409 519.019C472.632 519.497 472.947 519.872 473.354 520.147C473.76 520.411 474.232 520.543 474.771 520.543C475.36 520.543 475.878 520.39 476.325 520.086C476.782 519.781 477.092 519.38 477.254 518.882H477.971C477.839 519.339 477.62 519.74 477.315 520.086C477.011 520.431 476.64 520.7 476.203 520.893C475.766 521.086 475.289 521.183 474.771 521.183C474.1 521.183 473.511 521.025 473.003 520.71C472.495 520.385 472.099 519.938 471.815 519.37C471.53 518.801 471.388 518.135 471.388 517.373ZM478.959 517.343C478.959 516.601 479.116 515.946 479.431 515.377C479.746 514.798 480.178 514.341 480.726 514.006C481.275 513.671 481.894 513.503 482.585 513.503C483.286 513.503 483.906 513.671 484.444 514.006C484.993 514.341 485.425 514.798 485.739 515.377C486.054 515.946 486.212 516.601 486.212 517.343C486.212 518.074 486.054 518.73 485.739 519.309C485.425 519.888 484.993 520.345 484.444 520.68C483.906 521.015 483.286 521.183 482.585 521.183C481.894 521.183 481.275 521.015 480.726 520.68C480.178 520.345 479.746 519.888 479.431 519.309C479.116 518.73 478.959 518.074 478.959 517.343ZM479.675 517.343C479.675 517.963 479.797 518.516 480.04 519.004C480.294 519.481 480.64 519.857 481.077 520.131C481.513 520.406 482.016 520.543 482.585 520.543C483.154 520.543 483.657 520.406 484.094 520.131C484.531 519.857 484.871 519.481 485.115 519.004C485.369 518.516 485.496 517.963 485.496 517.343C485.496 516.713 485.369 516.159 485.115 515.682C484.871 515.205 484.531 514.829 484.094 514.554C483.657 514.28 483.154 514.143 482.585 514.143C482.016 514.143 481.513 514.28 481.077 514.554C480.64 514.829 480.294 515.205 480.04 515.682C479.797 516.159 479.675 516.713 479.675 517.343ZM492.855 513.686H493.556V521H492.992L492.855 519.644C492.662 520.101 492.321 520.472 491.834 520.756C491.356 521.041 490.813 521.183 490.203 521.183C489.33 521.183 488.669 520.909 488.222 520.36C487.775 519.811 487.552 519.09 487.552 518.196V513.671H488.268V518.013C488.268 518.948 488.466 519.603 488.862 519.979C489.259 520.355 489.761 520.543 490.371 520.543C491.143 520.543 491.747 520.289 492.184 519.781C492.631 519.263 492.855 518.531 492.855 517.587V513.686ZM496.421 521H495.72V513.686H496.284L496.436 515.103C496.68 514.595 497.036 514.204 497.503 513.93C497.97 513.645 498.478 513.503 499.027 513.503C500.063 513.503 500.794 513.782 501.221 514.341C501.658 514.9 501.876 515.636 501.876 516.551V521H501.175V516.688C501.175 515.723 500.977 515.057 500.581 514.692C500.195 514.326 499.672 514.143 499.011 514.143C498.178 514.143 497.538 514.427 497.091 514.996C496.644 515.555 496.421 516.297 496.421 517.221V521ZM503.092 513.686H506.749V514.295H503.092V513.686ZM505.271 521H504.57V511.37H505.271V521ZM515.337 521L511.177 510.181H511.954L515.078 518.272C515.189 518.557 515.301 518.846 515.413 519.141C515.524 519.436 515.636 519.761 515.748 520.116C515.86 519.761 515.977 519.405 516.098 519.05C516.231 518.694 516.332 518.43 516.403 518.257L519.512 510.181H520.258L516.114 521H515.337ZM523.32 521.183C522.619 521.183 522.004 521.025 521.476 520.71C520.948 520.385 520.536 519.938 520.242 519.37C519.947 518.791 519.8 518.12 519.8 517.358C519.8 516.596 519.942 515.926 520.226 515.347C520.521 514.768 520.922 514.316 521.43 513.991C521.948 513.665 522.548 513.503 523.228 513.503C523.868 513.503 524.427 513.645 524.904 513.93C525.392 514.214 525.768 514.61 526.032 515.118C526.306 515.616 526.443 516.2 526.443 516.871V517.358H520.196L520.226 516.779H525.727C525.727 515.987 525.499 515.352 525.042 514.874C524.584 514.387 523.98 514.143 523.228 514.143C522.69 514.143 522.212 514.27 521.796 514.524C521.39 514.778 521.07 515.138 520.836 515.606C520.612 516.063 520.501 516.596 520.501 517.206C520.501 518.252 520.75 519.07 521.247 519.659C521.745 520.248 522.436 520.543 523.32 520.543C523.97 520.543 524.498 520.406 524.904 520.131C525.311 519.847 525.585 519.436 525.727 518.897H526.443C526.23 519.649 525.859 520.218 525.331 520.604C524.813 520.99 524.142 521.183 523.32 521.183ZM531.542 513.579V514.189H530.994C530.313 514.189 529.77 514.412 529.363 514.859C528.957 515.296 528.754 515.86 528.754 516.551V521H528.053V513.686H528.708L528.784 515.088H528.708C528.81 514.61 529.059 514.229 529.455 513.945C529.861 513.65 530.344 513.503 530.902 513.503C531.014 513.503 531.116 513.508 531.207 513.518C531.309 513.528 531.42 513.549 531.542 513.579ZM532.856 521V513.686H533.557V521H532.856ZM533.206 511.446C533.034 511.446 532.881 511.385 532.749 511.263C532.627 511.131 532.566 510.984 532.566 510.821C532.566 510.648 532.627 510.496 532.749 510.364C532.881 510.232 533.034 510.166 533.206 510.166C533.379 510.166 533.526 510.232 533.648 510.364C533.78 510.496 533.846 510.648 533.846 510.821C533.846 510.984 533.78 511.131 533.648 511.263C533.526 511.385 533.379 511.446 533.206 511.446ZM534.871 513.686H541.118V514.295H534.871V513.686ZM538.513 510.044V510.669C538.462 510.669 538.381 510.669 538.269 510.669C538.157 510.669 538.03 510.669 537.888 510.669C537.431 510.669 537.121 510.78 536.959 511.004C536.796 511.227 536.715 511.573 536.715 512.04V521H536.014V512.04C536.014 511.542 536.095 511.146 536.258 510.852C536.43 510.547 536.649 510.328 536.913 510.196C537.177 510.064 537.461 509.998 537.766 509.998C537.888 509.998 538.015 510.003 538.147 510.013C538.289 510.013 538.411 510.024 538.513 510.044ZM540.418 521V513.686H541.118V521H540.418ZM540.753 511.339C540.59 511.339 540.453 511.288 540.341 511.187C540.24 511.075 540.189 510.938 540.189 510.775C540.189 510.603 540.24 510.46 540.341 510.349C540.453 510.237 540.59 510.181 540.753 510.181C540.925 510.181 541.063 510.237 541.164 510.349C541.276 510.46 541.332 510.603 541.332 510.775C541.332 510.938 541.276 511.075 541.164 511.187C541.063 511.288 540.925 511.339 540.753 511.339ZM542.657 517.373C542.657 516.601 542.799 515.926 543.084 515.347C543.378 514.768 543.785 514.316 544.303 513.991C544.821 513.665 545.43 513.503 546.131 513.503C546.914 513.503 547.579 513.716 548.128 514.143C548.686 514.57 549.047 515.128 549.209 515.819H548.493C548.341 515.281 548.041 514.864 547.594 514.57C547.157 514.275 546.67 514.128 546.131 514.128C545.593 514.128 545.11 514.26 544.684 514.524C544.267 514.788 543.937 515.164 543.693 515.652C543.46 516.129 543.343 516.698 543.343 517.358C543.343 517.988 543.455 518.542 543.678 519.019C543.902 519.497 544.216 519.872 544.623 520.147C545.029 520.411 545.502 520.543 546.04 520.543C546.629 520.543 547.147 520.39 547.594 520.086C548.051 519.781 548.361 519.38 548.524 518.882H549.24C549.108 519.339 548.889 519.74 548.585 520.086C548.28 520.431 547.909 520.7 547.472 520.893C547.035 521.086 546.558 521.183 546.04 521.183C545.369 521.183 544.78 521.025 544.272 520.71C543.764 520.385 543.368 519.938 543.084 519.37C542.799 518.801 542.657 518.135 542.657 517.373ZM552.849 521.183C552.067 521.183 551.457 520.985 551.02 520.589C550.594 520.192 550.38 519.684 550.38 519.065C550.38 518.394 550.624 517.856 551.112 517.45C551.599 517.043 552.27 516.805 553.123 516.733L555.637 516.535V516.261C555.637 515.712 555.541 515.286 555.348 514.981C555.155 514.666 554.896 514.448 554.571 514.326C554.246 514.204 553.89 514.143 553.504 514.143C552.823 514.143 552.29 514.295 551.904 514.6C551.528 514.895 551.34 515.311 551.34 515.85H550.639C550.639 515.372 550.756 514.961 550.99 514.615C551.234 514.26 551.574 513.985 552.011 513.792C552.448 513.599 552.95 513.503 553.519 513.503C554.047 513.503 554.52 513.594 554.936 513.777C555.363 513.95 555.703 514.234 555.957 514.631C556.211 515.017 556.338 515.525 556.338 516.154V521H555.774L555.637 519.629C555.383 520.126 555.013 520.512 554.525 520.787C554.037 521.051 553.479 521.183 552.849 521.183ZM552.94 520.558C553.804 520.558 554.469 520.274 554.936 519.705C555.404 519.136 555.637 518.404 555.637 517.511V517.114L553.184 517.312C552.442 517.373 551.904 517.566 551.569 517.891C551.244 518.217 551.081 518.603 551.081 519.05C551.081 519.547 551.254 519.923 551.599 520.177C551.945 520.431 552.392 520.558 552.94 520.558ZM557.405 513.686H561.062V514.295H557.405V513.686ZM559.584 521H558.883V511.37H559.584V521ZM562.376 521V513.686H563.077V521H562.376ZM562.727 511.446C562.554 511.446 562.402 511.385 562.27 511.263C562.148 511.131 562.087 510.984 562.087 510.821C562.087 510.648 562.148 510.496 562.27 510.364C562.402 510.232 562.554 510.166 562.727 510.166C562.899 510.166 563.047 510.232 563.169 510.364C563.301 510.496 563.367 510.648 563.367 510.821C563.367 510.984 563.301 511.131 563.169 511.263C563.047 511.385 562.899 511.446 562.727 511.446ZM564.696 517.343C564.696 516.601 564.854 515.946 565.168 515.377C565.483 514.798 565.915 514.341 566.464 514.006C567.012 513.671 567.632 513.503 568.323 513.503C569.024 513.503 569.643 513.671 570.182 514.006C570.73 514.341 571.162 514.798 571.477 515.377C571.792 515.946 571.949 516.601 571.949 517.343C571.949 518.074 571.792 518.73 571.477 519.309C571.162 519.888 570.73 520.345 570.182 520.68C569.643 521.015 569.024 521.183 568.323 521.183C567.632 521.183 567.012 521.015 566.464 520.68C565.915 520.345 565.483 519.888 565.168 519.309C564.854 518.73 564.696 518.074 564.696 517.343ZM565.412 517.343C565.412 517.963 565.534 518.516 565.778 519.004C566.032 519.481 566.377 519.857 566.814 520.131C567.251 520.406 567.754 520.543 568.323 520.543C568.892 520.543 569.394 520.406 569.831 520.131C570.268 519.857 570.608 519.481 570.852 519.004C571.106 518.516 571.233 517.963 571.233 517.343C571.233 516.713 571.106 516.159 570.852 515.682C570.608 515.205 570.268 514.829 569.831 514.554C569.394 514.28 568.892 514.143 568.323 514.143C567.754 514.143 567.251 514.28 566.814 514.554C566.377 514.829 566.032 515.205 565.778 515.682C565.534 516.159 565.412 516.713 565.412 517.343ZM574.26 521H573.559V513.686H574.123L574.276 515.103C574.519 514.595 574.875 514.204 575.342 513.93C575.81 513.645 576.318 513.503 576.866 513.503C577.902 513.503 578.634 513.782 579.06 514.341C579.497 514.9 579.716 515.636 579.716 516.551V521H579.015V516.688C579.015 515.723 578.817 515.057 578.42 514.692C578.034 514.326 577.511 514.143 576.851 514.143C576.018 514.143 575.378 514.427 574.931 514.996C574.484 515.555 574.26 516.297 574.26 517.221V521Z" fill="white"/>
<circle cx="596.5" cy="516.5" r="8.5" fill="#07756D"/>
<path d="M592 516.8L594.7 519.5L601 513.65" stroke="#21BFB4" stroke-width="0.9"/>
</g>
<defs>
<clipPath id="clip0_858_7726">
<rect width="680" height="976" rx="24" fill="white"/>
</clipPath>
</defs>
</svg>
