<svg width="387" height="337" viewBox="0 0 387 337" fill="none" xmlns="http://www.w3.org/2000/svg">
<path d="M227.676 96.1606L227.741 132.161L255.058 148.069L255.261 108.246L227.676 96.1606Z" fill="#D5FCF5" stroke="#047A71" stroke-width="0.901111" stroke-miterlimit="10"/>
<path d="M257.994 87.3312L227.676 96.1606L255.261 108.246L286.422 98.5951L257.994 87.3312Z" fill="#73CAC4" stroke="#047A71" stroke-width="0.901111" stroke-miterlimit="10"/>
<path d="M255.258 108.246L255.055 148.069L285.918 134.625L286.419 98.595L255.258 108.246Z" fill="#047A71" stroke="#047A71" stroke-width="0.901111" stroke-miterlimit="10"/>
<path d="M190.548 96.9091L188.949 156.644" stroke="#047A71" stroke-width="1.16272" stroke-miterlimit="10"/>
<path d="M242.677 186.202L190 159.711" stroke="#047A71" stroke-width="1.16272" stroke-miterlimit="10"/>
<path d="M186.77 161.004L133.168 181.199" stroke="#047A71" stroke-width="1.16272" stroke-miterlimit="10"/>
<path d="M178.006 195.409L155.882 182.529L155.835 169.382L177.966 182.262L178.006 195.409Z" fill="#75A3A1"/>
<path d="M198.204 158.148L218.489 158.898L218.5 172.061L178.01 195.409L177.97 182.261L198.204 158.148Z" fill="#9CDAD7"/>
<path d="M219.507 172.072L218.502 171.486L177.997 194.828L155.899 181.503L154.897 182.088L177.956 195.993L177.978 195.977L177.993 195.991L219.507 172.072Z" fill="#006866"/>
<path d="M219.515 173.642L219.51 172.071L178.963 195.436L178.962 195.407L177.96 195.993L177.95 197.557L178 197.533L178.001 197.562L219.515 173.642Z" fill="#007976"/>
<path d="M154.897 182.088L154.887 183.66L177.947 197.557L177.957 195.993L154.897 182.088Z" fill="#004E4D"/>
<path d="M194.982 189.855L191.392 187.745L191.343 165.674L194.933 167.784L194.982 189.855Z" fill="#75A3A1"/>
<path d="M201.962 159.851L208.953 159.709L209.001 181.78L194.983 189.855L194.934 167.784L201.962 159.851Z" fill="#9CDAD7"/>
<path d="M210 181.791L195.968 189.874L195.967 189.845L194.957 190.431L194.955 192.002L210.005 183.362L210 181.791Z" fill="#007976"/>
<path d="M210 181.791L208.995 181.206L195.005 189.265L191.383 187.091L190.374 187.676L194.957 190.431L194.978 190.415L195.001 190.429L210 181.791Z" fill="#006866"/>
<path d="M191.378 189.847L194.956 192.002L194.958 190.431L191.418 188.296L191.378 189.847Z" fill="#004E4D"/>
<path d="M207.375 162.558L203.309 164.903L203.319 169.317L207.385 166.972L207.375 162.558Z" fill="#EBFDFF"/>
<path d="M207.551 162.66L207.187 162.449L207.197 166.871L207.561 167.081L207.551 162.66Z" fill="#004E4D"/>
<path d="M207.2 166.87L203.134 169.215L203.499 169.419L207.565 167.081L207.2 166.87Z" fill="#006866"/>
<path d="M203.069 164.789L202.704 164.578L202.722 169.916L203.079 170.127L203.069 164.789Z" fill="#004E4D"/>
<path d="M207.611 161.748L202.699 164.578L203.064 164.789L207.969 161.959L207.611 161.748Z" fill="#006866"/>
<path d="M207.975 161.959L203.063 164.789L203.073 170.127L207.985 167.297L207.975 161.959ZM203.496 169.419L203.486 165.005L207.552 162.66L207.562 167.074L203.496 169.419Z" fill="#007976"/>
<path d="M201.348 165.934L197.282 168.279L197.291 172.693L201.357 170.348L201.348 165.934Z" fill="#EBFDFF"/>
<path d="M201.524 166.036L201.159 165.826L201.169 170.247L201.534 170.458L201.524 166.036Z" fill="#004E4D"/>
<path d="M201.173 170.247L197.115 172.591L197.472 172.803L201.538 170.458L201.173 170.247Z" fill="#006866"/>
<path d="M197.041 168.165L196.677 167.955L196.694 173.292L197.052 173.503L197.041 168.165Z" fill="#004E4D"/>
<path d="M201.584 165.125L196.672 167.955L197.037 168.165L201.949 165.336L201.584 165.125Z" fill="#006866"/>
<path d="M201.959 165.335L197.047 168.165L197.057 173.503L201.97 170.673L201.959 165.335ZM197.48 172.795L197.47 168.381L201.536 166.036L201.546 170.45L197.48 172.795Z" fill="#007976"/>
<path d="M207.391 173.503L203.325 175.848L203.334 180.262L207.4 177.917L207.391 173.503Z" fill="#EBFDFF"/>
<path d="M207.568 173.605L207.21 173.394L207.22 177.815L207.578 178.027L207.568 173.605Z" fill="#004E4D"/>
<path d="M207.224 177.815L203.158 180.16L203.515 180.364L207.581 178.026L207.224 177.815Z" fill="#006866"/>
<path d="M203.084 175.734L202.727 175.523L202.737 180.861L203.102 181.071L203.084 175.734Z" fill="#004E4D"/>
<path d="M207.631 172.693L202.727 175.523L203.084 175.734L207.996 172.904L207.631 172.693Z" fill="#006866"/>
<path d="M208.002 172.904L203.09 175.734L203.1 181.072L208.012 178.242L208.002 172.904ZM203.523 180.364L203.513 175.949L207.579 173.604L207.589 178.019L203.523 180.364Z" fill="#007976"/>
<path d="M201.352 176.88L197.286 179.225L197.295 183.639L201.361 181.294L201.352 176.88Z" fill="#EBFDFF"/>
<path d="M201.528 176.982L201.171 176.771L201.181 181.192L201.546 181.403L201.528 176.982Z" fill="#004E4D"/>
<path d="M201.185 181.192L197.119 183.537L197.483 183.748L201.549 181.403L201.185 181.192Z" fill="#006866"/>
<path d="M197.053 179.11L196.688 178.9L196.698 184.238L197.063 184.448L197.053 179.11Z" fill="#004E4D"/>
<path d="M201.6 176.07L196.687 178.9L197.052 179.111L201.957 176.281L201.6 176.07Z" fill="#006866"/>
<path d="M201.963 176.281L197.051 179.111L197.061 184.448L201.973 181.619L201.963 176.281ZM197.484 183.741L197.474 179.326L201.54 176.981L201.55 181.396L197.484 183.741Z" fill="#007976"/>
<path d="M216.699 164.322L212.633 166.667L212.643 171.089L216.709 168.744L216.699 164.322Z" fill="#EBFDFF"/>
<path d="M216.876 164.432L216.519 164.221L216.528 168.635L216.886 168.846L216.876 164.432Z" fill="#004E4D"/>
<path d="M216.532 168.634L212.466 170.979L212.824 171.191L216.89 168.846L216.532 168.634Z" fill="#006866"/>
<path d="M212.393 166.56L212.035 166.349L212.046 171.687L212.41 171.891L212.393 166.56Z" fill="#004E4D"/>
<path d="M216.94 163.52L212.035 166.349L212.393 166.56L217.305 163.731L216.94 163.52Z" fill="#006866"/>
<path d="M217.311 163.731L212.399 166.56L212.409 171.898L217.321 169.068L217.311 163.731ZM212.832 171.19L212.822 166.776L216.888 164.431L216.898 168.845L212.832 171.19Z" fill="#007976"/>
<path d="M190.083 179.368L186.024 181.713L186.034 186.134L190.093 183.789L190.083 179.368Z" fill="#EBFDFF"/>
<path d="M190.266 179.477L189.901 179.266L189.911 183.68L190.276 183.891L190.266 179.477Z" fill="#004E4D"/>
<path d="M189.915 183.68L185.849 186.025L186.214 186.236L190.28 183.891L189.915 183.68Z" fill="#006866"/>
<path d="M185.783 181.606L185.418 181.395L185.428 186.726L185.793 186.936L185.783 181.606Z" fill="#004E4D"/>
<path d="M190.33 178.565L185.418 181.395L185.783 181.606L190.688 178.776L190.33 178.565Z" fill="#006866"/>
<path d="M190.693 178.776L185.781 181.606L185.792 186.944L190.704 184.114L190.693 178.776ZM186.214 186.236L186.205 181.822L190.271 179.477L190.28 183.891L186.214 186.236Z" fill="#007976"/>
<path d="M184.047 182.752L179.981 185.089L179.991 189.511L184.057 187.166L184.047 182.752Z" fill="#EBFDFF"/>
<path d="M184.223 182.854L183.858 182.643L183.868 187.057L184.233 187.268L184.223 182.854Z" fill="#004E4D"/>
<path d="M183.872 187.057L179.806 189.402L180.171 189.613L184.237 187.268L183.872 187.057Z" fill="#006866"/>
<path d="M179.74 184.983L179.375 184.772L179.386 190.11L179.75 190.321L179.74 184.983Z" fill="#004E4D"/>
<path d="M184.287 181.942L179.375 184.772L179.74 184.983L184.645 182.153L184.287 181.942Z" fill="#006866"/>
<path d="M184.65 182.153L179.738 184.983L179.749 190.321L184.661 187.491L184.65 182.153ZM180.171 189.613L180.162 185.199L184.228 182.854L184.237 187.268L180.171 189.613Z" fill="#007976"/>
<path d="M201.413 158.782L176.078 143.82L198.104 144.638L223.439 159.608L201.413 158.782Z" fill="#006866"/>
<path d="M179.438 184.973L154.103 170.004L176.079 143.82L201.414 158.782L179.438 184.973Z" fill="#004E4D"/>
<path d="M201.419 158.782L223.445 159.608L222.168 161.128L201.416 160.353L180.725 185.023L179.443 184.973L201.419 158.782Z" fill="#007976"/>
<path d="M133.035 113.086L133.166 181.199L184.842 211.292L185.22 135.955L133.035 113.086Z" fill="#BCF9EE" fill-opacity="0.5" stroke="#047A71" stroke-width="1.16272" stroke-miterlimit="10"/>
<path d="M190.394 96.3859L133.035 113.086L185.22 135.955L244.184 117.7L190.394 96.3859Z" fill="#BCF9EE" fill-opacity="0.5" stroke="#047A71" stroke-width="1.16272" stroke-miterlimit="10"/>
<path d="M185.218 135.955L184.84 211.292L243.088 186.449L244.182 117.7L185.218 135.955Z" fill="#A3F7E8" fill-opacity="0.5" stroke="#047A71" stroke-width="1.16272" stroke-miterlimit="10"/>
<path d="M96.7852 123.179L96.8578 159.188L124.167 175.095L124.371 135.272L96.7852 123.179Z" fill="#D5FCF5" stroke="#047A71" stroke-width="0.901111" stroke-miterlimit="10"/>
<path d="M127.103 114.357L96.7852 123.179L124.371 135.272L155.539 125.621L127.103 114.357Z" fill="#73CAC4" stroke="#047A71" stroke-width="0.901111" stroke-miterlimit="10"/>
<path d="M124.368 135.272L124.164 175.095L155.034 161.651L155.536 125.621L124.368 135.272Z" fill="#047A71" stroke="#047A71" stroke-width="0.901111" stroke-miterlimit="10"/>
<path d="M72.7539 242.678L72.8556 294.303L112.01 317.1L112.301 260.01L72.7539 242.678Z" fill="#D5FCF5" stroke="#047A71" stroke-width="1.29353" stroke-miterlimit="10"/>
<path d="M116.218 230.026L72.7539 242.678L112.301 260.01L156.979 246.181L116.218 230.026Z" fill="#73CAC4" stroke="#047A71" stroke-width="1.29353" stroke-miterlimit="10"/>
<path d="M112.302 260.01L112.012 317.1L156.261 297.835L156.98 246.181L112.302 260.01Z" fill="#047A71" stroke="#047A71" stroke-width="1.29353" stroke-miterlimit="10"/>
<path fill-rule="evenodd" clip-rule="evenodd" d="M152 271.009C152 260.071 144.321 255.638 134.848 261.107C125.376 266.576 117.696 279.876 117.696 290.814C117.696 301.752 125.376 306.186 134.848 300.717C144.321 295.248 152 281.947 152 271.009Z" fill="#047A71"/>
<path fill-rule="evenodd" clip-rule="evenodd" d="M142.415 281.209L141.992 282.963C141.906 283.32 141.696 283.681 141.429 283.929L140.114 285.155C139.932 285.324 139.931 285.621 140.111 285.585L141.42 285.318C141.685 285.264 141.892 285.387 141.974 285.648L142.378 286.933C142.434 287.11 142.69 286.964 142.749 286.721L143.172 284.966C143.258 284.61 143.468 284.25 143.735 284.001L145.05 282.776C145.232 282.606 145.234 282.309 145.053 282.346L143.744 282.613C143.479 282.666 143.272 282.543 143.19 282.282L142.786 280.998C142.73 280.82 142.474 280.966 142.415 281.209Z" fill="#FAFAFA"/>
<path fill-rule="evenodd" clip-rule="evenodd" d="M121.64 294.083C122.182 294.47 123.028 294.376 123.85 294.062C124.679 293.739 125.548 293.223 126.366 292.583C128.021 291.304 129.525 289.644 130.837 287.91C131.518 287.038 132.099 286.148 132.701 285.235C132.991 284.782 133.255 284.326 133.531 283.867L134.283 282.568C135.1 281.11 135.906 279.746 136.686 278.551C137.468 277.357 138.2 276.372 138.922 275.562C139.642 274.75 140.413 274.073 141.419 273.455C142.415 272.839 143.594 272.366 144.855 271.981C146.123 271.59 147.454 271.308 148.941 270.868C148.422 269.505 147.641 268.487 146.637 267.723C145.622 266.989 144.354 266.518 142.725 266.667C141.12 266.785 139.103 267.659 137.217 269.186C135.326 270.699 133.666 272.667 132.325 274.61C130.98 276.567 129.892 278.54 128.974 280.468C128.721 281.001 128.587 281.294 128.404 281.702L127.897 282.861C127.546 283.6 127.225 284.395 126.877 285.127C126.194 286.633 125.52 288.132 124.738 289.607C124.344 290.354 123.929 291.09 123.438 291.85C123.194 292.224 122.93 292.604 122.637 292.979C122.34 293.372 122.026 293.726 121.64 294.083Z" fill="#EC796B"/>
<path fill-rule="evenodd" clip-rule="evenodd" d="M121.64 294.083C122.222 295.443 123.304 296.246 124.757 296.461C126.201 296.67 128.206 296.044 130.193 294.443C131.175 293.657 132.126 292.686 132.961 291.642C133.792 290.602 134.536 289.499 135.181 288.403C135.502 287.855 135.794 287.308 136.085 286.76L136.837 285.219L137.998 282.766C139.479 279.618 141.074 276.01 143.69 273.703C146.259 271.438 147.373 271.487 148.941 270.868C148.655 270.179 148.3 269.554 147.818 269.102C147.346 268.629 146.788 268.252 146.094 268.053C145.743 267.967 145.373 267.897 144.962 267.893C144.553 267.896 144.111 267.946 143.64 268.063C142.703 268.308 141.648 268.813 140.627 269.562C139.605 270.31 138.628 271.248 137.774 272.237C136.914 273.226 136.165 274.258 135.496 275.276C134.166 277.319 133.131 279.326 132.258 281.254C131.818 282.22 131.419 283.176 131.05 284.115L130.616 285.23C130.483 285.559 130.349 285.891 130.212 286.206C129.662 287.475 129.124 288.548 128.47 289.498C127.826 290.457 126.928 291.409 125.728 292.202C124.534 292.994 123.155 293.602 121.64 294.083Z" fill="#FAFAFA"/>
<path fill-rule="evenodd" clip-rule="evenodd" d="M128.102 276.259C128.102 275.014 127.226 274.508 126.148 275.131C125.069 275.754 124.195 277.269 124.195 278.515C124.195 279.761 125.069 280.267 126.148 279.644C127.226 279.021 128.102 277.505 128.102 276.259Z" fill="#EC796B"/>
<path d="M155 272.5L174.669 265V272.868L155 280.424V272.5Z" fill="#73CAC4"/>
<path d="M242.012 199.541L242.113 251.159L281.275 273.956L281.566 216.866L242.012 199.541Z" fill="#D5FCF5" stroke="#047A71" stroke-width="1.29353" stroke-miterlimit="10"/>
<path d="M285.483 186.882L242.012 199.541L281.566 216.866L326.244 203.037L285.483 186.882Z" fill="#73CAC4" stroke="#047A71" stroke-width="1.29353" stroke-miterlimit="10"/>
<path d="M281.564 216.866L281.273 273.956L325.522 254.691L326.242 203.037L281.564 216.866Z" fill="#047A71" stroke="#047A71" stroke-width="1.29353" stroke-miterlimit="10"/>
<path d="M142.828 43.3366L142.886 73.0152L165.407 86.1321L165.567 53.2997L142.828 43.3366Z" fill="#D5FCF5" stroke="#047A71" stroke-width="0.748504" stroke-miterlimit="10"/>
<path d="M167.819 36.0623L142.828 43.3366L165.567 53.2997L191.263 45.3496L167.819 36.0623Z" fill="#73CAC4" stroke="#047A71" stroke-width="0.748504" stroke-miterlimit="10"/>
<path d="M165.57 53.2997L165.41 86.1321L190.852 76.3612L191.266 45.3496L165.57 53.2997Z" fill="#047A71" stroke="#047A71" stroke-width="0.748504" stroke-miterlimit="10"/>
<path d="M113.454 146.209L92.5977 151.993V237.897" stroke="#047A71" stroke-width="0.901111" stroke-miterlimit="10"/>
<path d="M91.4595 188.499L67.2539 193.615V115.231" stroke="#047A71" stroke-width="0.901111" stroke-miterlimit="10"/>
<path d="M285.762 114.241L306.618 109.852L305.891 195.028" stroke="#047A71" stroke-width="0.901111" stroke-miterlimit="10"/>
<path d="M307.758 155.395L330.068 149.61L330.652 71.4939" stroke="#047A71" stroke-width="0.901111" stroke-miterlimit="10"/>
<path d="M241.512 92.2219L241.461 73.0079L258.262 67.845V25.3289" stroke="#047A71" stroke-width="0.901111" stroke-miterlimit="10"/>
<path d="M241.464 235.535L211.298 243.5L210.434 199.541" stroke="#047A71" stroke-width="0.901111" stroke-miterlimit="10"/>
<path d="M210.433 220.49L185.951 227.339L185.711 303.687" stroke="#047A71" stroke-width="0.901111" stroke-miterlimit="10"/>
<path d="M152.276 62.8122L121.973 70.0574V115.985" stroke="#047A71" stroke-width="0.901111" stroke-miterlimit="10"/>
<path d="M122.087 90.5795L101.957 95.6955V33.7732" stroke="#047A71" stroke-width="0.901111" stroke-miterlimit="10"/>
<circle cx="185.634" cy="304.874" r="2.95039" fill="#DFB5FF" stroke="#047A71" stroke-width="0.655642"/>
<circle cx="329.872" cy="71.465" r="2.95039" fill="#FFBB89" stroke="#047A71" stroke-width="0.655642"/>
<circle cx="257.755" cy="25.57" r="2.95039" fill="#73CAC4" stroke="#047A71" stroke-width="0.655642"/>
<circle cx="101.712" cy="30.8152" r="2.95039" fill="#89FF9C" stroke="#047A71" stroke-width="0.655642"/>
<circle cx="66.3056" cy="113.426" r="2.95039" fill="#73CAC4" stroke="#047A71" stroke-width="0.655642"/>
<path d="M324.039 226.852L343.708 220.296V228.163L324.039 234.72V226.852Z" fill="#BCE5E3"/>
<path d="M186.289 57.6965L205.958 51.1401V59.0078L186.289 65.5642V57.6965Z" fill="#73CAC4"/>
<g filter="url(#filter0_d_810_1872)">
<circle cx="19.4633" cy="19.4633" r="18.8355" transform="matrix(0.851003 -0.52516 0.0293001 0.999571 287.461 227.775)" fill="#056F67" stroke="url(#paint0_linear_810_1872)" stroke-width="1.2557"/>
<g clip-path="url(#clip0_810_1872)">
<path d="M304.152 245.6C303.447 246.035 302.728 246.364 302.009 246.568C299.967 247.146 298.242 246.628 297.151 245.108C296.062 243.587 295.737 241.248 296.238 238.521C296.37 237.803 296.912 237.099 297.449 236.946C297.987 236.794 298.315 237.252 298.184 237.97C297.81 240.004 298.052 241.748 298.865 242.881C299.678 244.014 300.964 244.401 302.487 243.97C303.023 243.818 303.559 243.572 304.085 243.248C306.645 241.668 308.947 238.225 309.586 234.741C309.718 234.023 310.26 233.319 310.797 233.167C311.335 233.015 311.663 233.473 311.532 234.19C310.674 238.862 307.588 243.479 304.154 245.599L304.152 245.6Z" fill="white"/>
<path d="M306.265 237.165C305.996 237.331 305.724 237.37 305.519 237.241C305.13 236.997 305.132 236.239 305.524 235.547L308.885 229.626L308.979 229.502C309.819 228.387 310.883 227.729 311.758 227.785L311.855 227.791L315.459 229.415C315.878 229.604 315.926 230.332 315.566 231.039C315.205 231.748 314.574 232.169 314.154 231.98L310.734 230.438C310.537 230.459 310.316 230.595 310.124 230.815L306.937 236.431C306.751 236.759 306.51 237.014 306.267 237.164L306.265 237.165Z" fill="white"/>
<path d="M313.762 230.831C313.21 231.171 312.746 230.921 312.727 230.273L312.652 227.699C312.633 227.05 313.066 226.247 313.618 225.906C314.17 225.565 314.634 225.815 314.653 226.464L314.729 229.038C314.748 229.686 314.315 230.49 313.762 230.831Z" fill="white"/>
</g>
<path opacity="0.03" d="M311.308 215.062C311.308 215.062 313.185 214.852 315.002 215.627C316.617 216.316 318.019 217.558 318.019 217.558L297.972 258.902C297.972 258.902 295.66 259.038 293.829 258.298C291.559 257.381 290.794 255.746 290.794 255.746L311.308 215.062Z" fill="#39F2E4"/>
</g>
<defs>
<filter id="filter0_d_810_1872" x="281.808" y="209.644" width="45.5718" height="56.3855" filterUnits="userSpaceOnUse" color-interpolation-filters="sRGB">
<feFlood flood-opacity="0" result="BackgroundImageFix"/>
<feColorMatrix in="SourceAlpha" type="matrix" values="0 0 0 0 0 0 0 0 0 0 0 0 0 0 0 0 0 0 127 0" result="hardAlpha"/>
<feOffset dy="0.828226"/>
<feGaussianBlur stdDeviation="3.10585"/>
<feComposite in2="hardAlpha" operator="out"/>
<feColorMatrix type="matrix" values="0 0 0 0 0 0 0 0 0 0 0 0 0 0 0 0 0 0 0.06 0"/>
<feBlend mode="normal" in2="BackgroundImageFix" result="effect1_dropShadow_810_1872"/>
<feBlend mode="normal" in="SourceGraphic" in2="effect1_dropShadow_810_1872" result="shape"/>
</filter>
<linearGradient id="paint0_linear_810_1872" x1="6.27848" y1="3.76709" x2="41.7519" y2="37.0431" gradientUnits="userSpaceOnUse">
<stop stop-color="#099E92"/>
<stop offset="1" stop-color="#033834"/>
</linearGradient>
<clipPath id="clip0_810_1872">
<rect width="23.2304" height="13.6094" fill="white" transform="matrix(0.851003 -0.52516 0.0293001 0.999571 295.883 236.852)"/>
</clipPath>
</defs>
</svg>
