<svg width="680" height="976" viewBox="0 0 680 976" fill="none" xmlns="http://www.w3.org/2000/svg">
<g clip-path="url(#clip0_841_4454)">
<rect width="680" height="976" rx="24" fill="#056F67"/>
<rect x="170.578" y="125.096" width="364.278" height="143.814" rx="14.5" transform="rotate(-3.0713 170.578 125.096)" fill="#04615B" stroke="#055852" stroke-width="3"/>
<path d="M192.545 160.387L193.17 171.954L191.145 172.064L190.519 160.496L192.545 160.387ZM195.502 167.829L192.464 167.993L192.367 166.189L194.978 166.048C195.674 166.011 196.192 165.808 196.532 165.44C196.882 165.062 197.039 164.556 197.005 163.923C196.971 163.29 196.76 162.815 196.373 162.497C195.996 162.179 195.47 162.038 194.795 162.075L191.962 162.228L191.864 160.424L195.093 160.249C195.873 160.207 196.557 160.329 197.144 160.614C197.731 160.9 198.198 161.319 198.545 161.872C198.892 162.414 199.085 163.065 199.127 163.824C199.166 164.563 199.044 165.231 198.759 165.828C198.473 166.415 198.054 166.887 197.502 167.245C196.95 167.592 196.283 167.787 195.502 167.829ZM203.787 171.587C203.017 171.629 202.322 171.492 201.702 171.176C201.092 170.849 200.601 170.389 200.231 169.795C199.859 169.191 199.652 168.488 199.609 167.686C199.565 166.874 199.69 166.148 199.983 165.508C200.276 164.868 200.709 164.358 201.281 163.978C201.852 163.587 202.518 163.371 203.277 163.33C204.069 163.287 204.758 163.419 205.346 163.726C205.934 164.022 206.396 164.458 206.734 165.032C207.082 165.605 207.279 166.304 207.323 167.127L207.355 167.712L200.646 168.091L200.611 166.855L205.374 166.597C205.345 166.059 205.148 165.636 204.782 165.328C204.427 165.019 203.959 164.88 203.379 164.912C202.925 164.936 202.545 165.052 202.239 165.259C201.943 165.465 201.727 165.763 201.589 166.151C201.451 166.539 201.397 167.008 201.427 167.556C201.473 168.4 201.686 169.029 202.068 169.442C202.461 169.855 203.016 170.042 203.733 170.003C204.261 169.974 204.688 169.851 205.015 169.632C205.352 169.413 205.563 169.116 205.649 168.741L207.437 168.644C207.315 169.508 206.929 170.2 206.28 170.722C205.641 171.243 204.811 171.532 203.787 171.587ZM213.252 162.997L213.349 164.785L212.637 164.824C211.93 164.862 211.386 165.082 211.006 165.483C210.625 165.874 210.455 166.449 210.496 167.209L210.702 171.007L208.771 171.111L208.349 163.31L210.169 163.211L210.415 164.817L210.225 164.827C210.302 164.305 210.527 163.869 210.9 163.521C211.273 163.173 211.77 162.982 212.393 162.948C212.53 162.941 212.667 162.939 212.805 162.942C212.943 162.945 213.092 162.964 213.252 162.997ZM213.937 168.451L215.773 168.352C215.802 168.689 215.943 168.951 216.196 169.139C216.45 169.326 216.793 169.408 217.225 169.385C217.689 169.359 218.033 169.256 218.256 169.075C218.489 168.893 218.598 168.66 218.583 168.375C218.573 168.185 218.5 168.02 218.366 167.879C218.231 167.738 217.988 167.64 217.636 167.585L216.209 167.329C215.494 167.209 214.953 166.984 214.586 166.655C214.229 166.314 214.034 165.833 214 165.21C213.973 164.704 214.081 164.259 214.325 163.876C214.579 163.492 214.933 163.192 215.387 162.977C215.84 162.751 216.368 162.622 216.969 162.59C217.549 162.559 218.067 162.636 218.521 162.823C218.976 163.011 219.334 163.287 219.598 163.654C219.871 164.02 220.027 164.456 220.065 164.962L218.229 165.061C218.211 164.724 218.091 164.465 217.87 164.287C217.648 164.098 217.347 164.014 216.968 164.034C216.588 164.055 216.297 164.155 216.095 164.335C215.893 164.516 215.8 164.748 215.816 165.033C215.839 165.465 216.192 165.743 216.876 165.864L218.302 166.12C218.965 166.233 219.468 166.444 219.813 166.753C220.168 167.062 220.362 167.517 220.394 168.118C220.423 168.646 220.31 169.112 220.057 169.517C219.804 169.912 219.434 170.228 218.95 170.466C218.465 170.693 217.901 170.824 217.257 170.859C216.287 170.911 215.498 170.716 214.893 170.272C214.297 169.828 213.979 169.221 213.937 168.451ZM221.004 166.514C220.96 165.702 221.101 164.98 221.427 164.349C221.752 163.707 222.221 163.195 222.835 162.812C223.45 162.43 224.158 162.217 224.959 162.174C225.772 162.13 226.498 162.265 227.14 162.58C227.791 162.894 228.314 163.352 228.706 163.955C229.098 164.548 229.315 165.25 229.359 166.062C229.403 166.875 229.263 167.602 228.938 168.244C228.612 168.875 228.142 169.382 227.528 169.764C226.924 170.146 226.216 170.359 225.404 170.403C224.602 170.446 223.876 170.311 223.224 169.997C222.572 169.683 222.05 169.23 221.659 168.637C221.266 168.034 221.048 167.326 221.004 166.514ZM222.935 166.41C222.96 166.884 223.078 167.296 223.287 167.644C223.507 167.992 223.786 168.258 224.124 168.44C224.472 168.623 224.868 168.702 225.311 168.678C225.754 168.654 226.139 168.532 226.466 168.314C226.792 168.095 227.041 167.801 227.212 167.432C227.382 167.063 227.454 166.641 227.429 166.167C227.403 165.681 227.285 165.27 227.076 164.932C226.867 164.584 226.588 164.318 226.24 164.136C225.891 163.954 225.496 163.875 225.053 163.899C224.61 163.923 224.225 164.044 223.898 164.263C223.582 164.481 223.333 164.775 223.152 165.144C222.981 165.503 222.908 165.924 222.935 166.41ZM232.716 169.817L230.785 169.921L230.363 162.104L232.151 162.007L232.364 163.012C232.585 162.608 232.912 162.284 233.343 162.038C233.784 161.792 234.269 161.655 234.797 161.626C235.778 161.573 236.532 161.823 237.059 162.377C237.597 162.93 237.893 163.707 237.947 164.709L238.207 169.52L236.276 169.624L236.041 165.273C236.006 164.619 235.832 164.141 235.519 163.841C235.206 163.53 234.797 163.388 234.29 163.415C233.689 163.448 233.23 163.663 232.913 164.061C232.596 164.459 232.454 164.975 232.488 165.608L232.716 169.817ZM242.125 169.515C241.302 169.559 240.636 169.373 240.126 168.956C239.627 168.528 239.358 167.95 239.318 167.222C239.28 166.505 239.497 165.922 239.97 165.473C240.453 165.013 241.157 164.721 242.081 164.597L244.413 164.281L244.403 164.107C244.384 163.748 244.3 163.467 244.151 163.263C244.013 163.048 243.82 162.9 243.572 162.818C243.323 162.726 243.036 162.689 242.709 162.706C242.139 162.737 241.708 162.877 241.414 163.125C241.12 163.364 240.984 163.688 241.007 164.1L239.361 164.189C239.33 163.619 239.446 163.121 239.709 162.694C239.981 162.256 240.375 161.907 240.89 161.646C241.415 161.385 242.026 161.235 242.722 161.198C243.429 161.16 244.043 161.253 244.563 161.479C245.082 161.695 245.493 162.043 245.794 162.524C246.094 162.994 246.264 163.593 246.303 164.321L246.56 169.069L244.867 169.16L244.662 168.013C244.515 168.423 244.205 168.767 243.734 169.047C243.273 169.326 242.736 169.482 242.125 169.515ZM242.663 168.025C243.264 167.993 243.73 167.798 244.06 167.442C244.4 167.085 244.554 166.606 244.522 166.005L244.499 165.593L242.876 165.808C242.278 165.893 241.857 166.043 241.615 166.257C241.372 166.461 241.259 166.721 241.276 167.037C241.295 167.385 241.426 167.643 241.667 167.809C241.909 167.976 242.241 168.048 242.663 168.025ZM250.086 168.878L248.172 168.981L247.535 157.208L249.45 157.105L250.086 168.878ZM251.795 168.786L251.373 160.968L253.303 160.864L253.726 168.681L251.795 168.786ZM252.237 159.35C251.91 159.368 251.625 159.272 251.381 159.063C251.147 158.843 251.021 158.57 251.003 158.243C250.985 157.916 251.081 157.635 251.291 157.402C251.511 157.168 251.785 157.042 252.112 157.024C252.439 157.007 252.719 157.103 252.952 157.312C253.197 157.521 253.327 157.789 253.345 158.116C253.363 158.443 253.262 158.729 253.042 158.974C252.833 159.207 252.564 159.333 252.237 159.35ZM261.29 168.272L254.992 168.613L254.907 167.03L258.55 162.199L254.657 162.41L254.57 160.796L260.868 160.455L260.954 162.053L257.263 166.871L261.203 166.658L261.29 168.272ZM265.982 168.225C265.212 168.267 264.517 168.13 263.897 167.814C263.287 167.487 262.796 167.027 262.426 166.433C262.055 165.829 261.847 165.126 261.804 164.325C261.76 163.512 261.885 162.786 262.178 162.146C262.472 161.506 262.904 160.996 263.476 160.616C264.048 160.225 264.713 160.009 265.473 159.968C266.264 159.925 266.953 160.057 267.541 160.364C268.129 160.66 268.591 161.096 268.929 161.67C269.278 162.244 269.474 162.942 269.518 163.765L269.55 164.35L262.841 164.729L262.806 163.493L267.57 163.235C267.54 162.697 267.343 162.274 266.977 161.966C266.622 161.657 266.154 161.518 265.574 161.55C265.12 161.574 264.74 161.69 264.434 161.897C264.138 162.103 263.922 162.401 263.784 162.789C263.646 163.177 263.592 163.646 263.622 164.194C263.668 165.038 263.881 165.667 264.264 166.08C264.656 166.493 265.211 166.68 265.928 166.641C266.456 166.612 266.883 166.489 267.21 166.27C267.547 166.051 267.759 165.754 267.844 165.379L269.632 165.282C269.51 166.146 269.124 166.838 268.475 167.36C267.837 167.881 267.006 168.17 265.982 168.225ZM277.738 162.812L273.451 156.014L275.714 155.891L278.22 159.977C278.313 160.131 278.395 160.275 278.465 160.408C278.536 160.542 278.607 160.676 278.677 160.81C278.725 160.712 278.762 160.62 278.79 160.534C278.817 160.448 278.849 160.361 278.887 160.275C278.934 160.177 278.986 160.063 279.043 159.933L281.078 155.601L283.278 155.482L279.764 162.703L280.01 167.26L277.985 167.37L277.738 162.812ZM282.411 163.195C282.367 162.382 282.508 161.661 282.834 161.029C283.159 160.388 283.628 159.875 284.242 159.493C284.857 159.111 285.565 158.898 286.366 158.855C287.179 158.811 287.905 158.946 288.547 159.26C289.198 159.574 289.721 160.033 290.113 160.636C290.505 161.228 290.722 161.931 290.766 162.743C290.81 163.555 290.67 164.282 290.345 164.924C290.019 165.556 289.549 166.062 288.935 166.445C288.331 166.826 287.623 167.039 286.811 167.083C286.009 167.127 285.283 166.991 284.631 166.677C283.979 166.363 283.457 165.91 283.065 165.318C282.673 164.715 282.455 164.007 282.411 163.195ZM284.342 163.09C284.367 163.565 284.485 163.977 284.694 164.325C284.914 164.673 285.193 164.938 285.531 165.121C285.879 165.303 286.275 165.382 286.718 165.358C287.161 165.334 287.546 165.213 287.873 164.994C288.199 164.776 288.448 164.482 288.619 164.113C288.789 163.744 288.861 163.322 288.836 162.847C288.81 162.362 288.692 161.951 288.483 161.613C288.274 161.264 287.995 160.999 287.647 160.817C287.298 160.635 286.903 160.555 286.46 160.579C286.016 160.603 285.632 160.725 285.305 160.943C284.989 161.162 284.74 161.455 284.559 161.825C284.388 162.183 284.315 162.605 284.342 163.09ZM296.885 158.508L298.816 158.404L299.239 166.221L297.45 166.318L297.251 165.281C297.039 165.663 296.707 165.982 296.256 166.239C295.804 166.497 295.315 166.639 294.787 166.668C293.89 166.716 293.174 166.47 292.636 165.927C292.099 165.385 291.805 164.639 291.754 163.69L291.489 158.8L293.42 158.695L293.647 162.905C293.687 163.643 293.859 164.168 294.161 164.48C294.464 164.792 294.884 164.933 295.422 164.904C296.034 164.871 296.478 164.667 296.754 164.292C297.029 163.907 297.147 163.345 297.107 162.607L296.885 158.508ZM305.397 158.016L305.494 159.804L304.782 159.843C304.075 159.881 303.531 160.101 303.151 160.502C302.77 160.893 302.6 161.469 302.641 162.228L302.847 166.026L300.916 166.13L300.494 158.329L302.314 158.231L302.56 159.836L302.37 159.846C302.447 159.324 302.672 158.888 303.045 158.54C303.418 158.192 303.915 158.001 304.538 157.968C304.675 157.96 304.812 157.958 304.95 157.961C305.088 157.964 305.237 157.983 305.397 158.016ZM318.23 165.194L311.045 165.583L310.42 154.015L317.604 153.627L317.705 155.494L311.834 155.812L312.511 155.124L312.707 158.748L317.328 158.498L317.425 160.286L312.804 160.536L313.005 164.255L312.258 163.645L318.129 163.327L318.23 165.194ZM321.17 165.036L318.97 165.154L321.453 161.18L318.547 157.337L320.795 157.216L322.663 159.781L324.181 157.033L326.349 156.916L323.905 161.031L326.692 164.737L324.477 164.857L322.66 162.368L321.17 165.036ZM327.801 168.311L327.183 156.87L328.971 156.774L329.162 157.954C329.369 157.488 329.709 157.12 330.181 156.851C330.653 156.572 331.179 156.416 331.759 156.385C332.508 156.345 333.161 156.479 333.717 156.787C334.284 157.095 334.736 157.541 335.075 158.126C335.413 158.711 335.605 159.415 335.649 160.238C335.693 161.05 335.59 161.78 335.339 162.429C335.088 163.077 334.699 163.601 334.17 164C333.652 164.387 333.002 164.602 332.221 164.644C331.641 164.676 331.102 164.594 330.605 164.399C330.118 164.203 329.743 163.916 329.479 163.539L329.732 168.207L327.801 168.311ZM329.34 160.674C329.365 161.138 329.477 161.545 329.676 161.894C329.875 162.243 330.143 162.514 330.482 162.707C330.83 162.889 331.226 162.968 331.669 162.944C332.123 162.92 332.508 162.799 332.824 162.58C333.14 162.352 333.372 162.054 333.521 161.686C333.671 161.318 333.733 160.902 333.708 160.438C333.683 159.974 333.576 159.567 333.388 159.217C333.2 158.868 332.937 158.601 332.599 158.419C332.26 158.225 331.864 158.141 331.411 158.165C330.968 158.189 330.583 158.311 330.256 158.529C329.94 158.748 329.702 159.041 329.542 159.409C329.382 159.778 329.315 160.199 329.34 160.674ZM340.595 164.192C339.824 164.233 339.129 164.096 338.509 163.781C337.899 163.454 337.409 162.994 337.038 162.4C336.667 161.796 336.459 161.093 336.416 160.291C336.372 159.479 336.497 158.753 336.79 158.113C337.084 157.473 337.516 156.963 338.088 156.583C338.66 156.192 339.325 155.976 340.085 155.935C340.876 155.892 341.566 156.024 342.153 156.331C342.741 156.627 343.203 157.063 343.541 157.637C343.89 158.21 344.086 158.909 344.131 159.732L344.162 160.317L337.454 160.696L337.419 159.46L342.182 159.202C342.153 158.664 341.955 158.241 341.589 157.933C341.234 157.624 340.766 157.485 340.186 157.517C339.733 157.541 339.353 157.657 339.046 157.864C338.751 158.07 338.534 158.368 338.396 158.756C338.259 159.144 338.205 159.613 338.234 160.161C338.28 161.005 338.494 161.634 338.876 162.047C339.268 162.46 339.823 162.646 340.541 162.608C341.068 162.579 341.495 162.456 341.822 162.237C342.159 162.018 342.371 161.721 342.456 161.346L344.244 161.249C344.122 162.113 343.736 162.805 343.087 163.327C342.449 163.848 341.618 164.137 340.595 164.192ZM350.06 155.602L350.156 157.39L349.444 157.429C348.737 157.467 348.194 157.687 347.813 158.088C347.432 158.479 347.262 159.054 347.304 159.814L347.509 163.612L345.578 163.716L345.157 155.915L346.976 155.816L347.222 157.422L347.032 157.432C347.109 156.91 347.335 156.474 347.707 156.126C348.08 155.778 348.577 155.587 349.2 155.553C349.337 155.546 349.474 155.544 349.612 155.547C349.75 155.55 349.899 155.568 350.06 155.602ZM351.474 163.397L351.051 155.58L352.982 155.476L353.405 163.293L351.474 163.397ZM351.916 153.962C351.589 153.98 351.304 153.884 351.06 153.675C350.826 153.455 350.7 153.182 350.682 152.855C350.664 152.528 350.76 152.247 350.97 152.014C351.19 151.78 351.463 151.654 351.791 151.636C352.118 151.618 352.398 151.714 352.631 151.924C352.875 152.133 353.006 152.401 353.024 152.728C353.042 153.055 352.941 153.341 352.721 153.586C352.512 153.819 352.243 153.945 351.916 153.962ZM358.591 163.219C357.821 163.261 357.126 163.124 356.506 162.808C355.895 162.481 355.405 162.021 355.034 161.428C354.663 160.823 354.456 160.12 354.413 159.319C354.369 158.506 354.493 157.78 354.787 157.14C355.08 156.5 355.513 155.99 356.085 155.61C356.656 155.219 357.322 155.003 358.081 154.962C358.872 154.919 359.562 155.051 360.15 155.358C360.737 155.654 361.2 156.09 361.538 156.664C361.886 157.238 362.083 157.936 362.127 158.759L362.159 159.344L355.45 159.723L355.415 158.487L360.178 158.229C360.149 157.691 359.952 157.268 359.586 156.96C359.231 156.651 358.763 156.512 358.183 156.544C357.729 156.568 357.349 156.684 357.043 156.891C356.747 157.097 356.53 157.395 356.393 157.783C356.255 158.172 356.201 158.64 356.231 159.189C356.276 160.033 356.49 160.661 356.872 161.074C357.265 161.487 357.82 161.674 358.537 161.635C359.065 161.606 359.492 161.483 359.818 161.264C360.156 161.045 360.367 160.748 360.453 160.373L362.241 160.276C362.118 161.14 361.732 161.833 361.084 162.354C360.445 162.875 359.614 163.164 358.591 163.219ZM365.505 162.639L363.575 162.743L363.152 154.926L364.94 154.829L365.153 155.834C365.375 155.43 365.701 155.106 366.132 154.86C366.574 154.614 367.058 154.477 367.586 154.448C368.567 154.395 369.321 154.646 369.848 155.199C370.386 155.752 370.682 156.529 370.736 157.532L370.996 162.342L369.066 162.447L368.83 158.095C368.795 157.441 368.621 156.963 368.309 156.663C367.996 156.352 367.586 156.21 367.08 156.237C366.478 156.27 366.019 156.485 365.702 156.883C365.385 157.281 365.244 157.797 365.278 158.43L365.505 162.639ZM371.906 158.357C371.862 157.555 371.987 156.834 372.281 156.194C372.585 155.554 373.017 155.044 373.579 154.664C374.15 154.273 374.821 154.057 375.591 154.016C376.656 153.958 377.542 154.191 378.247 154.713C378.963 155.225 379.398 155.947 379.555 156.88L377.624 156.985C377.484 156.548 377.25 156.227 376.921 156.023C376.603 155.807 376.212 155.712 375.747 155.737C375.347 155.759 374.993 155.878 374.688 156.096C374.392 156.302 374.169 156.59 374.02 156.957C373.871 157.325 373.809 157.757 373.836 158.253C373.863 158.749 373.965 159.172 374.143 159.522C374.32 159.872 374.562 160.139 374.869 160.324C375.185 160.497 375.549 160.573 375.96 160.55C376.445 160.524 376.84 160.386 377.144 160.137C377.458 159.887 377.657 159.543 377.739 159.105L379.685 159C379.634 159.616 379.447 160.166 379.124 160.649C378.811 161.121 378.392 161.503 377.868 161.796C377.344 162.078 376.739 162.238 376.053 162.275C375.262 162.318 374.562 162.186 373.953 161.881C373.343 161.565 372.858 161.109 372.498 160.515C372.148 159.91 371.951 159.191 371.906 158.357ZM384.469 161.82C383.699 161.862 383.003 161.725 382.383 161.409C381.773 161.083 381.283 160.622 380.912 160.029C380.541 159.425 380.334 158.722 380.29 157.92C380.246 157.107 380.371 156.381 380.664 155.741C380.958 155.101 381.391 154.591 381.962 154.211C382.534 153.82 383.199 153.604 383.959 153.563C384.75 153.521 385.44 153.653 386.028 153.959C386.615 154.256 387.078 154.691 387.415 155.265C387.764 155.839 387.96 156.537 388.005 157.36L388.036 157.945L381.328 158.324L381.293 157.088L386.056 156.83C386.027 156.292 385.829 155.869 385.463 155.561C385.108 155.252 384.64 155.114 384.06 155.145C383.607 155.169 383.227 155.285 382.92 155.492C382.625 155.699 382.408 155.996 382.27 156.384C382.133 156.773 382.079 157.241 382.108 157.79C382.154 158.634 382.368 159.262 382.75 159.675C383.142 160.088 383.697 160.275 384.415 160.236C384.942 160.208 385.369 160.084 385.696 159.865C386.033 159.646 386.245 159.349 386.33 158.974L388.119 158.877C387.996 159.741 387.61 160.434 386.961 160.955C386.323 161.477 385.492 161.765 384.469 161.82Z" fill="#098D83"/>
<rect x="398.385" y="126.788" width="116.115" height="53.7073" rx="25.8598" transform="rotate(-2.97452 398.385 126.788)" fill="#065852" stroke="#05534E" stroke-width="2.3697"/>
<circle cx="485.491" cy="149.327" r="20.326" transform="rotate(-2.97452 485.491 149.327)" fill="#057068" stroke="#055852" stroke-width="1.74223"/>
<path d="M477 150L481.767 156.067L496.5 143.933" stroke="#84F3EB" stroke-width="2"/>
<path d="M114.5 239C114.5 222.155 128.155 208.5 145 208.5H704.5V1018.5H114.5V239Z" fill="#04655E" stroke="#055852" stroke-width="3"/>
<rect x="170" y="559" width="535" height="62" rx="7" fill="#04655E" stroke="#055852" stroke-width="2"/>
<rect x="170" y="656" width="535" height="62" rx="7" fill="#04655E" stroke="#055852" stroke-width="2"/>
<rect x="170" y="753" width="535" height="62" rx="7" fill="#04655E" stroke="#055852" stroke-width="2"/>
<rect x="170" y="850" width="535" height="62" rx="7" fill="#04655E" stroke="#055852" stroke-width="2"/>
<rect x="170.696" y="271.696" width="225.581" height="225.581" rx="112.791" fill="#04655E" stroke="#055852" stroke-width="3.3922"/>
<rect x="419.859" y="389.859" width="94.2821" height="35.2821" rx="7.53789" fill="#07756D" stroke="#055852" stroke-width="1.71793"/>
<circle cx="547.5" cy="406.5" r="16.5" fill="#07756D"/>
<path d="M538.762 407.082L544.003 412.324L556.232 400.968" stroke="#21BFB4" stroke-width="1.74706"/>
<rect x="419.859" y="436.859" width="191.282" height="35.2821" rx="7.53789" fill="#07756D" stroke="#055852" stroke-width="1.71793"/>
</g>
<defs>
<clipPath id="clip0_841_4454">
<rect width="680" height="976" rx="24" fill="white"/>
</clipPath>
</defs>
</svg>
