<svg width="387" height="337" viewBox="0 0 387 337" fill="none" xmlns="http://www.w3.org/2000/svg">
<path d="M227.676 96.1606L227.741 132.161L255.058 148.069L255.261 108.246L227.676 96.1606Z" fill="#D5FCF5" stroke="#047A71" stroke-width="0.901111" stroke-miterlimit="10"/>
<path d="M257.994 87.3312L227.676 96.1606L255.261 108.246L286.422 98.5951L257.994 87.3312Z" fill="#73CAC4" stroke="#047A71" stroke-width="0.901111" stroke-miterlimit="10"/>
<path d="M255.258 108.246L255.055 148.069L285.918 134.625L286.419 98.595L255.258 108.246Z" fill="#047A71" stroke="#047A71" stroke-width="0.901111" stroke-miterlimit="10"/>
<path d="M190.546 96.9091L188.947 156.644" stroke="#047A71" stroke-width="1.16272" stroke-miterlimit="10"/>
<path d="M242.675 186.202L189.998 159.711" stroke="#047A71" stroke-width="1.16272" stroke-miterlimit="10"/>
<path d="M186.768 161.004L133.166 181.199" stroke="#047A71" stroke-width="1.16272" stroke-miterlimit="10"/>
<path d="M178.002 195.409L155.878 182.529L155.831 169.382L177.962 182.262L178.002 195.409Z" fill="#75A3A1"/>
<path d="M198.202 158.148L218.487 158.898L218.498 172.061L178.008 195.409L177.968 182.261L198.202 158.148Z" fill="#9CDAD7"/>
<path d="M219.503 172.071L218.498 171.486L177.993 194.828L155.895 181.503L154.893 182.088L177.953 195.993L177.974 195.977L177.989 195.991L219.503 172.071Z" fill="#006866"/>
<path d="M219.509 173.642L219.504 172.071L178.957 195.436L178.956 195.407L177.954 195.993L177.944 197.557L177.994 197.533L177.995 197.562L219.509 173.642Z" fill="#007976"/>
<path d="M154.895 182.088L154.885 183.66L177.945 197.557L177.955 195.993L154.895 182.088Z" fill="#004E4D"/>
<path d="M194.978 189.855L191.388 187.745L191.339 165.674L194.929 167.784L194.978 189.855Z" fill="#75A3A1"/>
<path d="M201.956 159.851L208.947 159.709L208.996 181.78L194.977 189.855L194.929 167.784L201.956 159.851Z" fill="#9CDAD7"/>
<path d="M209.996 181.791L195.964 189.874L195.963 189.845L194.954 190.431L194.951 192.002L210.001 183.362L209.996 181.791Z" fill="#007976"/>
<path d="M209.996 181.791L208.991 181.206L195.001 189.265L191.379 187.091L190.37 187.676L194.953 190.431L194.974 190.416L194.997 190.429L209.996 181.791Z" fill="#006866"/>
<path d="M191.376 189.847L194.954 192.002L194.956 190.431L191.416 188.296L191.376 189.847Z" fill="#004E4D"/>
<path d="M207.373 162.558L203.307 164.903L203.317 169.317L207.383 166.972L207.373 162.558Z" fill="#EBFDFF"/>
<path d="M207.547 162.66L207.183 162.449L207.193 166.871L207.558 167.081L207.547 162.66Z" fill="#004E4D"/>
<path d="M207.194 166.87L203.128 169.215L203.493 169.419L207.559 167.081L207.194 166.87Z" fill="#006866"/>
<path d="M203.065 164.789L202.7 164.578L202.718 169.916L203.075 170.127L203.065 164.789Z" fill="#004E4D"/>
<path d="M207.609 161.748L202.697 164.578L203.062 164.789L207.967 161.959L207.609 161.748Z" fill="#006866"/>
<path d="M207.971 161.959L203.059 164.789L203.069 170.127L207.981 167.297L207.971 161.959ZM203.492 169.419L203.482 165.005L207.548 162.66L207.558 167.074L203.492 169.419Z" fill="#007976"/>
<path d="M201.346 165.934L197.28 168.279L197.29 172.693L201.356 170.348L201.346 165.934Z" fill="#EBFDFF"/>
<path d="M201.52 166.036L201.155 165.826L201.165 170.247L201.53 170.458L201.52 166.036Z" fill="#004E4D"/>
<path d="M201.172 170.247L197.113 172.591L197.47 172.803L201.536 170.458L201.172 170.247Z" fill="#006866"/>
<path d="M197.037 168.165L196.673 167.955L196.69 173.292L197.048 173.503L197.037 168.165Z" fill="#004E4D"/>
<path d="M201.582 165.125L196.67 167.955L197.035 168.165L201.947 165.336L201.582 165.125Z" fill="#006866"/>
<path d="M201.953 165.335L197.041 168.165L197.052 173.503L201.964 170.673L201.953 165.335ZM197.474 172.795L197.464 168.381L201.53 166.036L201.54 170.45L197.474 172.795Z" fill="#007976"/>
<path d="M207.387 173.503L203.321 175.848L203.331 180.262L207.397 177.917L207.387 173.503Z" fill="#EBFDFF"/>
<path d="M207.56 173.605L207.202 173.394L207.212 177.815L207.57 178.027L207.56 173.605Z" fill="#004E4D"/>
<path d="M207.22 177.815L203.154 180.16L203.511 180.364L207.577 178.026L207.22 177.815Z" fill="#006866"/>
<path d="M203.078 175.734L202.721 175.523L202.731 180.861L203.096 181.071L203.078 175.734Z" fill="#004E4D"/>
<path d="M207.625 172.693L202.721 175.523L203.078 175.734L207.99 172.904L207.625 172.693Z" fill="#006866"/>
<path d="M207.994 172.904L203.082 175.734L203.093 181.072L208.005 178.242L207.994 172.904ZM203.515 180.364L203.505 175.949L207.571 173.604L207.581 178.019L203.515 180.364Z" fill="#007976"/>
<path d="M201.348 176.88L197.282 179.225L197.291 183.639L201.358 181.294L201.348 176.88Z" fill="#EBFDFF"/>
<path d="M201.521 176.982L201.163 176.771L201.173 181.192L201.538 181.403L201.521 176.982Z" fill="#004E4D"/>
<path d="M201.181 181.192L197.115 183.537L197.48 183.748L201.546 181.403L201.181 181.192Z" fill="#006866"/>
<path d="M197.047 179.111L196.682 178.9L196.692 184.238L197.057 184.448L197.047 179.111Z" fill="#004E4D"/>
<path d="M201.594 176.07L196.682 178.9L197.046 179.111L201.951 176.281L201.594 176.07Z" fill="#006866"/>
<path d="M201.955 176.281L197.043 179.111L197.054 184.449L201.966 181.619L201.955 176.281ZM197.476 183.741L197.466 179.326L201.532 176.981L201.542 181.396L197.476 183.741Z" fill="#007976"/>
<path d="M216.697 164.322L212.631 166.667L212.641 171.089L216.707 168.744L216.697 164.322Z" fill="#EBFDFF"/>
<path d="M216.87 164.432L216.513 164.22L216.522 168.635L216.88 168.846L216.87 164.432Z" fill="#004E4D"/>
<path d="M216.53 168.634L212.464 170.979L212.822 171.191L216.888 168.846L216.53 168.634Z" fill="#006866"/>
<path d="M212.389 166.56L212.031 166.349L212.042 171.687L212.406 171.891L212.389 166.56Z" fill="#004E4D"/>
<path d="M216.936 163.52L212.031 166.349L212.389 166.56L217.301 163.731L216.936 163.52Z" fill="#006866"/>
<path d="M217.305 163.731L212.393 166.56L212.403 171.898L217.315 169.068L217.305 163.731ZM212.826 171.19L212.816 166.776L216.882 164.431L216.892 168.845L212.826 171.19Z" fill="#007976"/>
<path d="M190.079 179.368L186.02 181.713L186.03 186.134L190.089 183.789L190.079 179.368Z" fill="#EBFDFF"/>
<path d="M190.262 179.477L189.897 179.266L189.907 183.68L190.272 183.891L190.262 179.477Z" fill="#004E4D"/>
<path d="M189.915 183.68L185.849 186.025L186.214 186.236L190.28 183.891L189.915 183.68Z" fill="#006866"/>
<path d="M185.781 181.606L185.416 181.395L185.426 186.726L185.791 186.936L185.781 181.606Z" fill="#004E4D"/>
<path d="M190.328 178.565L185.416 181.395L185.781 181.606L190.686 178.776L190.328 178.565Z" fill="#006866"/>
<path d="M190.69 178.776L185.777 181.606L185.788 186.944L190.7 184.114L190.69 178.776ZM186.21 186.236L186.201 181.822L190.267 179.477L190.276 183.891L186.21 186.236Z" fill="#007976"/>
<path d="M184.043 182.752L179.977 185.089L179.987 189.511L184.053 187.166L184.043 182.752Z" fill="#EBFDFF"/>
<path d="M184.219 182.854L183.855 182.643L183.864 187.057L184.229 187.268L184.219 182.854Z" fill="#004E4D"/>
<path d="M183.872 187.057L179.806 189.402L180.171 189.613L184.237 187.268L183.872 187.057Z" fill="#006866"/>
<path d="M179.738 184.983L179.373 184.772L179.384 190.11L179.749 190.321L179.738 184.983Z" fill="#004E4D"/>
<path d="M184.285 181.942L179.373 184.772L179.738 184.983L184.643 182.153L184.285 181.942Z" fill="#006866"/>
<path d="M184.647 182.153L179.735 184.983L179.745 190.321L184.657 187.491L184.647 182.153ZM180.167 189.613L180.158 185.199L184.224 182.854L184.234 187.268L180.167 189.613Z" fill="#007976"/>
<path d="M201.409 158.782L176.074 143.82L198.1 144.638L223.436 159.608L201.409 158.782Z" fill="#006866"/>
<path d="M179.434 184.973L154.099 170.004L176.075 143.82L201.41 158.782L179.434 184.973Z" fill="#004E4D"/>
<path d="M201.415 158.782L223.441 159.608L222.164 161.128L201.412 160.353L180.721 185.023L179.439 184.973L201.415 158.782Z" fill="#007976"/>
<path d="M133.033 113.086L133.164 181.199L184.84 211.292L185.218 135.955L133.033 113.086Z" fill="#BCF9EE" fill-opacity="0.5" stroke="#047A71" stroke-width="1.16272" stroke-miterlimit="10"/>
<path d="M190.392 96.3859L133.033 113.086L185.218 135.955L244.182 117.7L190.392 96.3859Z" fill="#BCF9EE" fill-opacity="0.5" stroke="#047A71" stroke-width="1.16272" stroke-miterlimit="10"/>
<path d="M185.218 135.955L184.84 211.292L243.088 186.449L244.182 117.7L185.218 135.955Z" fill="#A3F7E8" fill-opacity="0.5" stroke="#047A71" stroke-width="1.16272" stroke-miterlimit="10"/>
<path d="M96.7871 123.179L96.8598 159.188L124.169 175.095L124.373 135.272L96.7871 123.179Z" fill="#D5FCF5" stroke="#047A71" stroke-width="0.901111" stroke-miterlimit="10"/>
<path d="M127.105 114.357L96.7871 123.179L124.373 135.272L155.541 125.621L127.105 114.357Z" fill="#73CAC4" stroke="#047A71" stroke-width="0.901111" stroke-miterlimit="10"/>
<path d="M124.369 135.272L124.166 175.095L155.036 161.651L155.538 125.621L124.369 135.272Z" fill="#047A71" stroke="#047A71" stroke-width="0.901111" stroke-miterlimit="10"/>
<path d="M72.7539 242.678L72.8556 294.303L112.01 317.1L112.301 260.01L72.7539 242.678Z" fill="#D5FCF5" stroke="#047A71" stroke-width="1.29353" stroke-miterlimit="10"/>
<path d="M116.218 230.026L72.7539 242.678L112.301 260.01L156.979 246.181L116.218 230.026Z" fill="#73CAC4" stroke="#047A71" stroke-width="1.29353" stroke-miterlimit="10"/>
<path d="M112.3 260.01L112.01 317.1L156.259 297.835L156.978 246.181L112.3 260.01Z" fill="#047A71" stroke="#047A71" stroke-width="1.29353" stroke-miterlimit="10"/>
<path fill-rule="evenodd" clip-rule="evenodd" d="M152 271.009C152 260.071 144.321 255.638 134.848 261.107C125.376 266.576 117.696 279.876 117.696 290.814C117.696 301.752 125.376 306.186 134.848 300.717C144.321 295.248 152 281.947 152 271.009Z" fill="#047A71"/>
<path fill-rule="evenodd" clip-rule="evenodd" d="M142.413 281.209L141.99 282.963C141.904 283.32 141.694 283.681 141.427 283.929L140.112 285.155C139.93 285.324 139.929 285.621 140.109 285.585L141.418 285.318C141.683 285.264 141.89 285.387 141.973 285.648L142.376 286.933C142.432 287.11 142.689 286.964 142.747 286.721L143.17 284.966C143.257 284.61 143.466 284.25 143.734 284.001L145.048 282.776C145.23 282.606 145.232 282.309 145.051 282.346L143.742 282.613C143.477 282.666 143.27 282.543 143.188 282.282L142.784 280.998C142.728 280.82 142.472 280.966 142.413 281.209Z" fill="#FAFAFA"/>
<path fill-rule="evenodd" clip-rule="evenodd" d="M121.64 294.083C122.182 294.47 123.028 294.376 123.85 294.062C124.679 293.739 125.548 293.223 126.366 292.583C128.021 291.304 129.525 289.644 130.837 287.91C131.518 287.038 132.099 286.148 132.701 285.235C132.991 284.782 133.255 284.326 133.531 283.867L134.283 282.568C135.1 281.11 135.906 279.746 136.686 278.551C137.468 277.357 138.2 276.372 138.922 275.562C139.642 274.75 140.413 274.073 141.419 273.455C142.415 272.839 143.594 272.366 144.855 271.981C146.123 271.59 147.454 271.308 148.941 270.868C148.422 269.505 147.641 268.487 146.637 267.723C145.622 266.989 144.354 266.518 142.725 266.667C141.12 266.785 139.103 267.659 137.217 269.186C135.326 270.699 133.666 272.667 132.325 274.61C130.98 276.567 129.892 278.54 128.974 280.468C128.721 281.001 128.587 281.294 128.404 281.702L127.897 282.861C127.546 283.6 127.225 284.395 126.877 285.127C126.194 286.633 125.52 288.132 124.738 289.607C124.344 290.354 123.929 291.09 123.438 291.85C123.194 292.224 122.93 292.604 122.637 292.979C122.34 293.372 122.026 293.726 121.64 294.083Z" fill="#EC796B"/>
<path fill-rule="evenodd" clip-rule="evenodd" d="M121.64 294.083C122.222 295.443 123.304 296.246 124.757 296.461C126.201 296.67 128.206 296.044 130.193 294.443C131.175 293.657 132.126 292.686 132.961 291.642C133.792 290.602 134.536 289.499 135.181 288.403C135.502 287.855 135.794 287.308 136.085 286.76L136.837 285.219L137.998 282.766C139.479 279.618 141.074 276.01 143.69 273.703C146.259 271.438 147.373 271.487 148.941 270.868C148.655 270.179 148.3 269.554 147.818 269.102C147.346 268.629 146.788 268.252 146.094 268.053C145.743 267.967 145.373 267.897 144.962 267.893C144.553 267.896 144.111 267.946 143.64 268.063C142.703 268.308 141.648 268.813 140.627 269.562C139.605 270.31 138.628 271.248 137.774 272.237C136.914 273.226 136.165 274.258 135.496 275.276C134.166 277.319 133.131 279.326 132.258 281.254C131.818 282.22 131.419 283.176 131.05 284.115L130.616 285.23C130.483 285.559 130.349 285.891 130.212 286.206C129.662 287.475 129.124 288.548 128.47 289.498C127.826 290.457 126.928 291.409 125.728 292.202C124.534 292.994 123.155 293.602 121.64 294.083Z" fill="#FAFAFA"/>
<path fill-rule="evenodd" clip-rule="evenodd" d="M128.102 276.259C128.102 275.014 127.226 274.508 126.148 275.131C125.069 275.754 124.195 277.269 124.195 278.515C124.195 279.761 125.069 280.267 126.148 279.644C127.226 279.021 128.102 277.505 128.102 276.259Z" fill="#EC796B"/>
<path d="M155 272.5L174.669 265V272.868L155 280.424V272.5Z" fill="#73CAC4"/>
<path d="M242.014 199.541L242.115 251.159L281.277 273.956L281.568 216.866L242.014 199.541Z" fill="#D5FCF5" stroke="#047A71" stroke-width="1.29353" stroke-miterlimit="10"/>
<path d="M285.485 186.882L242.014 199.541L281.568 216.866L326.246 203.037L285.485 186.882Z" fill="#73CAC4" stroke="#047A71" stroke-width="1.29353" stroke-miterlimit="10"/>
<path d="M281.566 216.866L281.275 273.956L325.524 254.691L326.244 203.037L281.566 216.866Z" fill="#047A71" stroke="#047A71" stroke-width="1.29353" stroke-miterlimit="10"/>
<path d="M142.828 43.3366L142.886 73.0152L165.407 86.1321L165.567 53.2997L142.828 43.3366Z" fill="#D5FCF5" stroke="#047A71" stroke-width="0.748504" stroke-miterlimit="10"/>
<path d="M167.819 36.0623L142.828 43.3366L165.567 53.2997L191.263 45.3496L167.819 36.0623Z" fill="#73CAC4" stroke="#047A71" stroke-width="0.748504" stroke-miterlimit="10"/>
<path d="M165.572 53.2997L165.412 86.1321L190.854 76.3612L191.268 45.3496L165.572 53.2997Z" fill="#047A71" stroke="#047A71" stroke-width="0.748504" stroke-miterlimit="10"/>
<path d="M113.454 146.209L92.5977 151.993V237.897" stroke="#047A71" stroke-width="0.901111" stroke-miterlimit="10"/>
<path d="M91.4595 188.499L67.2539 193.615V115.231" stroke="#047A71" stroke-width="0.901111" stroke-miterlimit="10"/>
<path d="M285.76 114.241L306.616 109.852L305.889 195.028" stroke="#047A71" stroke-width="0.901111" stroke-miterlimit="10"/>
<path d="M307.754 155.395L330.064 149.61L330.648 71.4939" stroke="#047A71" stroke-width="0.901111" stroke-miterlimit="10"/>
<path d="M241.51 92.2219L241.459 73.0079L258.26 67.845V25.3289" stroke="#047A71" stroke-width="0.901111" stroke-miterlimit="10"/>
<path d="M241.464 235.535L211.298 243.5L210.434 199.541" stroke="#047A71" stroke-width="0.901111" stroke-miterlimit="10"/>
<path d="M210.431 220.49L185.949 227.339L185.709 303.687" stroke="#047A71" stroke-width="0.901111" stroke-miterlimit="10"/>
<path d="M152.276 62.8122L121.973 70.0574V115.985" stroke="#047A71" stroke-width="0.901111" stroke-miterlimit="10"/>
<path d="M122.085 90.5795L101.955 95.6955V33.7732" stroke="#047A71" stroke-width="0.901111" stroke-miterlimit="10"/>
<circle cx="185.632" cy="304.874" r="2.95039" fill="#DFB5FF" stroke="#047A71" stroke-width="0.655642"/>
<circle cx="329.874" cy="71.465" r="2.95039" fill="#FFBB89" stroke="#047A71" stroke-width="0.655642"/>
<circle cx="257.753" cy="25.57" r="2.95039" fill="#73CAC4" stroke="#047A71" stroke-width="0.655642"/>
<circle cx="101.71" cy="30.8152" r="2.95039" fill="#89FF9C" stroke="#047A71" stroke-width="0.655642"/>
<circle cx="66.3056" cy="113.426" r="2.95039" fill="#73CAC4" stroke="#047A71" stroke-width="0.655642"/>
<path d="M324.039 226.852L343.708 220.296V228.163L324.039 234.72V226.852Z" fill="#BCE5E3"/>
<path d="M186.287 57.6965L205.956 51.1401V59.0078L186.287 65.5642V57.6965Z" fill="#73CAC4"/>
<g filter="url(#filter0_d_810_1872)">
<circle cx="19.4633" cy="19.4633" r="18.8355" transform="matrix(0.851003 -0.52516 0.0293001 0.999571 287.461 227.775)" fill="#056F67" stroke="url(#paint0_linear_810_1872)" stroke-width="1.2557"/>
<g clip-path="url(#clip0_810_1872)">
<path d="M304.152 245.6C303.447 246.035 302.728 246.364 302.009 246.568C299.967 247.146 298.242 246.628 297.151 245.108C296.062 243.587 295.737 241.248 296.238 238.521C296.37 237.803 296.912 237.099 297.449 236.946C297.987 236.794 298.315 237.252 298.184 237.97C297.81 240.004 298.052 241.748 298.865 242.881C299.678 244.014 300.964 244.401 302.487 243.97C303.023 243.818 303.559 243.572 304.085 243.248C306.645 241.668 308.947 238.225 309.586 234.741C309.718 234.023 310.26 233.319 310.797 233.167C311.335 233.015 311.663 233.473 311.532 234.19C310.674 238.862 307.588 243.479 304.154 245.599L304.152 245.6Z" fill="white"/>
<path d="M306.267 237.165C305.998 237.331 305.726 237.37 305.521 237.241C305.132 236.997 305.134 236.239 305.526 235.547L308.887 229.626L308.981 229.502C309.82 228.387 310.885 227.729 311.76 227.785L311.856 227.791L315.461 229.415C315.88 229.604 315.928 230.332 315.568 231.039C315.207 231.748 314.576 232.169 314.156 231.98L310.736 230.438C310.539 230.459 310.318 230.595 310.126 230.815L306.939 236.431C306.753 236.759 306.512 237.014 306.269 237.164L306.267 237.165Z" fill="white"/>
<path d="M313.764 230.831C313.212 231.171 312.748 230.921 312.729 230.273L312.654 227.699C312.635 227.05 313.068 226.247 313.62 225.906C314.172 225.565 314.636 225.815 314.655 226.464L314.731 229.038C314.75 229.686 314.317 230.49 313.764 230.831Z" fill="white"/>
</g>
<path opacity="0.03" d="M311.306 215.062C311.306 215.062 313.183 214.852 315 215.627C316.615 216.316 318.017 217.558 318.017 217.558L297.97 258.902C297.97 258.902 295.658 259.038 293.827 258.298C291.557 257.381 290.792 255.746 290.792 255.746L311.306 215.062Z" fill="#39F2E4"/>
</g>
<defs>
<filter id="filter0_d_810_1872" x="281.81" y="209.644" width="45.5699" height="56.3855" filterUnits="userSpaceOnUse" color-interpolation-filters="sRGB">
<feFlood flood-opacity="0" result="BackgroundImageFix"/>
<feColorMatrix in="SourceAlpha" type="matrix" values="0 0 0 0 0 0 0 0 0 0 0 0 0 0 0 0 0 0 127 0" result="hardAlpha"/>
<feOffset dy="0.828226"/>
<feGaussianBlur stdDeviation="3.10585"/>
<feComposite in2="hardAlpha" operator="out"/>
<feColorMatrix type="matrix" values="0 0 0 0 0 0 0 0 0 0 0 0 0 0 0 0 0 0 0.06 0"/>
<feBlend mode="normal" in2="BackgroundImageFix" result="effect1_dropShadow_810_1872"/>
<feBlend mode="normal" in="SourceGraphic" in2="effect1_dropShadow_810_1872" result="shape"/>
</filter>
<linearGradient id="paint0_linear_810_1872" x1="6.27848" y1="3.76709" x2="41.7519" y2="37.0431" gradientUnits="userSpaceOnUse">
<stop stop-color="#099E92"/>
<stop offset="1" stop-color="#033834"/>
</linearGradient>
<clipPath id="clip0_810_1872">
<rect width="23.2304" height="13.6094" fill="white" transform="matrix(0.851003 -0.52516 0.0293001 0.999571 295.885 236.852)"/>
</clipPath>
</defs>
</svg>
