<svg width="680" height="976" viewBox="0 0 680 976" fill="none" xmlns="http://www.w3.org/2000/svg">
<g clip-path="url(#clip0_839_4351)">
<rect width="680" height="976" rx="24" fill="#056F67"/>
<rect x="170.578" y="101.096" width="364.278" height="143.814" rx="14.5" transform="rotate(-3.0713 170.578 101.096)" fill="#04615B" stroke="#055852" stroke-width="3"/>
<path d="M196.841 150.143L192.457 137.899L194.721 137.777L197.051 144.241C197.171 144.576 197.287 144.934 197.399 145.315C197.51 145.685 197.626 146.14 197.746 146.679C197.818 146.118 197.89 145.653 197.961 145.285C198.043 144.905 198.125 144.536 198.208 144.179L199.828 137.501L202.229 137.371L204.507 143.838C204.629 144.184 204.745 144.548 204.857 144.929C204.98 145.309 205.106 145.758 205.237 146.274C205.319 145.69 205.396 145.213 205.467 144.845C205.549 144.465 205.627 144.119 205.701 143.808L207.353 137.094L209.566 136.974L206.459 149.623L204.348 149.737L201.203 140.824L198.969 150.028L196.841 150.143ZM212.48 149.52C211.595 149.568 210.878 149.367 210.33 148.919C209.793 148.458 209.503 147.837 209.461 147.054C209.419 146.282 209.653 145.654 210.162 145.172C210.681 144.677 211.438 144.363 212.433 144.229L214.941 143.889L214.931 143.702C214.91 143.316 214.82 143.013 214.66 142.794C214.511 142.563 214.303 142.404 214.037 142.316C213.77 142.216 213.46 142.176 213.108 142.195C212.495 142.228 212.031 142.379 211.716 142.646C211.399 142.902 211.253 143.252 211.277 143.694L209.506 143.79C209.473 143.177 209.598 142.641 209.881 142.182C210.174 141.711 210.597 141.335 211.151 141.055C211.717 140.774 212.374 140.613 213.123 140.572C213.883 140.531 214.543 140.632 215.103 140.875C215.662 141.107 216.103 141.481 216.427 141.999C216.75 142.505 216.933 143.149 216.976 143.933L217.252 149.04L215.43 149.138L215.21 147.904C215.051 148.345 214.719 148.716 214.211 149.016C213.715 149.316 213.138 149.484 212.48 149.52ZM213.059 147.918C213.706 147.883 214.207 147.673 214.562 147.29C214.928 146.906 215.094 146.39 215.059 145.744L215.035 145.301L213.289 145.532C212.645 145.624 212.193 145.785 211.932 146.015C211.67 146.234 211.549 146.514 211.567 146.854C211.588 147.229 211.728 147.506 211.988 147.685C212.248 147.865 212.605 147.942 213.059 147.918ZM221.046 148.835L218.986 148.946L218.301 136.28L220.361 136.169L221.046 148.835ZM224.978 148.622L222.918 148.734L222.233 136.067L224.293 135.956L224.978 148.622ZM230.59 148.541C229.762 148.586 229.014 148.438 228.347 148.099C227.69 147.747 227.163 147.252 226.764 146.613C226.365 145.963 226.142 145.207 226.095 144.345C226.048 143.471 226.182 142.689 226.498 142.001C226.813 141.312 227.279 140.763 227.894 140.354C228.509 139.934 229.225 139.702 230.042 139.658C230.893 139.612 231.635 139.754 232.267 140.084C232.899 140.403 233.397 140.871 233.76 141.489C234.135 142.106 234.347 142.857 234.395 143.742L234.429 144.372L227.211 144.779L227.173 143.45L232.298 143.173C232.266 142.594 232.054 142.139 231.661 141.807C231.278 141.475 230.775 141.326 230.151 141.359C229.663 141.386 229.254 141.51 228.925 141.733C228.607 141.955 228.373 142.275 228.225 142.693C228.077 143.11 228.019 143.614 228.051 144.205C228.1 145.113 228.33 145.789 228.741 146.233C229.163 146.677 229.761 146.878 230.532 146.837C231.1 146.806 231.559 146.673 231.911 146.438C232.274 146.202 232.501 145.882 232.593 145.479L234.517 145.375C234.385 146.304 233.97 147.049 233.272 147.61C232.585 148.171 231.691 148.481 230.59 148.541ZM234.58 139.669L239.892 139.381L239.985 141.118L234.674 141.405L234.58 139.669ZM238.729 147.879L236.652 147.991L236.056 136.959L238.133 136.847L238.729 147.879ZM244.273 139.145L249.585 138.858L249.679 140.594L244.367 140.881L244.273 139.145ZM248.422 147.355L246.345 147.467L245.749 136.435L247.826 136.323L248.422 147.355ZM250.202 143.024C250.155 142.15 250.306 141.374 250.657 140.695C251.006 140.004 251.512 139.453 252.172 139.042C252.833 138.631 253.595 138.402 254.457 138.355C255.331 138.308 256.113 138.453 256.803 138.792C257.504 139.129 258.066 139.623 258.488 140.271C258.909 140.909 259.144 141.665 259.191 142.538C259.238 143.412 259.087 144.195 258.737 144.885C258.387 145.564 257.881 146.109 257.221 146.521C256.571 146.932 255.81 147.16 254.936 147.208C254.073 147.254 253.291 147.109 252.59 146.771C251.889 146.433 251.327 145.946 250.906 145.308C250.484 144.66 250.249 143.898 250.202 143.024ZM252.279 142.912C252.307 143.423 252.433 143.866 252.658 144.24C252.895 144.615 253.195 144.9 253.558 145.097C253.933 145.293 254.359 145.378 254.835 145.352C255.312 145.326 255.726 145.196 256.078 144.961C256.429 144.725 256.697 144.409 256.88 144.012C257.064 143.615 257.142 143.161 257.114 142.651C257.086 142.129 256.959 141.686 256.735 141.322C256.51 140.948 256.21 140.662 255.835 140.466C255.46 140.27 255.034 140.185 254.557 140.211C254.081 140.237 253.667 140.367 253.315 140.602C252.975 140.837 252.708 141.153 252.513 141.551C252.329 141.936 252.251 142.39 252.279 142.912ZM269.396 134.782L270.012 146.188L267.833 146.306L267.217 134.899L269.396 134.782ZM263.626 136.067L263.517 134.058L272.983 133.546L273.091 135.555L263.626 136.067ZM278.481 137.261L278.585 139.185L277.819 139.227C277.059 139.268 276.474 139.504 276.065 139.936C275.655 140.357 275.472 140.975 275.516 141.793L275.737 145.878L273.66 145.991L273.206 137.598L275.164 137.492L275.428 139.219L275.224 139.23C275.307 138.668 275.55 138.2 275.95 137.825C276.351 137.45 276.887 137.245 277.556 137.209C277.704 137.201 277.852 137.199 278 137.202C278.148 137.205 278.308 137.225 278.481 137.261ZM282.185 145.752C281.3 145.8 280.583 145.599 280.035 145.151C279.498 144.691 279.208 144.069 279.166 143.286C279.124 142.514 279.358 141.887 279.867 141.404C280.387 140.909 281.144 140.595 282.138 140.461L284.647 140.121L284.636 139.934C284.616 139.548 284.525 139.245 284.365 139.026C284.216 138.795 284.009 138.636 283.742 138.548C283.475 138.448 283.165 138.408 282.813 138.427C282.201 138.46 281.736 138.611 281.421 138.878C281.104 139.134 280.958 139.484 280.982 139.926L279.212 140.022C279.179 139.409 279.303 138.873 279.586 138.414C279.879 137.943 280.303 137.567 280.857 137.287C281.422 137.006 282.079 136.845 282.828 136.804C283.589 136.763 284.249 136.864 284.808 137.107C285.367 137.339 285.808 137.713 286.132 138.231C286.456 138.737 286.638 139.382 286.681 140.165L286.957 145.272L285.135 145.37L284.915 144.136C284.757 144.577 284.424 144.948 283.916 145.249C283.42 145.548 282.843 145.716 282.185 145.752ZM282.764 144.15C283.411 144.115 283.912 143.906 284.267 143.522C284.633 143.138 284.799 142.623 284.764 141.976L284.74 141.533L282.994 141.764C282.35 141.856 281.898 142.017 281.637 142.247C281.376 142.466 281.254 142.746 281.273 143.086C281.293 143.461 281.433 143.738 281.693 143.917C281.953 144.097 282.31 144.174 282.764 144.15ZM292.125 145.215C291.307 145.259 290.594 145.115 289.984 144.784C289.385 144.441 288.903 143.949 288.538 143.308C288.185 142.667 287.985 141.91 287.938 141.036C287.89 140.162 288.007 139.382 288.289 138.695C288.581 137.996 289.024 137.437 289.616 137.018C290.208 136.599 290.924 136.367 291.763 136.321C292.354 136.29 292.899 136.38 293.4 136.592C293.9 136.792 294.292 137.095 294.576 137.501L294.288 132.173L296.348 132.061L297.033 144.727L295.126 144.83L294.919 143.527C294.695 144.017 294.329 144.412 293.822 144.713C293.326 145.013 292.76 145.18 292.125 145.215ZM292.481 143.283C292.969 143.257 293.384 143.132 293.724 142.908C294.065 142.674 294.321 142.358 294.493 141.962C294.676 141.554 294.754 141.1 294.727 140.601C294.699 140.09 294.573 139.653 294.348 139.289C294.135 138.914 293.846 138.628 293.482 138.431C293.118 138.223 292.692 138.132 292.204 138.159C291.728 138.184 291.319 138.32 290.98 138.566C290.64 138.801 290.384 139.117 290.211 139.513C290.051 139.909 289.984 140.356 290.011 140.855C290.038 141.355 290.153 141.793 290.355 142.169C290.569 142.544 290.857 142.83 291.221 143.027C291.584 143.223 292.005 143.309 292.481 143.283ZM298.857 144.629L298.402 136.219L300.479 136.106L300.934 144.516L298.857 144.629ZM299.332 134.478C298.981 134.497 298.673 134.394 298.411 134.169C298.159 133.933 298.024 133.638 298.005 133.286C297.986 132.935 298.089 132.633 298.314 132.382C298.551 132.13 298.845 131.995 299.197 131.976C299.549 131.957 299.851 132.06 300.102 132.285C300.364 132.51 300.505 132.798 300.524 133.15C300.543 133.502 300.435 133.81 300.198 134.073C299.973 134.324 299.684 134.459 299.332 134.478ZM304.816 144.307L302.739 144.419L302.284 136.009L304.208 135.905L304.437 136.985C304.676 136.551 305.027 136.202 305.49 135.938C305.966 135.673 306.487 135.526 307.054 135.495C308.11 135.438 308.921 135.707 309.488 136.302C310.067 136.897 310.385 137.734 310.444 138.812L310.723 143.987L308.646 144.1L308.393 139.418C308.355 138.714 308.168 138.201 307.832 137.877C307.495 137.543 307.054 137.39 306.51 137.42C305.863 137.455 305.369 137.686 305.028 138.114C304.687 138.543 304.534 139.097 304.571 139.778L304.816 144.307ZM311.709 139.529C311.665 138.712 311.791 137.976 312.085 137.323C312.391 136.658 312.834 136.122 313.416 135.715C313.997 135.307 314.685 135.082 315.479 135.04C316.194 135.001 316.816 135.127 317.344 135.417C317.871 135.696 318.252 136.108 318.486 136.653L318.275 136.852L318.353 135.14L320.277 135.036L320.708 143.021C320.759 143.951 320.621 144.767 320.294 145.468C319.98 146.179 319.503 146.734 318.865 147.133C318.238 147.542 317.465 147.772 316.546 147.822C315.343 147.887 314.338 147.616 313.531 147.011C312.724 146.406 312.223 145.545 312.026 144.429L314.103 144.317C314.2 144.858 314.45 145.271 314.853 145.557C315.266 145.842 315.797 145.967 316.444 145.932C317.159 145.893 317.715 145.653 318.112 145.21C318.521 144.778 318.707 144.21 318.669 143.507L318.556 141.413L318.806 141.621C318.63 142.165 318.279 142.611 317.751 142.959C317.224 143.306 316.602 143.499 315.887 143.537C315.093 143.58 314.391 143.436 313.781 143.105C313.171 142.774 312.684 142.299 312.321 141.681C311.957 141.064 311.754 140.346 311.709 139.529ZM313.801 139.365C313.826 139.841 313.94 140.262 314.142 140.627C314.355 140.979 314.637 141.254 314.989 141.452C315.341 141.649 315.744 141.735 316.198 141.711C316.675 141.685 317.078 141.561 317.408 141.338C317.748 141.103 317.999 140.8 318.161 140.427C318.333 140.042 318.407 139.605 318.38 139.117C318.354 138.629 318.24 138.214 318.04 137.872C317.839 137.519 317.556 137.249 317.194 137.064C316.842 136.878 316.422 136.798 315.934 136.825C315.469 136.85 315.072 136.98 314.743 137.214C314.414 137.436 314.168 137.734 314.006 138.107C313.844 138.48 313.776 138.899 313.801 139.365ZM328.15 143.045L325.903 143.167L329.725 130.479L331.955 130.358L337.122 142.56L334.824 142.685L333.664 139.862L329.016 140.113L328.15 143.045ZM330.76 134.145L329.547 138.24L332.935 138.057L331.287 134.117C331.233 133.949 331.173 133.781 331.107 133.614C331.041 133.447 330.999 133.301 330.981 133.177C330.964 133.292 330.932 133.442 330.885 133.626C330.849 133.799 330.807 133.972 330.76 134.145ZM336.932 138.336C336.885 137.474 337.019 136.698 337.335 136.009C337.662 135.32 338.128 134.771 338.731 134.363C339.346 133.943 340.068 133.71 340.896 133.666C342.043 133.604 342.995 133.854 343.754 134.416C344.524 134.966 344.993 135.743 345.161 136.747L343.084 136.86C342.933 136.39 342.681 136.045 342.328 135.825C341.985 135.593 341.564 135.491 341.065 135.518C340.633 135.541 340.253 135.67 339.925 135.904C339.606 136.126 339.367 136.435 339.206 136.83C339.046 137.226 338.98 137.691 339.008 138.224C339.037 138.757 339.147 139.212 339.338 139.589C339.529 139.966 339.79 140.253 340.119 140.452C340.459 140.638 340.851 140.72 341.293 140.696C341.816 140.668 342.24 140.519 342.567 140.251C342.905 139.983 343.119 139.612 343.207 139.141L345.301 139.028C345.246 139.691 345.044 140.282 344.697 140.802C344.36 141.31 343.91 141.721 343.346 142.036C342.782 142.34 342.131 142.511 341.394 142.551C340.543 142.597 339.789 142.456 339.134 142.127C338.478 141.787 337.957 141.297 337.569 140.658C337.193 140.007 336.98 139.233 336.932 138.336ZM345.951 137.849C345.904 136.986 346.039 136.211 346.355 135.522C346.682 134.833 347.147 134.284 347.751 133.876C348.366 133.455 349.087 133.223 349.916 133.178C351.062 133.116 352.015 133.366 352.774 133.929C353.543 134.479 354.012 135.256 354.18 136.26L352.103 136.372C351.953 135.902 351.701 135.557 351.347 135.337C351.005 135.105 350.584 135.003 350.084 135.03C349.653 135.053 349.273 135.182 348.944 135.416C348.626 135.638 348.387 135.947 348.226 136.343C348.065 136.738 347.999 137.203 348.028 137.736C348.057 138.27 348.167 138.725 348.358 139.102C348.549 139.478 348.809 139.766 349.139 139.964C349.479 140.151 349.87 140.232 350.313 140.208C350.835 140.18 351.26 140.032 351.587 139.764C351.925 139.495 352.138 139.125 352.227 138.653L354.321 138.54C354.265 139.203 354.064 139.795 353.716 140.314C353.38 140.822 352.93 141.233 352.366 141.548C351.802 141.852 351.151 142.024 350.413 142.064C349.562 142.11 348.809 141.968 348.154 141.64C347.498 141.299 346.976 140.81 346.589 140.17C346.212 139.519 346 138.745 345.951 137.849ZM354.971 137.361C354.923 136.487 355.075 135.711 355.425 135.032C355.775 134.341 356.28 133.79 356.941 133.379C357.602 132.968 358.363 132.739 359.226 132.692C360.1 132.645 360.882 132.79 361.571 133.129C362.273 133.466 362.834 133.96 363.256 134.608C363.678 135.246 363.912 136.001 363.959 136.875C364.007 137.749 363.855 138.531 363.506 139.222C363.155 139.901 362.65 140.446 361.989 140.858C361.34 141.268 360.578 141.497 359.704 141.545C358.842 141.591 358.06 141.446 357.359 141.108C356.657 140.77 356.096 140.283 355.675 139.645C355.253 138.996 355.018 138.235 354.971 137.361ZM357.048 137.249C357.075 137.76 357.202 138.202 357.427 138.577C357.663 138.951 357.963 139.237 358.327 139.434C358.702 139.63 359.127 139.715 359.604 139.689C360.081 139.663 360.495 139.533 360.846 139.297C361.198 139.062 361.465 138.746 361.649 138.349C361.832 137.952 361.91 137.498 361.882 136.988C361.854 136.465 361.728 136.023 361.503 135.659C361.278 135.284 360.978 134.999 360.603 134.803C360.229 134.607 359.803 134.522 359.326 134.548C358.849 134.573 358.435 134.704 358.084 134.939C357.744 135.174 357.476 135.49 357.281 135.887C357.097 136.273 357.019 136.727 357.048 137.249ZM370.543 132.319L372.619 132.207L373.074 140.617L371.15 140.721L370.936 139.606C370.708 140.016 370.351 140.36 369.865 140.637C369.379 140.913 368.853 141.067 368.285 141.098C367.32 141.15 366.549 140.884 365.971 140.301C365.393 139.717 365.077 138.915 365.022 137.894L364.737 132.633L366.814 132.521L367.059 137.049C367.102 137.844 367.286 138.409 367.612 138.744C367.937 139.079 368.389 139.231 368.968 139.2C369.626 139.164 370.104 138.945 370.401 138.542C370.697 138.127 370.824 137.523 370.781 136.729L370.543 132.319ZM376.956 140.407L374.879 140.519L374.424 132.109L376.348 132.005L376.577 133.086C376.815 132.652 377.166 132.303 377.63 132.039C378.105 131.774 378.627 131.626 379.194 131.595C380.25 131.538 381.061 131.808 381.628 132.403C382.207 132.998 382.525 133.834 382.583 134.912L382.863 140.088L380.786 140.2L380.533 135.518C380.495 134.815 380.308 134.301 379.972 133.978C379.635 133.643 379.194 133.491 378.649 133.52C378.003 133.555 377.509 133.787 377.167 134.215C376.826 134.643 376.674 135.198 376.711 135.879L376.956 140.407ZM383.275 131.631L388.586 131.344L388.68 133.08L383.368 133.367L383.275 131.631ZM387.423 139.841L385.346 139.954L384.75 128.922L386.827 128.81L387.423 139.841Z" fill="#098D83"/>
<rect x="398.385" y="102.788" width="116.115" height="53.7073" rx="25.8598" transform="rotate(-2.97452 398.385 102.788)" fill="#065852" stroke="#05534E" stroke-width="2.3697"/>
<circle cx="485.491" cy="125.327" r="20.326" transform="rotate(-2.97452 485.491 125.327)" fill="#057068" stroke="#055852" stroke-width="1.74223"/>
<path d="M477 126L481.767 132.067L496.5 119.933" stroke="#84F3EB" stroke-width="2"/>
<path d="M114.5 215C114.5 198.155 128.155 184.5 145 184.5H704.5V994.5H114.5V215Z" fill="#04655E" stroke="#055852" stroke-width="3"/>
<rect x="162" y="495" width="231" height="228" rx="4.69367" stroke="#055852" stroke-width="2"/>
<rect x="172" y="505" width="211" height="208" rx="4.54" stroke="#055852" stroke-width="2"/>
<g filter="url(#filter0_d_839_4351)">
<circle cx="279.179" cy="609.333" r="57.419" fill="#056F67" stroke="url(#paint0_linear_839_4351)" stroke-width="3.82793"/>
<g clip-path="url(#clip1_839_4351)">
<path d="M273.22 633.878C270.788 633.878 268.322 633.536 265.868 632.82C258.896 630.783 253.105 626.057 249.565 619.509C246.027 612.96 245.16 605.377 247.126 598.155C247.645 596.254 249.549 595.151 251.384 595.685C253.219 596.222 254.284 598.194 253.768 600.095C252.301 605.481 252.948 611.135 255.588 616.017C258.227 620.898 262.544 624.423 267.744 625.943C269.572 626.477 271.413 626.731 273.226 626.731C282.052 626.731 290.186 620.69 292.697 611.467C293.215 609.566 295.119 608.463 296.954 608.996C298.789 609.533 299.854 611.506 299.339 613.406C295.97 625.777 285.065 633.878 273.226 633.878H273.22Z" fill="white"/>
<path d="M281.229 612.593C280.302 612.593 279.379 612.208 278.697 611.447C277.402 609.999 277.484 607.74 278.882 606.396L290.85 594.91L291.18 594.712C294.133 592.928 297.803 592.925 300.759 594.705L301.086 594.9L313.129 606.392C314.53 607.73 314.618 609.992 313.33 611.44C312.039 612.892 309.858 612.986 308.457 611.649L297.03 600.742C296.361 600.44 295.597 600.44 294.928 600.742L283.579 611.639C282.916 612.277 282.074 612.593 281.236 612.593H281.229Z" fill="white"/>
<path d="M307.245 607.493C305.341 607.493 303.795 605.892 303.795 603.92V596.096C303.795 594.123 305.341 592.522 307.245 592.522C309.149 592.522 310.695 594.123 310.695 596.096V603.92C310.695 605.892 309.149 607.493 307.245 607.493Z" fill="white"/>
</g>
<path opacity="0.03" d="M305.059 555.996C305.059 555.996 311.687 558.837 317.999 564.518C323.609 569.567 328.414 575.879 328.414 575.879L253.616 662.67C253.616 662.67 245.465 658.804 239.098 653.202C231.208 646.259 228.683 639.947 228.683 639.947L305.059 555.996Z" fill="#39F2E4"/>
</g>
<rect x="431" y="495" width="231" height="228" rx="4.69367" stroke="#055852" stroke-width="2"/>
<rect x="441" y="505" width="211" height="208" rx="4.54" stroke="#055852" stroke-width="2"/>
<g filter="url(#filter1_d_839_4351)">
<circle cx="548.179" cy="609.333" r="57.419" fill="#056F67" stroke="url(#paint1_linear_839_4351)" stroke-width="3.82793"/>
<g clip-path="url(#clip2_839_4351)">
<path d="M542.22 633.878C539.788 633.878 537.322 633.536 534.868 632.82C527.896 630.783 522.105 626.057 518.565 619.509C515.027 612.96 514.16 605.377 516.126 598.155C516.645 596.254 518.549 595.151 520.384 595.685C522.219 596.222 523.284 598.194 522.768 600.095C521.301 605.481 521.948 611.135 524.588 616.017C527.227 620.898 531.544 624.423 536.744 625.943C538.572 626.477 540.413 626.731 542.226 626.731C551.052 626.731 559.186 620.69 561.697 611.467C562.215 609.566 564.119 608.463 565.954 608.996C567.789 609.533 568.854 611.506 568.339 613.406C564.97 625.777 554.065 633.878 542.226 633.878H542.22Z" fill="white"/>
<path d="M550.229 612.593C549.302 612.593 548.379 612.208 547.697 611.447C546.402 609.999 546.484 607.74 547.882 606.396L559.85 594.91L560.18 594.712C563.133 592.928 566.803 592.925 569.759 594.705L570.086 594.9L582.129 606.392C583.53 607.73 583.618 609.992 582.33 611.44C581.039 612.892 578.858 612.986 577.457 611.649L566.03 600.742C565.361 600.44 564.597 600.44 563.928 600.742L552.579 611.639C551.916 612.277 551.074 612.593 550.236 612.593H550.229Z" fill="white"/>
<path d="M576.245 607.493C574.341 607.493 572.795 605.892 572.795 603.92V596.096C572.795 594.123 574.341 592.522 576.245 592.522C578.149 592.522 579.695 594.123 579.695 596.096V603.92C579.695 605.892 578.149 607.493 576.245 607.493Z" fill="white"/>
</g>
<path opacity="0.03" d="M574.059 555.996C574.059 555.996 580.687 558.837 586.999 564.518C592.609 569.567 597.414 575.879 597.414 575.879L522.616 662.67C522.616 662.67 514.465 658.804 508.098 653.202C500.208 646.259 497.683 639.947 497.683 639.947L574.059 555.996Z" fill="#39F2E4"/>
</g>
<rect x="162" y="236" width="519" height="235" rx="7" fill="#04655E" stroke="#055852" stroke-width="2"/>
<rect x="161.75" y="733.75" width="117.5" height="15.5" rx="7.75" fill="#07756D" stroke="#055852" stroke-width="1.5"/>
<rect x="161.75" y="754.75" width="154.008" height="23.582" rx="11.791" fill="#07756D" stroke="#055852" stroke-width="1.5"/>
<rect x="430.75" y="733.75" width="117.5" height="15.5" rx="7.43" fill="#07756D" stroke="#055852" stroke-width="1.5"/>
<rect x="430.75" y="754.75" width="154.008" height="23.582" rx="9.43" fill="#07756D" stroke="#055852" stroke-width="1.5"/>
<line x1="411" y1="495" x2="411" y2="840" stroke="#045F59" stroke-width="2"/>
<rect x="186.791" y="368.791" width="177.418" height="32.4176" rx="6.94334" fill="#07756D" stroke="#055852" stroke-width="1.58243"/>
<rect x="186.791" y="411.791" width="288.219" height="32.6846" rx="6.94334" fill="#07756D" stroke="#055852" stroke-width="1.58243"/>
</g>
<defs>
<filter id="filter0_d_839_4351" x="200.91" y="533.589" width="156.538" height="156.538" filterUnits="userSpaceOnUse" color-interpolation-filters="sRGB">
<feFlood flood-opacity="0" result="BackgroundImageFix"/>
<feColorMatrix in="SourceAlpha" type="matrix" values="0 0 0 0 0 0 0 0 0 0 0 0 0 0 0 0 0 0 127 0" result="hardAlpha"/>
<feOffset dy="2.52481"/>
<feGaussianBlur stdDeviation="9.46803"/>
<feComposite in2="hardAlpha" operator="out"/>
<feColorMatrix type="matrix" values="0 0 0 0 0 0 0 0 0 0 0 0 0 0 0 0 0 0 0.06 0"/>
<feBlend mode="normal" in2="BackgroundImageFix" result="effect1_dropShadow_839_4351"/>
<feBlend mode="normal" in="SourceGraphic" in2="effect1_dropShadow_839_4351" result="shape"/>
</filter>
<filter id="filter1_d_839_4351" x="469.91" y="533.589" width="156.538" height="156.538" filterUnits="userSpaceOnUse" color-interpolation-filters="sRGB">
<feFlood flood-opacity="0" result="BackgroundImageFix"/>
<feColorMatrix in="SourceAlpha" type="matrix" values="0 0 0 0 0 0 0 0 0 0 0 0 0 0 0 0 0 0 127 0" result="hardAlpha"/>
<feOffset dy="2.52481"/>
<feGaussianBlur stdDeviation="9.46803"/>
<feComposite in2="hardAlpha" operator="out"/>
<feColorMatrix type="matrix" values="0 0 0 0 0 0 0 0 0 0 0 0 0 0 0 0 0 0 0.06 0"/>
<feBlend mode="normal" in2="BackgroundImageFix" result="effect1_dropShadow_839_4351"/>
<feBlend mode="normal" in="SourceGraphic" in2="effect1_dropShadow_839_4351" result="shape"/>
</filter>
<linearGradient id="paint0_linear_839_4351" x1="238.985" y1="561.484" x2="347.124" y2="662.924" gradientUnits="userSpaceOnUse">
<stop stop-color="#099E92"/>
<stop offset="1" stop-color="#033834"/>
</linearGradient>
<linearGradient id="paint1_linear_839_4351" x1="507.985" y1="561.484" x2="616.124" y2="662.924" gradientUnits="userSpaceOnUse">
<stop stop-color="#099E92"/>
<stop offset="1" stop-color="#033834"/>
</linearGradient>
<clipPath id="clip0_839_4351">
<rect width="680" height="976" rx="24" fill="white"/>
</clipPath>
<clipPath id="clip1_839_4351">
<rect width="68.148" height="41.3566" fill="white" transform="translate(246.094 592.522)"/>
</clipPath>
<clipPath id="clip2_839_4351">
<rect width="68.148" height="41.3566" fill="white" transform="translate(515.094 592.522)"/>
</clipPath>
</defs>
</svg>
