<svg width="680" height="976" viewBox="0 0 680 976" fill="none" xmlns="http://www.w3.org/2000/svg">
<g clip-path="url(#clip0_815_3919)">
<rect width="680" height="976" rx="24" fill="#056F67"/>
<rect x="170.578" y="99.0957" width="364.278" height="143.814" rx="14.5" transform="rotate(-3.0713 170.578 99.0957)" fill="#04615B" stroke="#055852" stroke-width="3"/>
<path d="M207.509 147.195L202.089 131.657L204.955 131.526L207.836 139.73C207.986 140.155 208.129 140.609 208.266 141.092C208.403 141.561 208.544 142.138 208.691 142.822C208.788 142.112 208.883 141.525 208.977 141.06C209.085 140.58 209.193 140.114 209.302 139.663L211.42 131.23L214.459 131.09L217.275 139.297C217.425 139.736 217.569 140.198 217.706 140.681C217.858 141.164 218.013 141.732 218.173 142.387C218.283 141.648 218.385 141.046 218.479 140.581C218.586 140.101 218.689 139.664 218.786 139.271L220.945 130.793L223.747 130.665L219.685 146.637L217.013 146.759L213.125 135.449L210.203 147.072L207.509 147.195ZM227.304 146.568C226.183 146.62 225.279 146.359 224.59 145.786C223.915 145.198 223.555 144.408 223.51 143.417C223.465 142.44 223.767 141.648 224.416 141.043C225.078 140.422 226.039 140.033 227.299 139.874L230.477 139.469L230.466 139.232C230.443 138.744 230.332 138.36 230.132 138.081C229.946 137.787 229.685 137.584 229.348 137.469C229.011 137.341 228.62 137.287 228.175 137.307C227.399 137.343 226.81 137.528 226.408 137.863C226.005 138.184 225.817 138.625 225.842 139.185L223.601 139.288C223.565 138.512 223.729 137.835 224.091 137.257C224.467 136.664 225.007 136.193 225.711 135.844C226.429 135.494 227.262 135.298 228.21 135.254C229.173 135.21 230.007 135.344 230.712 135.658C231.417 135.956 231.972 136.435 232.376 137.093C232.78 137.737 233.005 138.554 233.05 139.546L233.346 146.011L231.041 146.116L230.775 144.552C230.57 145.109 230.145 145.574 229.5 145.949C228.869 146.324 228.137 146.53 227.304 146.568ZM228.053 144.547C228.872 144.51 229.508 144.25 229.961 143.769C230.429 143.287 230.644 142.636 230.606 141.817L230.58 141.257L228.369 141.531C227.553 141.64 226.979 141.84 226.647 142.128C226.314 142.403 226.157 142.755 226.177 143.186C226.199 143.661 226.373 144.012 226.7 144.242C227.028 144.472 227.479 144.574 228.053 144.547ZM238.149 145.79L235.541 145.91L234.806 129.877L237.414 129.757L238.149 145.79ZM243.127 145.562L240.519 145.682L239.784 129.648L242.391 129.529L243.127 145.562ZM250.229 145.517C249.18 145.565 248.235 145.371 247.395 144.935C246.568 144.483 245.905 143.851 245.407 143.039C244.909 142.212 244.635 141.253 244.584 140.161C244.534 139.055 244.712 138.068 245.118 137.2C245.525 136.332 246.119 135.642 246.902 135.131C247.684 134.606 248.592 134.32 249.627 134.272C250.704 134.223 251.642 134.41 252.438 134.834C253.235 135.244 253.86 135.842 254.313 136.627C254.781 137.412 255.041 138.365 255.092 139.485L255.129 140.283L245.992 140.723L245.958 139.04L252.445 138.743C252.411 138.01 252.147 137.432 251.653 137.008C251.173 136.584 250.537 136.39 249.747 136.426C249.129 136.454 248.611 136.608 248.192 136.886C247.787 137.164 247.489 137.566 247.297 138.093C247.105 138.62 247.026 139.257 247.061 140.005C247.113 141.154 247.398 142.012 247.913 142.579C248.443 143.145 249.196 143.405 250.173 143.36C250.891 143.327 251.474 143.164 251.921 142.87C252.383 142.575 252.674 142.173 252.795 141.664L255.23 141.552C255.053 142.726 254.521 143.665 253.631 144.368C252.757 145.07 251.622 145.453 250.229 145.517ZM255.369 134.333L262.092 134.025L262.193 136.223L255.47 136.531L255.369 134.333ZM260.533 144.764L257.904 144.885L257.264 130.92L259.893 130.8L260.533 144.764ZM267.639 133.77L274.363 133.462L274.463 135.66L267.74 135.968L267.639 133.77ZM272.803 144.202L270.174 144.322L269.534 130.358L272.163 130.237L272.803 144.202ZM275.1 138.741C275.05 137.634 275.249 136.653 275.7 135.798C276.149 134.928 276.794 134.236 277.635 133.722C278.475 133.209 279.441 132.927 280.533 132.877C281.639 132.826 282.627 133.018 283.496 133.453C284.38 133.888 285.085 134.518 285.613 135.343C286.139 136.154 286.428 137.113 286.479 138.219C286.53 139.325 286.33 140.313 285.881 141.183C285.43 142.039 284.785 142.724 283.945 143.237C283.119 143.75 282.153 144.032 281.047 144.083C279.955 144.133 278.967 143.941 278.083 143.506C277.199 143.071 276.494 142.449 275.967 141.638C275.44 140.813 275.151 139.847 275.1 138.741ZM277.73 138.62C277.759 139.267 277.914 139.828 278.195 140.305C278.491 140.781 278.867 141.145 279.325 141.397C279.798 141.649 280.335 141.761 280.939 141.734C281.542 141.706 282.068 141.545 282.515 141.251C282.962 140.957 283.304 140.56 283.54 140.06C283.776 139.559 283.879 138.986 283.85 138.339C283.819 137.679 283.664 137.117 283.384 136.655C283.103 136.178 282.726 135.814 282.254 135.562C281.782 135.31 281.244 135.198 280.64 135.226C280.037 135.253 279.512 135.414 279.065 135.708C278.632 136.002 278.29 136.399 278.039 136.9C277.803 137.386 277.699 137.959 277.73 138.62ZM295.478 143.162L292.634 143.292L297.601 127.278L300.424 127.149L306.835 142.641L303.926 142.775L302.488 139.191L296.604 139.461L295.478 143.162ZM298.872 131.928L297.295 137.097L301.583 136.9L299.54 131.897C299.473 131.684 299.398 131.472 299.316 131.26C299.235 131.047 299.183 130.863 299.161 130.705C299.139 130.85 299.098 131.039 299.036 131.272C298.989 131.491 298.934 131.709 298.872 131.928ZM306.638 137.295C306.588 136.203 306.766 135.223 307.172 134.355C307.593 133.486 308.188 132.796 308.956 132.286C309.738 131.761 310.654 131.474 311.703 131.426C313.154 131.359 314.356 131.686 315.311 132.405C316.279 133.109 316.864 134.098 317.066 135.37L314.437 135.49C314.252 134.894 313.936 134.455 313.491 134.173C313.06 133.876 312.529 133.742 311.897 133.771C311.351 133.796 310.868 133.955 310.45 134.248C310.045 134.525 309.739 134.914 309.532 135.413C309.324 135.912 309.236 136.499 309.267 137.174C309.298 137.849 309.432 138.426 309.67 138.905C309.908 139.383 310.234 139.75 310.649 140.004C311.078 140.244 311.572 140.351 312.132 140.325C312.793 140.295 313.332 140.112 313.748 139.776C314.179 139.44 314.453 138.973 314.57 138.378L317.22 138.256C317.144 139.095 316.883 139.841 316.438 140.495C316.006 141.134 315.432 141.65 314.716 142.042C313.999 142.421 313.174 142.631 312.24 142.674C311.162 142.724 310.211 142.537 309.385 142.114C308.559 141.677 307.904 141.052 307.42 140.239C306.951 139.411 306.69 138.43 306.638 137.295ZM318.055 136.771C318.005 135.679 318.183 134.699 318.59 133.831C319.011 132.963 319.605 132.273 320.374 131.763C321.156 131.237 322.071 130.951 323.12 130.903C324.571 130.836 325.774 131.162 326.728 131.882C327.696 132.586 328.281 133.574 328.484 134.846L325.855 134.967C325.669 134.37 325.354 133.931 324.909 133.649C324.478 133.353 323.946 133.219 323.314 133.248C322.768 133.273 322.286 133.431 321.867 133.724C321.462 134.002 321.156 134.39 320.949 134.889C320.741 135.388 320.653 135.975 320.684 136.651C320.715 137.326 320.849 137.903 321.087 138.381C321.325 138.86 321.652 139.226 322.066 139.481C322.495 139.72 322.989 139.827 323.55 139.802C324.21 139.771 324.749 139.588 325.166 139.253C325.597 138.916 325.87 138.45 325.987 137.854L328.638 137.733C328.561 138.571 328.3 139.318 327.855 139.971C327.423 140.61 326.85 141.126 326.133 141.519C325.416 141.897 324.591 142.108 323.657 142.151C322.58 142.2 321.628 142.013 320.803 141.591C319.976 141.153 319.321 140.528 318.838 139.715C318.368 138.888 318.107 137.906 318.055 136.771ZM329.472 136.248C329.422 135.141 329.621 134.16 330.072 133.305C330.521 132.435 331.166 131.743 332.006 131.229C332.847 130.716 333.813 130.434 334.905 130.384C336.011 130.333 336.999 130.525 337.868 130.961C338.752 131.395 339.457 132.025 339.985 132.85C340.511 133.661 340.8 134.62 340.851 135.726C340.902 136.832 340.702 137.82 340.252 138.69C339.802 139.546 339.157 140.231 338.317 140.744C337.491 141.257 336.525 141.539 335.418 141.59C334.327 141.64 333.339 141.448 332.455 141.013C331.571 140.578 330.866 139.956 330.339 139.145C329.812 138.32 329.523 137.354 329.472 136.248ZM332.101 136.127C332.131 136.774 332.286 137.335 332.567 137.812C332.863 138.288 333.239 138.652 333.697 138.905C334.17 139.156 334.707 139.269 335.311 139.241C335.914 139.213 336.439 139.052 336.887 138.758C337.334 138.464 337.676 138.067 337.912 137.567C338.148 137.066 338.251 136.493 338.222 135.847C338.191 135.186 338.036 134.624 337.756 134.162C337.475 133.685 337.098 133.321 336.626 133.069C336.154 132.817 335.616 132.705 335.012 132.733C334.409 132.76 333.884 132.921 333.436 133.215C333.004 133.509 332.662 133.906 332.411 134.407C332.174 134.893 332.071 135.466 332.101 136.127ZM349.227 130.029L351.857 129.909L352.345 140.555L349.909 140.666L349.65 139.253C349.357 139.77 348.902 140.201 348.284 140.546C347.667 140.891 346.999 141.08 346.28 141.113C345.059 141.169 344.086 140.825 343.361 140.081C342.636 139.337 342.243 138.318 342.184 137.025L341.879 130.366L344.508 130.246L344.771 135.978C344.817 136.984 345.044 137.7 345.452 138.128C345.861 138.556 346.431 138.753 347.164 138.719C347.997 138.681 348.604 138.408 348.984 137.901C349.363 137.38 349.529 136.617 349.483 135.611L349.227 130.029ZM357.258 140.329L354.629 140.45L354.141 129.804L356.576 129.692L356.855 131.062C357.161 130.515 357.609 130.077 358.198 129.748C358.802 129.418 359.463 129.236 360.182 129.203C361.518 129.142 362.542 129.491 363.253 130.25C363.979 131.009 364.373 132.07 364.436 133.435L364.736 139.986L362.107 140.107L361.835 134.181C361.794 133.29 361.563 132.638 361.141 132.226C360.718 131.799 360.162 131.601 359.473 131.633C358.654 131.67 358.026 131.958 357.59 132.497C357.154 133.035 356.956 133.735 356.995 134.597L357.258 140.329ZM365.344 129.29L372.068 128.982L372.169 131.18L365.445 131.489L365.344 129.29ZM370.509 139.722L367.88 139.842L367.239 125.878L369.868 125.757L370.509 139.722Z" fill="#098D83"/>
<rect x="398.385" y="100.788" width="116.115" height="53.7073" rx="25.8598" transform="rotate(-2.97452 398.385 100.788)" fill="#065852" stroke="#05534E" stroke-width="2.3697"/>
<circle cx="485.491" cy="123.327" r="20.326" transform="rotate(-2.97452 485.491 123.327)" fill="#057068" stroke="#055852" stroke-width="1.74223"/>
<path d="M477 123L481.767 129.067L496.5 116.933" stroke="#84F3EB" stroke-width="2"/>
<path d="M132.5 208C132.5 191.155 146.155 177.5 163 177.5H722.5V987.5H132.5V208Z" fill="#04655E" stroke="#055852" stroke-width="3"/>
<rect x="193.5" y="256.5" width="426" height="375" rx="13.8248" stroke="#055852" stroke-width="3"/>
<g filter="url(#filter0_d_815_3919)">
<circle cx="402.947" cy="442.838" r="116.172" fill="#056F67" stroke="url(#paint0_linear_815_3919)" stroke-width="7.7448"/>
<g clip-path="url(#clip1_815_3919)">
<path d="M398.016 493.255C392.903 493.255 387.718 492.561 382.559 491.108C367.9 486.973 355.726 477.381 348.281 464.091C340.843 450.8 339.02 435.408 343.155 420.75C344.245 416.892 348.248 414.653 352.106 415.736C355.964 416.826 358.203 420.829 357.12 424.687C354.035 435.62 355.396 447.094 360.945 457.003C366.493 466.911 375.57 474.065 386.502 477.15C390.347 478.233 394.218 478.749 398.029 478.749C416.585 478.749 433.687 466.488 438.965 447.768C440.055 443.91 444.058 441.671 447.916 442.754C451.774 443.844 454.013 447.847 452.93 451.705C445.848 476.813 422.92 493.255 398.029 493.255H398.016Z" fill="white"/>
<path d="M414.859 450.053C412.91 450.053 410.968 449.274 409.535 447.728C406.813 444.788 406.985 440.204 409.925 437.476L435.086 414.164L435.779 413.761C441.989 410.141 449.704 410.135 455.92 413.748L456.607 414.144L481.927 437.469C484.873 440.184 485.058 444.775 482.35 447.715C479.635 450.661 475.051 450.852 472.105 448.137L448.079 426.002C446.672 425.387 445.067 425.387 443.66 426.002L419.8 448.118C418.406 449.412 416.636 450.053 414.872 450.053H414.859Z" fill="white"/>
<path d="M469.554 439.704C465.551 439.704 462.301 436.454 462.301 432.451V416.57C462.301 412.567 465.551 409.317 469.554 409.317C473.557 409.317 476.807 412.567 476.807 416.57V432.451C476.807 436.454 473.557 439.704 469.554 439.704Z" fill="white"/>
</g>
<path opacity="0.03" d="M455.309 334.925C455.309 334.925 468.718 340.672 481.488 352.166C492.84 362.383 502.561 375.153 502.561 375.153L351.227 550.751C351.227 550.751 334.735 542.929 321.854 531.595C305.89 517.547 300.782 504.777 300.782 504.777L455.309 334.925Z" fill="#39F2E4"/>
</g>
<rect x="192.791" y="659.791" width="172.69" height="17.9987" rx="6.94334" fill="#07756D" stroke="#055852" stroke-width="1.58243"/>
<rect x="192.791" y="692.372" width="288.219" height="32.6846" rx="6.94334" fill="#07756D" stroke="#055852" stroke-width="1.58243"/>
<rect x="193.049" y="774.049" width="130.56" height="56.4552" rx="28.2276" fill="#056F67"/>
<rect x="193.049" y="774.049" width="130.56" height="56.4552" rx="28.2276" stroke="#055852" stroke-width="2.09701"/>
<path d="M229.284 796.131V809.776H227.435V796.131H229.284ZM232.795 803.756H228.775V802.151H232.644C233.411 802.151 234.003 801.956 234.418 801.566C234.833 801.176 235.041 800.623 235.041 799.905C235.041 799.226 234.82 798.704 234.38 798.339C233.952 797.962 233.336 797.773 232.53 797.773H228.454V796.131H232.644C233.977 796.131 235.022 796.452 235.777 797.093C236.544 797.735 236.928 798.616 236.928 799.736C236.928 800.579 236.72 801.283 236.305 801.849C235.902 802.403 235.305 802.806 234.512 803.057V802.812C235.393 803.026 236.053 803.416 236.494 803.982C236.947 804.536 237.173 805.253 237.173 806.134C237.173 806.889 236.997 807.543 236.645 808.096C236.305 808.637 235.808 809.053 235.154 809.342C234.5 809.631 233.726 809.776 232.832 809.776H228.454V808.134H232.795C233.587 808.134 234.198 807.939 234.625 807.549C235.053 807.159 235.267 806.612 235.267 805.907C235.267 805.228 235.047 804.699 234.606 804.322C234.179 803.944 233.575 803.756 232.795 803.756ZM245.188 800.547H246.943V809.776H245.358L245.169 808.38C244.905 808.858 244.49 809.248 243.924 809.55C243.357 809.852 242.735 810.003 242.055 810.003C240.986 810.003 240.155 809.669 239.564 809.002C238.985 808.323 238.696 807.417 238.696 806.285V800.547H240.47V805.7C240.47 806.681 240.665 807.386 241.055 807.813C241.458 808.229 241.999 808.436 242.678 808.436C243.496 808.436 244.119 808.184 244.546 807.681C244.974 807.165 245.188 806.41 245.188 805.416V800.547ZM249.876 800.547L253.122 809.531L252.027 811.041L248.007 800.547H249.876ZM248.253 813.909V812.456H249.442C249.731 812.456 249.995 812.425 250.234 812.362C250.474 812.311 250.694 812.192 250.895 812.003C251.096 811.827 251.266 811.544 251.405 811.154L255.292 800.547H257.123L252.763 811.852C252.449 812.645 252.053 813.217 251.574 813.57C251.096 813.922 250.505 814.098 249.8 814.098C249.511 814.098 249.24 814.079 248.989 814.041C248.737 814.016 248.492 813.972 248.253 813.909Z" fill="white"/>
<path d="M288.855 802.647L284.136 807.365C284.038 807.464 283.904 807.519 283.765 807.519C283.626 807.519 283.493 807.464 283.394 807.365C283.296 807.267 283.241 807.133 283.241 806.994C283.241 806.855 283.296 806.722 283.394 806.623L287.218 802.8H276.95C276.811 802.8 276.678 802.745 276.579 802.647C276.481 802.548 276.426 802.415 276.426 802.276C276.426 802.137 276.481 802.004 276.579 801.905C276.678 801.807 276.811 801.752 276.95 801.752H287.218L283.394 797.929C283.296 797.83 283.241 797.697 283.241 797.558C283.241 797.419 283.296 797.285 283.394 797.187C283.493 797.089 283.626 797.033 283.765 797.033C283.904 797.033 284.038 797.089 284.136 797.187L288.855 801.905C288.903 801.954 288.942 802.012 288.968 802.075C288.995 802.139 289.008 802.207 289.008 802.276C289.008 802.345 288.995 802.413 288.968 802.477C288.942 802.54 288.903 802.598 288.855 802.647Z" fill="white"/>
<rect x="338.049" y="774.049" width="127.56" height="56.4552" rx="28.2276" fill="#056F67"/>
<rect x="338.049" y="774.049" width="127.56" height="56.4552" rx="28.2276" stroke="#055852" stroke-width="2.09701"/>
<path d="M371.427 799.811C371.427 799.031 371.622 798.345 372.012 797.754C372.402 797.163 372.95 796.703 373.654 796.376C374.372 796.049 375.196 795.885 376.127 795.885C376.995 795.885 377.75 796.043 378.392 796.357C379.046 796.659 379.555 797.093 379.92 797.66C380.298 798.226 380.512 798.905 380.562 799.698H378.694C378.643 799.018 378.392 798.49 377.939 798.113C377.486 797.735 376.875 797.546 376.108 797.546C375.252 797.546 374.567 797.748 374.051 798.15C373.535 798.54 373.277 799.075 373.277 799.754C373.277 800.308 373.434 800.755 373.749 801.094C374.063 801.422 374.541 801.661 375.183 801.812L377.429 802.34C378.549 802.592 379.386 803.026 379.939 803.642C380.505 804.246 380.788 805.026 380.788 805.983C380.788 806.8 380.587 807.511 380.184 808.115C379.794 808.719 379.235 809.185 378.505 809.512C377.788 809.839 376.945 810.003 375.976 810.003C375.057 810.003 374.246 809.852 373.541 809.55C372.849 809.235 372.302 808.795 371.899 808.229C371.509 807.65 371.289 806.977 371.239 806.209H373.126C373.139 806.863 373.403 807.386 373.919 807.776C374.434 808.153 375.12 808.342 375.976 808.342C376.882 808.342 377.599 808.14 378.127 807.738C378.668 807.335 378.939 806.8 378.939 806.134C378.939 805.593 378.788 805.152 378.486 804.812C378.184 804.473 377.706 804.227 377.052 804.076L374.806 803.567C373.698 803.315 372.855 802.875 372.277 802.246C371.71 801.604 371.427 800.793 371.427 799.811ZM386.415 810.003C385.522 810.003 384.729 809.801 384.037 809.399C383.345 808.983 382.804 808.417 382.414 807.7C382.024 806.97 381.829 806.127 381.829 805.171C381.829 804.202 382.018 803.353 382.395 802.623C382.786 801.893 383.314 801.321 383.981 800.906C384.66 800.491 385.447 800.283 386.34 800.283C387.221 800.283 387.982 800.472 388.624 800.849C389.278 801.227 389.781 801.755 390.133 802.434C390.498 803.114 390.681 803.913 390.681 804.831V805.492L382.773 805.511L382.811 804.322H388.907C388.907 803.554 388.674 802.938 388.208 802.472C387.743 802.007 387.12 801.774 386.34 801.774C385.749 801.774 385.239 801.906 384.811 802.17C384.396 802.422 384.075 802.799 383.849 803.303C383.635 803.793 383.528 804.385 383.528 805.077C383.528 806.184 383.779 807.04 384.283 807.643C384.786 808.235 385.51 808.53 386.453 808.53C387.145 808.53 387.711 808.392 388.152 808.115C388.592 807.838 388.888 807.436 389.039 806.907H390.7C390.473 807.889 389.989 808.65 389.246 809.191C388.504 809.732 387.56 810.003 386.415 810.003ZM394.097 809.776H392.323V795.885H394.097V809.776ZM398.143 809.776H396.369V795.885H398.143V809.776Z" fill="white"/>
<path d="M430.855 802.647L426.136 807.365C426.038 807.464 425.904 807.519 425.765 807.519C425.626 807.519 425.493 807.464 425.394 807.365C425.296 807.267 425.241 807.133 425.241 806.994C425.241 806.855 425.296 806.722 425.394 806.623L429.218 802.8H418.95C418.811 802.8 418.678 802.745 418.579 802.647C418.481 802.548 418.426 802.415 418.426 802.276C418.426 802.137 418.481 802.004 418.579 801.905C418.678 801.807 418.811 801.752 418.95 801.752H429.218L425.394 797.929C425.296 797.83 425.241 797.697 425.241 797.558C425.241 797.419 425.296 797.285 425.394 797.187C425.493 797.089 425.626 797.033 425.765 797.033C425.904 797.033 426.038 797.089 426.136 797.187L430.855 801.905C430.903 801.954 430.942 802.012 430.968 802.075C430.995 802.139 431.008 802.207 431.008 802.276C431.008 802.345 430.995 802.413 430.968 802.477C430.942 802.54 430.903 802.598 430.855 802.647Z" fill="white"/>
<rect x="483.049" y="774.049" width="136.56" height="56.4552" rx="28.2276" fill="#056F67"/>
<rect x="483.049" y="774.049" width="136.56" height="56.4552" rx="28.2276" stroke="#055852" stroke-width="2.09701"/>
<path d="M519.165 809.776H517.315V796.131H522.467C523.927 796.131 525.066 796.496 525.883 797.225C526.714 797.943 527.129 798.943 527.129 800.226C527.129 801.17 526.896 801.969 526.431 802.623C525.978 803.277 525.33 803.743 524.487 804.02L527.261 809.776H525.204L522.656 804.378H519.165V809.776ZM519.165 797.792V802.736H522.486C523.342 802.736 524.002 802.516 524.468 802.076C524.946 801.636 525.185 801.025 525.185 800.245C525.185 799.453 524.94 798.849 524.449 798.433C523.971 798.006 523.31 797.792 522.467 797.792H519.165ZM532.303 810.003C531.41 810.003 530.617 809.801 529.925 809.399C529.233 808.983 528.692 808.417 528.302 807.7C527.912 806.97 527.717 806.127 527.717 805.171C527.717 804.202 527.906 803.353 528.283 802.623C528.673 801.893 529.202 801.321 529.868 800.906C530.548 800.491 531.334 800.283 532.228 800.283C533.108 800.283 533.869 800.472 534.511 800.849C535.165 801.227 535.669 801.755 536.021 802.434C536.386 803.114 536.568 803.913 536.568 804.831V805.492L528.66 805.511L528.698 804.322H534.794C534.794 803.554 534.561 802.938 534.096 802.472C533.63 802.007 533.008 801.774 532.228 801.774C531.636 801.774 531.127 801.906 530.699 802.17C530.284 802.422 529.963 802.799 529.736 803.303C529.522 803.793 529.415 804.385 529.415 805.077C529.415 806.184 529.667 807.04 530.17 807.643C530.674 808.235 531.397 808.53 532.341 808.53C533.033 808.53 533.599 808.392 534.039 808.115C534.48 807.838 534.775 807.436 534.926 806.907H536.587C536.361 807.889 535.876 808.65 535.134 809.191C534.392 809.732 533.448 810.003 532.303 810.003ZM539.946 809.776H538.172V800.547H539.777L539.965 801.963C540.255 801.434 540.67 801.025 541.211 800.736C541.765 800.434 542.369 800.283 543.023 800.283C544.231 800.283 545.124 800.629 545.703 801.321C546.282 802.013 546.571 802.95 546.571 804.133V809.776H544.797V804.529C544.797 803.598 544.596 802.931 544.193 802.529C543.79 802.114 543.249 801.906 542.57 801.906C541.739 801.906 541.091 802.177 540.626 802.718C540.173 803.259 539.946 803.982 539.946 804.888V809.776ZM547.669 800.547H553.067V802.038H547.669V800.547ZM551.255 809.776H549.481V797.66H551.255V809.776Z" fill="white"/>
<path d="M584.855 802.647L580.136 807.365C580.038 807.464 579.904 807.519 579.765 807.519C579.626 807.519 579.493 807.464 579.394 807.365C579.296 807.267 579.241 807.133 579.241 806.994C579.241 806.855 579.296 806.722 579.394 806.623L583.218 802.8H572.95C572.811 802.8 572.678 802.745 572.579 802.647C572.481 802.548 572.426 802.415 572.426 802.276C572.426 802.137 572.481 802.004 572.579 801.905C572.678 801.807 572.811 801.752 572.95 801.752H583.218L579.394 797.929C579.296 797.83 579.241 797.697 579.241 797.558C579.241 797.419 579.296 797.285 579.394 797.187C579.493 797.089 579.626 797.033 579.765 797.033C579.904 797.033 580.038 797.089 580.136 797.187L584.855 801.905C584.903 801.954 584.942 802.012 584.968 802.075C584.995 802.139 585.008 802.207 585.008 802.276C585.008 802.345 584.995 802.413 584.968 802.477C584.942 802.54 584.903 802.598 584.855 802.647Z" fill="white"/>
</g>
<defs>
<filter id="filter0_d_815_3919" x="244.59" y="289.59" width="316.712" height="316.713" filterUnits="userSpaceOnUse" color-interpolation-filters="sRGB">
<feFlood flood-opacity="0" result="BackgroundImageFix"/>
<feColorMatrix in="SourceAlpha" type="matrix" values="0 0 0 0 0 0 0 0 0 0 0 0 0 0 0 0 0 0 127 0" result="hardAlpha"/>
<feOffset dy="5.10827"/>
<feGaussianBlur stdDeviation="19.156"/>
<feComposite in2="hardAlpha" operator="out"/>
<feColorMatrix type="matrix" values="0 0 0 0 0 0 0 0 0 0 0 0 0 0 0 0 0 0 0.06 0"/>
<feBlend mode="normal" in2="BackgroundImageFix" result="effect1_dropShadow_815_3919"/>
<feBlend mode="normal" in="SourceGraphic" in2="effect1_dropShadow_815_3919" result="shape"/>
</filter>
<linearGradient id="paint0_linear_815_3919" x1="321.626" y1="346.028" x2="540.417" y2="551.265" gradientUnits="userSpaceOnUse">
<stop stop-color="#099E92"/>
<stop offset="1" stop-color="#033834"/>
</linearGradient>
<clipPath id="clip0_815_3919">
<rect width="680" height="976" rx="24" fill="white"/>
</clipPath>
<clipPath id="clip1_815_3919">
<rect width="143.279" height="83.9393" fill="white" transform="translate(340.988 409.317)"/>
</clipPath>
</defs>
</svg>
