<svg width="680" height="976" viewBox="0 0 680 976" fill="none" xmlns="http://www.w3.org/2000/svg">
<g clip-path="url(#clip0_843_4724)">
<rect width="680" height="976" rx="24" fill="#056F67"/>
<rect x="200.543" y="176.685" width="364.278" height="143.814" rx="14.5" transform="rotate(-3.0713 200.543 176.685)" fill="#04615B" stroke="#055852" stroke-width="3"/>
<path d="M237.474 224.784L232.054 209.246L234.92 209.115L237.801 217.319C237.95 217.744 238.094 218.198 238.231 218.681C238.368 219.15 238.509 219.726 238.656 220.411C238.753 219.701 238.848 219.113 238.942 218.648C239.05 218.168 239.158 217.703 239.267 217.251L241.385 208.819L244.424 208.679L247.24 216.886C247.39 217.325 247.533 217.787 247.671 218.27C247.823 218.752 247.978 219.321 248.138 219.976C248.248 219.237 248.35 218.635 248.444 218.17C248.551 217.69 248.654 217.253 248.751 216.86L250.91 208.382L253.712 208.253L249.65 224.226L246.978 224.348L243.09 213.038L240.168 224.661L237.474 224.784ZM257.269 224.157C256.148 224.209 255.243 223.948 254.555 223.375C253.88 222.787 253.52 221.997 253.474 221.006C253.43 220.029 253.732 219.237 254.381 218.632C255.043 218.011 256.004 217.621 257.264 217.463L260.442 217.058L260.431 216.821C260.408 216.333 260.297 215.949 260.097 215.67C259.911 215.376 259.65 215.172 259.313 215.058C258.976 214.93 258.585 214.876 258.14 214.896C257.364 214.932 256.775 215.117 256.373 215.452C255.97 215.773 255.781 216.214 255.807 216.774L253.566 216.877C253.53 216.101 253.694 215.424 254.056 214.846C254.432 214.253 254.972 213.782 255.676 213.433C256.394 213.083 257.227 212.886 258.175 212.843C259.138 212.799 259.972 212.933 260.677 213.246C261.382 213.545 261.936 214.024 262.341 214.682C262.745 215.326 262.969 216.143 263.015 217.134L263.311 223.599L261.005 223.705L260.739 222.141C260.535 222.697 260.11 223.163 259.465 223.538C258.834 223.913 258.102 224.119 257.269 224.157ZM258.018 222.136C258.837 222.099 259.473 221.839 259.926 221.358C260.393 220.875 260.608 220.225 260.571 219.406L260.545 218.846L258.333 219.12C257.518 219.229 256.944 219.428 256.612 219.717C256.279 219.992 256.122 220.344 256.142 220.775C256.163 221.249 256.338 221.601 256.665 221.831C256.993 222.061 257.443 222.162 258.018 222.136ZM268.114 223.379L265.506 223.499L264.771 207.466L267.379 207.346L268.114 223.379ZM273.091 223.151L270.484 223.271L269.749 207.237L272.356 207.118L273.091 223.151ZM280.194 223.106C279.145 223.154 278.2 222.96 277.36 222.523C276.533 222.072 275.87 221.44 275.372 220.628C274.874 219.801 274.599 218.842 274.549 217.75C274.499 216.644 274.676 215.657 275.083 214.789C275.489 213.921 276.084 213.231 276.867 212.72C277.649 212.195 278.557 211.908 279.592 211.861C280.669 211.812 281.606 211.999 282.403 212.423C283.2 212.833 283.824 213.431 284.278 214.216C284.746 215.001 285.005 215.953 285.057 217.074L285.093 217.871L275.957 218.312L275.923 216.629L282.41 216.332C282.376 215.599 282.112 215.021 281.618 214.597C281.137 214.173 280.502 213.979 279.712 214.015C279.094 214.043 278.576 214.197 278.157 214.475C277.752 214.753 277.454 215.155 277.262 215.682C277.07 216.209 276.991 216.846 277.026 217.593C277.078 218.743 277.362 219.601 277.878 220.167C278.408 220.733 279.161 220.994 280.138 220.949C280.856 220.916 281.439 220.753 281.886 220.459C282.348 220.164 282.639 219.762 282.76 219.253L285.195 219.141C285.018 220.315 284.485 221.254 283.596 221.957C282.721 222.659 281.587 223.042 280.194 223.106ZM285.334 211.922L292.057 211.613L292.158 213.811L285.434 214.12L285.334 211.922ZM290.498 222.353L287.869 222.474L287.229 208.509L289.858 208.389L290.498 222.353ZM303.953 221.736L297.283 206.256L300.214 206.121L304.078 215.036C304.272 215.488 304.459 215.961 304.64 216.457C304.821 216.952 305.012 217.512 305.214 218.137C305.369 217.438 305.521 216.834 305.67 216.323C305.82 215.813 305.957 215.353 306.082 214.944L309.071 205.715L311.937 205.584L306.798 221.606L303.953 221.736ZM316.772 221.429C315.723 221.477 314.778 221.283 313.938 220.846C313.111 220.395 312.448 219.763 311.95 218.951C311.452 218.124 311.177 217.165 311.127 216.073C311.076 214.967 311.254 213.98 311.661 213.112C312.067 212.244 312.662 211.554 313.445 211.043C314.227 210.518 315.135 210.231 316.17 210.184C317.247 210.134 318.184 210.322 318.981 210.746C319.777 211.156 320.402 211.753 320.856 212.539C321.324 213.324 321.583 214.276 321.635 215.397L321.671 216.194L312.535 216.635L312.501 214.952L318.988 214.655C318.954 213.922 318.69 213.344 318.196 212.92C317.715 212.496 317.08 212.302 316.29 212.338C315.672 212.366 315.154 212.52 314.735 212.798C314.33 213.076 314.032 213.478 313.84 214.005C313.648 214.532 313.569 215.169 313.603 215.916C313.656 217.066 313.94 217.924 314.456 218.49C314.986 219.056 315.739 219.317 316.716 219.272C317.434 219.239 318.017 219.076 318.464 218.782C318.926 218.487 319.217 218.085 319.338 217.575L321.773 217.464C321.596 218.638 321.063 219.577 320.174 220.28C319.299 220.982 318.165 221.365 316.772 221.429ZM329.751 209.842L329.863 212.277L328.893 212.322C327.931 212.366 327.188 212.659 326.666 213.201C326.143 213.729 325.905 214.51 325.953 215.545L326.19 220.717L323.561 220.837L323.074 210.213L325.552 210.099L325.868 212.287L325.61 212.299C325.721 211.589 326.032 210.999 326.544 210.529C327.055 210.059 327.734 209.805 328.582 209.766C328.768 209.757 328.956 209.756 329.143 209.762C329.33 209.768 329.533 209.794 329.751 209.842ZM331.59 220.469L331.102 209.823L333.731 209.703L334.219 220.348L331.59 220.469ZM332.297 207.63C331.852 207.651 331.464 207.517 331.134 207.23C330.818 206.928 330.65 206.554 330.629 206.109C330.609 205.663 330.743 205.283 331.03 204.968C331.333 204.651 331.706 204.483 332.152 204.463C332.597 204.442 332.978 204.576 333.293 204.864C333.623 205.151 333.798 205.517 333.819 205.963C333.839 206.408 333.698 206.796 333.397 207.127C333.109 207.442 332.742 207.61 332.297 207.63ZM334.96 209.646L346.08 209.136L346.181 211.335L335.061 211.844L334.96 209.646ZM341.27 204.066L341.372 206.307C341.214 206.315 341.056 206.322 340.898 206.329C340.754 206.336 340.604 206.343 340.446 206.35C339.857 206.377 339.469 206.553 339.282 206.878C339.095 207.204 339.014 207.632 339.039 208.164L339.586 220.102L336.979 220.222L336.431 208.283C336.386 207.306 336.501 206.516 336.776 205.913C337.064 205.296 337.475 204.838 338.009 204.54C338.556 204.227 339.189 204.054 339.907 204.021C340.122 204.011 340.345 204.008 340.576 204.012C340.806 204.015 341.038 204.034 341.27 204.066ZM343.939 219.903L343.451 209.257L346.08 209.136L346.568 219.782L343.939 219.903ZM344.666 207.02C344.22 207.041 343.84 206.907 343.524 206.619C343.209 206.331 343.041 205.964 343.021 205.519C343.001 205.088 343.135 204.715 343.423 204.399C343.711 204.084 344.077 203.916 344.523 203.895C344.954 203.876 345.327 204.01 345.642 204.298C345.958 204.585 346.126 204.945 346.145 205.376C346.166 205.821 346.032 206.202 345.744 206.517C345.456 206.833 345.097 207 344.666 207.02ZM347.978 214.362C347.928 213.27 348.106 212.29 348.512 211.422C348.933 210.553 349.528 209.864 350.296 209.353C351.079 208.828 351.994 208.541 353.043 208.493C354.494 208.427 355.696 208.753 356.651 209.472C357.619 210.177 358.204 211.165 358.406 212.437L355.777 212.557C355.592 211.961 355.276 211.522 354.832 211.24C354.4 210.943 353.869 210.809 353.237 210.838C352.691 210.863 352.208 211.022 351.79 211.315C351.385 211.593 351.079 211.981 350.872 212.48C350.664 212.979 350.576 213.566 350.607 214.241C350.638 214.917 350.772 215.494 351.01 215.972C351.248 216.451 351.574 216.817 351.989 217.072C352.418 217.311 352.912 217.418 353.472 217.392C354.133 217.362 354.672 217.179 355.088 216.843C355.519 216.507 355.793 216.041 355.91 215.445L358.56 215.324C358.484 216.162 358.223 216.908 357.778 217.562C357.346 218.201 356.772 218.717 356.056 219.11C355.339 219.488 354.514 219.699 353.58 219.741C352.503 219.791 351.551 219.604 350.725 219.181C349.899 218.744 349.244 218.119 348.761 217.306C348.291 216.478 348.03 215.497 347.978 214.362ZM363.446 219.289C362.325 219.34 361.421 219.08 360.732 218.507C360.057 217.918 359.697 217.129 359.652 216.137C359.607 215.16 359.909 214.369 360.558 213.764C361.22 213.143 362.182 212.753 363.441 212.595L366.619 212.19L366.608 211.953C366.585 211.464 366.474 211.081 366.274 210.802C366.088 210.508 365.827 210.304 365.49 210.19C365.153 210.062 364.762 210.008 364.317 210.028C363.541 210.064 362.952 210.249 362.55 210.584C362.147 210.905 361.959 211.345 361.984 211.906L359.743 212.008C359.708 211.233 359.871 210.556 360.233 209.978C360.609 209.385 361.149 208.913 361.853 208.564C362.571 208.215 363.404 208.018 364.352 207.975C365.315 207.931 366.149 208.065 366.854 208.378C367.559 208.677 368.114 209.156 368.518 209.814C368.922 210.457 369.147 211.275 369.192 212.266L369.489 218.731L367.183 218.837L366.917 217.273C366.712 217.829 366.287 218.295 365.642 218.67C365.011 219.045 364.279 219.251 363.446 219.289ZM364.195 217.268C365.014 217.23 365.65 216.971 366.103 216.489C366.571 216.007 366.786 215.357 366.748 214.538L366.722 213.978L364.511 214.252C363.695 214.361 363.121 214.56 362.789 214.849C362.456 215.123 362.299 215.476 362.319 215.907C362.341 216.381 362.515 216.733 362.842 216.963C363.17 217.193 363.621 217.294 364.195 217.268ZM369.949 208.042L376.673 207.734L376.773 209.932L370.05 210.24L369.949 208.042ZM375.113 218.473L372.484 218.594L371.844 204.63L374.473 204.509L375.113 218.473ZM378.386 218.323L377.898 207.678L380.527 207.557L381.015 218.203L378.386 218.323ZM379.093 205.485C378.647 205.505 378.26 205.372 377.93 205.085C377.614 204.782 377.445 204.409 377.425 203.963C377.405 203.518 377.538 203.137 377.826 202.822C378.128 202.506 378.502 202.337 378.948 202.317C379.393 202.297 379.773 202.43 380.089 202.718C380.419 203.005 380.594 203.372 380.614 203.817C380.635 204.262 380.494 204.65 380.193 204.981C379.905 205.297 379.538 205.464 379.093 205.485ZM382.43 212.782C382.379 211.676 382.579 210.695 383.029 209.839C383.479 208.969 384.124 208.278 384.964 207.764C385.805 207.25 386.771 206.968 387.862 206.918C388.969 206.868 389.957 207.06 390.826 207.495C391.71 207.93 392.415 208.56 392.942 209.385C393.469 210.196 393.758 211.154 393.809 212.261C393.859 213.367 393.66 214.355 393.21 215.225C392.76 216.081 392.115 216.765 391.274 217.279C390.449 217.792 389.482 218.074 388.376 218.124C387.284 218.175 386.297 217.982 385.413 217.548C384.529 217.113 383.824 216.49 383.297 215.68C382.77 214.854 382.481 213.889 382.43 212.782ZM385.059 212.662C385.089 213.308 385.244 213.87 385.525 214.346C385.821 214.822 386.197 215.187 386.655 215.439C387.127 215.691 387.665 215.803 388.269 215.776C388.872 215.748 389.397 215.587 389.844 215.293C390.292 214.999 390.633 214.602 390.87 214.101C391.106 213.601 391.209 213.028 391.179 212.381C391.149 211.72 390.994 211.159 390.714 210.696C390.433 210.22 390.056 209.856 389.584 209.604C389.111 209.352 388.574 209.24 387.97 209.267C387.367 209.295 386.841 209.456 386.394 209.75C385.961 210.043 385.62 210.441 385.369 210.942C385.132 211.427 385.029 212.001 385.059 212.662ZM398.336 217.409L395.707 217.529L395.218 206.883L397.654 206.772L397.932 208.141C398.238 207.594 398.686 207.156 399.276 206.827C399.88 206.497 400.541 206.316 401.259 206.283C402.595 206.221 403.619 206.57 404.331 207.33C405.056 208.088 405.451 209.15 405.513 210.515L405.814 217.066L403.184 217.186L402.913 211.26C402.872 210.369 402.64 209.718 402.218 209.305C401.796 208.878 401.24 208.681 400.55 208.712C399.731 208.75 399.104 209.038 398.668 209.576C398.232 210.114 398.033 210.814 398.073 211.676L398.336 217.409Z" fill="#098D83"/>
<rect x="428.35" y="178.377" width="116.115" height="53.7073" rx="25.8598" transform="rotate(-2.97452 428.35 178.377)" fill="#065852" stroke="#05534E" stroke-width="2.3697"/>
<circle cx="515.456" cy="200.916" r="20.326" transform="rotate(-2.97452 515.456 200.916)" fill="#057068" stroke="#055852" stroke-width="1.74223"/>
<path d="M134.5 279C134.5 262.155 148.155 248.5 165 248.5H678.5V998.5H134.5V279Z" fill="#04655E" stroke="#055852" stroke-width="3"/>
<rect x="315.553" y="466.786" width="172.69" height="17.9987" rx="6.94334" fill="#07756D" stroke="#055852" stroke-width="1.58243"/>
<rect x="257.791" y="419.791" width="288.219" height="32.6846" rx="6.94334" fill="#07756D" stroke="#055852" stroke-width="1.58243"/>
<rect x="186.808" y="647.808" width="176.384" height="18.3837" rx="7.09186" fill="#07756D" stroke="#055852" stroke-width="1.61628"/>
<rect x="186.808" y="676.808" width="456.384" height="52.3837" rx="12.0919" fill="#07756D" stroke="#055852" stroke-width="1.61628"/>
<rect x="186.808" y="762.808" width="176.384" height="18.3837" rx="7.09186" fill="#07756D" stroke="#055852" stroke-width="1.61628"/>
<rect x="186.808" y="791.808" width="456.384" height="52.3837" rx="12.0919" fill="#07756D" stroke="#055852" stroke-width="1.61628"/>
<circle cx="217.141" cy="565.859" r="38.4917" fill="#057068" stroke="#055852" stroke-width="3.29929"/>
<circle cx="347.425" cy="565.859" r="38.4917" fill="#057068" stroke="#055852" stroke-width="3.29929"/>
<circle cx="477.708" cy="565.859" r="38.4917" fill="#057068" stroke="#055852" stroke-width="3.29929"/>
<circle cx="607.989" cy="565.859" r="38.4917" fill="#057068" stroke="#055852" stroke-width="3.29929"/>
<rect x="174.808" y="293.808" width="129.384" height="60.3837" rx="29.093" fill="#07756D" stroke="#055852" stroke-width="1.61628"/>
<circle cx="207.135" cy="323.799" r="22.4729" fill="#05635C" stroke="#055852" stroke-width="1.92625"/>
<path d="M255.5 318L265.719 330.077C266.124 330.556 266.866 330.547 267.26 330.059L277 318" stroke="#055852" stroke-width="2"/>
<rect x="466.808" y="303.808" width="95.3837" height="18.3837" rx="7.09186" fill="#07756D" stroke="#055852" stroke-width="1.61628"/>
<path d="M626 307.558L634.555 317.669C634.895 318.07 635.515 318.063 635.846 317.654L644 307.558" stroke="#055852" stroke-width="3"/>
<rect x="466.808" y="327.808" width="176.384" height="18.3837" rx="7.09186" fill="#07756D" stroke="#055852" stroke-width="1.61628"/>
<rect x="187.049" y="900.715" width="279.56" height="56.4552" rx="28.2276" fill="#056F67"/>
<rect x="187.049" y="900.715" width="279.56" height="56.4552" rx="28.2276" stroke="#055852" stroke-width="2.09701"/>
<path d="M222.152 936.442H220.227L225.21 922.797H227.267L232.268 936.442H230.324L229.097 933.045H223.36L222.152 936.442ZM226.002 925.741L223.926 931.441H228.55L226.455 925.741C226.417 925.603 226.373 925.464 226.323 925.326C226.273 925.175 226.241 925.049 226.229 924.948C226.204 925.049 226.172 925.175 226.134 925.326C226.097 925.464 226.053 925.603 226.002 925.741ZM232.43 931.837C232.43 930.868 232.619 930.019 232.996 929.289C233.386 928.559 233.921 927.987 234.6 927.572C235.28 927.157 236.066 926.949 236.96 926.949C238.117 926.949 239.08 927.257 239.847 927.874C240.615 928.49 241.074 929.308 241.225 930.327H239.451C239.3 929.736 239.004 929.289 238.564 928.987C238.123 928.685 237.608 928.534 237.016 928.534C236.463 928.534 235.972 928.673 235.544 928.95C235.116 929.214 234.783 929.591 234.544 930.082C234.305 930.573 234.185 931.151 234.185 931.818C234.185 932.485 234.298 933.064 234.525 933.555C234.751 934.033 235.072 934.41 235.487 934.687C235.903 934.951 236.387 935.083 236.941 935.083C237.57 935.083 238.111 934.926 238.564 934.611C239.017 934.297 239.319 933.869 239.47 933.328H241.244C241.131 933.995 240.873 934.58 240.47 935.083C240.08 935.574 239.577 935.964 238.96 936.253C238.356 936.53 237.683 936.669 236.941 936.669C236.035 936.669 235.242 936.467 234.563 936.065C233.896 935.662 233.374 935.102 232.996 934.385C232.619 933.655 232.43 932.806 232.43 931.837ZM242.134 931.837C242.134 930.868 242.323 930.019 242.7 929.289C243.09 928.559 243.625 927.987 244.305 927.572C244.984 927.157 245.77 926.949 246.664 926.949C247.821 926.949 248.784 927.257 249.551 927.874C250.319 928.49 250.778 929.308 250.929 930.327H249.155C249.004 929.736 248.708 929.289 248.268 928.987C247.828 928.685 247.312 928.534 246.72 928.534C246.167 928.534 245.676 928.673 245.248 928.95C244.82 929.214 244.487 929.591 244.248 930.082C244.009 930.573 243.889 931.151 243.889 931.818C243.889 932.485 244.003 933.064 244.229 933.555C244.456 934.033 244.776 934.41 245.192 934.687C245.607 934.951 246.091 935.083 246.645 935.083C247.274 935.083 247.815 934.926 248.268 934.611C248.721 934.297 249.023 933.869 249.174 933.328H250.948C250.835 933.995 250.577 934.58 250.174 935.083C249.784 935.574 249.281 935.964 248.664 936.253C248.06 936.53 247.387 936.669 246.645 936.669C245.739 936.669 244.946 936.467 244.267 936.065C243.6 935.662 243.078 935.102 242.7 934.385C242.323 933.655 242.134 932.806 242.134 931.837ZM256.425 936.669C255.531 936.669 254.739 936.467 254.047 936.065C253.355 935.649 252.814 935.083 252.423 934.366C252.033 933.636 251.838 932.793 251.838 931.837C251.838 930.868 252.027 930.019 252.405 929.289C252.795 928.559 253.323 927.987 253.99 927.572C254.669 927.157 255.456 926.949 256.349 926.949C257.23 926.949 257.991 927.138 258.633 927.515C259.287 927.893 259.79 928.421 260.143 929.1C260.507 929.78 260.69 930.579 260.69 931.497V932.158L252.782 932.177L252.82 930.988H258.916C258.916 930.22 258.683 929.604 258.218 929.138C257.752 928.673 257.129 928.44 256.349 928.44C255.758 928.44 255.248 928.572 254.82 928.836C254.405 929.088 254.084 929.465 253.858 929.969C253.644 930.459 253.537 931.051 253.537 931.743C253.537 932.85 253.789 933.706 254.292 934.309C254.795 934.901 255.519 935.197 256.462 935.197C257.154 935.197 257.721 935.058 258.161 934.781C258.601 934.504 258.897 934.102 259.048 933.573H260.709C260.482 934.555 259.998 935.316 259.256 935.857C258.513 936.398 257.57 936.669 256.425 936.669ZM262.294 940.575V927.213H263.898L264.03 928.874C264.332 928.232 264.779 927.754 265.37 927.44C265.974 927.113 266.641 926.949 267.371 926.949C268.252 926.949 269.013 927.157 269.654 927.572C270.296 927.974 270.787 928.541 271.127 929.27C271.479 929.988 271.655 930.818 271.655 931.762C271.655 932.705 271.485 933.548 271.145 934.291C270.818 935.033 270.334 935.618 269.692 936.046C269.063 936.474 268.289 936.687 267.371 936.687C266.629 936.687 265.968 936.537 265.389 936.235C264.81 935.933 264.37 935.498 264.068 934.932V940.575H262.294ZM264.087 931.837C264.087 932.454 264.2 933.014 264.427 933.517C264.666 934.008 264.999 934.391 265.427 934.668C265.867 934.945 266.389 935.083 266.993 935.083C267.597 935.083 268.113 934.945 268.541 934.668C268.969 934.379 269.296 933.989 269.522 933.498C269.761 933.007 269.881 932.454 269.881 931.837C269.881 931.195 269.761 930.629 269.522 930.139C269.296 929.648 268.969 929.264 268.541 928.987C268.113 928.71 267.597 928.572 266.993 928.572C266.389 928.572 265.867 928.71 265.427 928.987C264.999 929.264 264.666 929.648 264.427 930.139C264.2 930.629 264.087 931.195 264.087 931.837ZM272.159 927.213H277.557V928.704H272.159V927.213ZM275.745 936.442H273.971V924.326H275.745V936.442ZM286.362 928.478L287.173 929.497C286.519 929.837 285.991 930.176 285.588 930.516C285.186 930.843 284.89 931.189 284.701 931.554C284.512 931.919 284.418 932.322 284.418 932.762C284.418 933.504 284.701 934.089 285.267 934.517C285.833 934.945 286.607 935.159 287.589 935.159C288.985 935.159 290.067 934.718 290.835 933.838C291.615 932.944 292.005 931.686 292.005 930.063H293.722C293.722 931.397 293.458 932.561 292.93 933.555C292.414 934.549 291.684 935.322 290.741 935.876C289.809 936.417 288.702 936.687 287.419 936.687C286.45 936.687 285.601 936.53 284.871 936.216C284.141 935.889 283.575 935.448 283.172 934.895C282.77 934.328 282.568 933.661 282.568 932.894C282.568 932.303 282.707 931.749 282.984 931.233C283.26 930.705 283.676 930.22 284.229 929.78C284.795 929.327 285.506 928.893 286.362 928.478ZM288.004 929.176L287.136 928.119C287.79 927.754 288.274 927.352 288.589 926.911C288.904 926.471 289.061 925.98 289.061 925.439C289.061 924.999 288.929 924.653 288.664 924.401C288.4 924.137 288.029 924.005 287.551 924.005C287.073 924.005 286.689 924.143 286.4 924.42C286.123 924.684 285.984 925.043 285.984 925.496C285.984 925.735 286.029 925.968 286.117 926.194C286.205 926.421 286.349 926.678 286.551 926.968C286.765 927.257 287.054 927.616 287.419 928.044L294.798 936.442H292.722L286.041 928.836C285.412 928.132 284.965 927.534 284.701 927.043C284.437 926.54 284.305 926.03 284.305 925.515C284.305 924.936 284.443 924.426 284.72 923.986C284.997 923.545 285.381 923.199 285.871 922.948C286.362 922.696 286.928 922.57 287.57 922.57C288.199 922.57 288.746 922.69 289.212 922.929C289.69 923.168 290.061 923.501 290.325 923.929C290.59 924.344 290.722 924.835 290.722 925.401C290.722 926.106 290.508 926.754 290.08 927.345C289.665 927.937 288.973 928.547 288.004 929.176ZM304.073 936.442L298.883 922.797H300.865L304.186 931.516C304.337 931.894 304.482 932.29 304.62 932.705C304.759 933.108 304.897 933.567 305.036 934.083C305.199 933.542 305.356 933.051 305.507 932.611C305.658 932.171 305.79 931.799 305.904 931.497L309.207 922.797H311.132L305.998 936.442H304.073ZM314.715 936.669C313.821 936.669 313.029 936.467 312.337 936.065C311.645 935.649 311.103 935.083 310.713 934.366C310.323 933.636 310.128 932.793 310.128 931.837C310.128 930.868 310.317 930.019 310.695 929.289C311.085 928.559 311.613 927.987 312.28 927.572C312.959 927.157 313.746 926.949 314.639 926.949C315.52 926.949 316.281 927.138 316.923 927.515C317.577 927.893 318.08 928.421 318.433 929.1C318.797 929.78 318.98 930.579 318.98 931.497V932.158L311.072 932.177L311.11 930.988H317.206C317.206 930.22 316.973 929.604 316.507 929.138C316.042 928.673 315.419 928.44 314.639 928.44C314.048 928.44 313.538 928.572 313.11 928.836C312.695 929.088 312.374 929.465 312.148 929.969C311.934 930.459 311.827 931.051 311.827 931.743C311.827 932.85 312.079 933.706 312.582 934.309C313.085 934.901 313.809 935.197 314.752 935.197C315.444 935.197 316.01 935.058 316.451 934.781C316.891 934.504 317.187 934.102 317.338 933.573H318.999C318.772 934.555 318.288 935.316 317.546 935.857C316.803 936.398 315.86 936.669 314.715 936.669ZM325.868 927.138V928.761H325.076C324.233 928.761 323.566 929.006 323.075 929.497C322.597 929.975 322.358 930.661 322.358 931.554V936.442H320.584V927.232H322.245L322.396 929.082H322.226C322.352 928.478 322.654 927.987 323.132 927.61C323.61 927.219 324.208 927.024 324.925 927.024C325.088 927.024 325.239 927.037 325.378 927.062C325.529 927.075 325.692 927.1 325.868 927.138ZM327.155 936.442V927.213H328.929V936.442H327.155ZM328.023 925.024C327.708 925.024 327.432 924.911 327.193 924.684C326.966 924.445 326.853 924.168 326.853 923.854C326.853 923.527 326.966 923.25 327.193 923.023C327.432 922.797 327.708 922.684 328.023 922.684C328.35 922.684 328.627 922.797 328.853 923.023C329.08 923.25 329.193 923.527 329.193 923.854C329.193 924.168 329.08 924.445 328.853 924.684C328.627 924.911 328.35 925.024 328.023 925.024ZM330.146 927.213H335.468V928.704H330.146V927.213ZM335.525 922.627V924.156C335.411 924.156 335.285 924.156 335.147 924.156C335.021 924.156 334.883 924.156 334.732 924.156C334.153 924.156 333.763 924.294 333.562 924.571C333.373 924.848 333.279 925.238 333.279 925.741V936.442H331.505V925.741C331.505 924.986 331.63 924.376 331.882 923.91C332.146 923.432 332.492 923.086 332.92 922.872C333.36 922.658 333.864 922.552 334.43 922.552C334.606 922.552 334.788 922.558 334.977 922.57C335.166 922.583 335.348 922.602 335.525 922.627ZM337.476 927.213L340.722 936.197L339.627 937.707L335.607 927.213H337.476ZM335.853 940.575V939.122H337.042C337.331 939.122 337.595 939.091 337.834 939.028C338.073 938.977 338.294 938.858 338.495 938.669C338.696 938.493 338.866 938.21 339.004 937.82L342.892 927.213H344.723L340.363 938.518C340.049 939.311 339.652 939.883 339.174 940.236C338.696 940.588 338.105 940.764 337.4 940.764C337.111 940.764 336.84 940.745 336.589 940.707C336.337 940.682 336.092 940.638 335.853 940.575ZM353.602 936.442L349.545 922.797H351.47L353.961 931.139C354.062 931.491 354.156 931.862 354.244 932.252C354.332 932.642 354.427 933.095 354.527 933.611C354.641 933.058 354.747 932.598 354.848 932.233C354.961 931.869 355.068 931.504 355.169 931.139L357.755 922.797H359.755L362.322 931.139C362.435 931.504 362.542 931.881 362.643 932.271C362.743 932.661 362.844 933.108 362.945 933.611C363.071 933.032 363.177 932.554 363.266 932.177C363.366 931.799 363.461 931.46 363.549 931.158L366.059 922.797H367.946L363.832 936.442H362.058L358.755 925.647L355.414 936.442H353.602ZM370.523 936.669C369.542 936.669 368.768 936.411 368.202 935.895C367.648 935.379 367.371 934.706 367.371 933.875C367.371 933.032 367.673 932.359 368.277 931.856C368.881 931.34 369.724 931.038 370.806 930.95L373.713 930.724V930.459C373.713 929.943 373.618 929.535 373.43 929.233C373.241 928.918 372.983 928.698 372.656 928.572C372.329 928.434 371.957 928.364 371.542 928.364C370.8 928.364 370.221 928.522 369.806 928.836C369.403 929.138 369.202 929.572 369.202 930.139H367.654C367.654 929.497 367.818 928.937 368.145 928.459C368.472 927.981 368.931 927.61 369.523 927.345C370.127 927.081 370.825 926.949 371.618 926.949C372.385 926.949 373.052 927.087 373.618 927.364C374.197 927.628 374.644 928.037 374.958 928.591C375.285 929.132 375.449 929.818 375.449 930.648V936.442H373.939L373.75 934.951C373.511 935.48 373.096 935.901 372.505 936.216C371.926 936.518 371.265 936.669 370.523 936.669ZM371.033 935.291C371.876 935.291 372.536 935.039 373.014 934.536C373.492 934.02 373.732 933.328 373.732 932.46V931.969L371.372 932.158C370.592 932.233 370.026 932.416 369.674 932.705C369.334 932.995 369.164 933.366 369.164 933.819C369.164 934.309 369.328 934.681 369.655 934.932C369.995 935.171 370.454 935.291 371.033 935.291ZM379.34 936.442H377.566V922.552H379.34V936.442ZM383.386 936.442H381.612V922.552H383.386V936.442ZM389.603 936.669C388.709 936.669 387.917 936.467 387.225 936.065C386.533 935.649 385.991 935.083 385.601 934.366C385.211 933.636 385.016 932.793 385.016 931.837C385.016 930.868 385.205 930.019 385.583 929.289C385.973 928.559 386.501 927.987 387.168 927.572C387.847 927.157 388.634 926.949 389.527 926.949C390.408 926.949 391.169 927.138 391.811 927.515C392.465 927.893 392.968 928.421 393.321 929.1C393.685 929.78 393.868 930.579 393.868 931.497V932.158L385.96 932.177L385.998 930.988H392.094C392.094 930.22 391.861 929.604 391.395 929.138C390.93 928.673 390.307 928.44 389.527 928.44C388.936 928.44 388.426 928.572 387.998 928.836C387.583 929.088 387.262 929.465 387.036 929.969C386.822 930.459 386.715 931.051 386.715 931.743C386.715 932.85 386.967 933.706 387.47 934.309C387.973 934.901 388.697 935.197 389.64 935.197C390.332 935.197 390.899 935.058 391.339 934.781C391.779 934.504 392.075 934.102 392.226 933.573H393.887C393.66 934.555 393.176 935.316 392.434 935.857C391.691 936.398 390.748 936.669 389.603 936.669ZM394.398 927.213H399.796V928.704H394.398V927.213ZM397.984 936.442H396.21V924.326H397.984V936.442Z" fill="white"/>
<path d="M431.855 929.313L427.136 934.031C427.038 934.13 426.904 934.185 426.765 934.185C426.626 934.185 426.493 934.13 426.394 934.031C426.296 933.933 426.241 933.8 426.241 933.66C426.241 933.521 426.296 933.388 426.394 933.289L430.218 929.466H419.95C419.811 929.466 419.678 929.411 419.579 929.313C419.481 929.214 419.426 929.081 419.426 928.942C419.426 928.803 419.481 928.67 419.579 928.571C419.678 928.473 419.811 928.418 419.95 928.418H430.218L426.394 924.595C426.296 924.496 426.241 924.363 426.241 924.224C426.241 924.085 426.296 923.951 426.394 923.853C426.493 923.755 426.626 923.699 426.765 923.699C426.904 923.699 427.038 923.755 427.136 923.853L431.855 928.571C431.903 928.62 431.942 928.678 431.968 928.741C431.995 928.805 432.008 928.873 432.008 928.942C432.008 929.011 431.995 929.079 431.968 929.143C431.942 929.207 431.903 929.264 431.855 929.313Z" fill="white"/>
<path d="M506.5 201L511.267 207.067L526 194.933" stroke="#84F3EB" stroke-width="2"/>
</g>
<defs>
<clipPath id="clip0_843_4724">
<rect width="680" height="976" rx="24" fill="white"/>
</clipPath>
</defs>
</svg>
