<svg width="362" height="242" viewBox="0 0 362 242" fill="none" xmlns="http://www.w3.org/2000/svg">
<g clip-path="url(#clip0_813_2049)">
<path d="M359.559 57.43V92.43L260.469 149.64C256.279 152.06 252.489 152.29 249.749 150.7L249.549 150.58C246.929 148.95 245.309 145.61 245.309 140.89C245.309 131.23 252.099 119.48 260.469 114.65L359.559 57.43Z" fill="#047A71"/>
<path d="M309.999 86.05L260.469 114.65C252.099 119.48 245.309 131.23 245.309 140.89C245.309 145.61 246.929 148.95 249.549 150.58L152.879 94.77C150.139 93.19 148.439 89.8 148.439 84.96C148.439 75.3 155.229 63.55 163.599 58.72L262.689 1.5L294.939 20.12L281.029 28.15C278.279 29.73 276.939 31.85 276.939 34.07C276.939 36.75 278.899 39.58 282.729 41.79C289.719 45.83 300.299 46.26 306.349 42.77L320.259 34.74L359.559 57.43L309.999 86.05ZM289.199 73.19C292.499 71.29 292.499 68.21 289.199 66.31C285.909 64.41 280.569 64.41 277.269 66.31C273.979 68.21 273.979 71.29 277.269 73.19C280.569 75.09 285.909 75.09 289.199 73.19ZM262.769 59.66C266.059 57.75 266.059 54.67 262.769 52.77C259.469 50.87 254.129 50.87 250.839 52.77C247.539 54.67 247.539 57.75 250.839 59.66C254.129 61.56 259.469 61.56 262.769 59.66ZM236.729 53.44C240.019 51.54 240.019 48.46 236.729 46.55C233.429 44.65 228.089 44.65 224.799 46.55C221.499 48.46 221.499 51.54 224.799 53.44C228.089 55.34 233.429 55.34 236.729 53.44Z" fill="#73CAC4"/>
<path d="M327.94 30.31V39.17L320.26 34.74L327.94 30.31Z" fill="#047A71"/>
<path d="M327.939 30.31L306.349 42.77C300.299 46.26 289.719 45.83 282.729 41.79C278.899 39.58 276.939 36.75 276.939 34.07C276.939 31.85 278.279 29.73 281.029 28.15L302.609 15.69L327.939 30.31Z" fill="#D5FCF5"/>
<path d="M289.2 66.31C292.5 68.21 292.5 71.29 289.2 73.19C285.91 75.09 280.57 75.09 277.27 73.19C273.98 71.29 273.98 68.21 277.27 66.31C280.57 64.41 285.91 64.41 289.2 66.31Z" fill="#D5FCF5"/>
<path d="M262.77 52.77C266.06 54.67 266.06 57.75 262.77 59.66C259.47 61.56 254.13 61.56 250.84 59.66C247.54 57.75 247.54 54.67 250.84 52.77C254.13 50.87 259.47 50.87 262.77 52.77Z" fill="#D5FCF5"/>
<path d="M236.729 46.55C240.019 48.46 240.019 51.54 236.729 53.44C233.429 55.34 228.089 55.34 224.799 53.44C221.499 51.54 221.499 48.46 224.799 46.55C228.089 44.65 233.429 44.65 236.729 46.55Z" fill="#D5FCF5"/>
<path d="M249.539 152.08C249.269 152.08 248.999 152.01 248.749 151.85C245.559 149.87 243.799 145.97 243.799 140.89C243.799 130.77 250.939 118.41 259.709 113.35L358.799 56.13C359.519 55.72 360.429 55.96 360.849 56.68C361.259 57.4 361.019 58.31 360.299 58.73L261.209 115.95C253.259 120.54 246.799 131.72 246.799 140.89C246.799 144.9 248.049 147.89 250.329 149.31C251.029 149.75 251.249 150.67 250.809 151.38C250.529 151.84 250.039 152.09 249.539 152.09V152.08Z" fill="#057A71"/>
<path d="M253.69 153.22C251.99 153.22 250.4 152.81 248.99 152C248.27 151.58 248.03 150.67 248.44 149.95C248.86 149.23 249.77 148.99 250.49 149.4C252.86 150.78 256.14 150.4 259.71 148.34L358.05 91.56V58.3L319.5 36.04C318.78 35.63 318.54 34.71 318.95 33.99C319.36 33.27 320.28 33.03 321 33.44L360.3 56.13C360.76 56.4 361.05 56.89 361.05 57.43V92.43C361.05 92.97 360.76 93.46 360.3 93.73L261.21 150.94C258.59 152.46 256.02 153.22 253.69 153.22Z" fill="#057A71"/>
<path d="M215.22 132.12C214.87 132.12 214.52 132 214.24 131.75C211.73 129.58 210.4 126.07 210.4 121.59C210.4 116.65 212.05 111.08 215.04 105.91C218.02 100.74 222.02 96.53 226.3 94.05L248.99 80.95L254.79 60.65C255.02 59.85 255.85 59.39 256.64 59.62C257.44 59.85 257.9 60.68 257.67 61.47L251.7 82.35C251.59 82.72 251.34 83.04 251.01 83.24L227.8 96.64C223.97 98.86 220.36 102.68 217.64 107.4C214.91 112.12 213.4 117.16 213.4 121.58C213.4 125.1 214.4 127.9 216.2 129.47C216.83 130.01 216.9 130.96 216.35 131.59C216.05 131.93 215.64 132.11 215.21 132.11L215.22 132.12Z" fill="#057A71"/>
<path d="M177.14 110.13C176.79 110.13 176.45 110.01 176.16 109.77C173.65 107.61 172.32 104.1 172.32 99.62C172.32 94.68 173.97 89.11 176.96 83.93C179.95 78.74 183.95 74.53 188.22 72.07L222.96 52.01C223.68 51.6 224.59 51.84 225.01 52.56C225.42 53.28 225.18 54.19 224.46 54.61L189.72 74.67C185.9 76.87 182.29 80.69 179.56 85.43C176.83 90.16 175.32 95.2 175.32 99.62C175.32 103.14 176.31 105.94 178.12 107.49C178.75 108.03 178.82 108.98 178.28 109.61C177.98 109.95 177.56 110.13 177.14 110.13Z" fill="#057A71"/>
<path d="M249.74 152.2C249.49 152.2 249.23 152.14 248.99 152L152.12 96.07C148.77 94.14 146.93 90.19 146.93 84.96C146.93 74.84 154.07 62.48 162.84 57.42L261.94 0.199998C262.4 -0.0700024 262.98 -0.0700024 263.44 0.199998L295.69 18.82C296.41 19.23 296.65 20.15 296.24 20.87C295.83 21.59 294.91 21.83 294.19 21.42L262.69 3.23L164.35 60.02C156.4 64.61 149.94 75.79 149.94 84.96C149.94 89.08 151.25 92.1 153.63 93.47L250.5 149.4C251.22 149.81 251.46 150.73 251.05 151.45C250.77 151.93 250.27 152.2 249.75 152.2H249.74Z" fill="#057A71"/>
<path d="M309.99 87.55C309.74 87.55 309.48 87.49 309.24 87.35L287.72 74.92C287 74.51 286.76 73.59 287.17 72.87C287.58 72.15 288.5 71.91 289.22 72.32L310.74 84.75C311.46 85.16 311.7 86.08 311.29 86.8C311.01 87.28 310.51 87.55 309.99 87.55Z" fill="#047A71"/>
<path d="M230.76 56.37C228.34 56.37 225.93 55.83 224.05 54.74C221.97 53.54 220.83 51.86 220.83 50C220.83 48.14 221.97 46.45 224.05 45.25C227.81 43.08 233.71 43.08 237.48 45.25C239.56 46.46 240.7 48.14 240.7 50C240.7 51.86 239.55 53.54 237.48 54.74C235.6 55.82 233.18 56.37 230.76 56.37ZM230.76 46.63C228.86 46.63 226.96 47.04 225.55 47.85C224.45 48.48 223.82 49.27 223.83 50C223.83 50.73 224.46 51.51 225.55 52.14C228.37 53.77 233.15 53.77 235.98 52.14C237.07 51.51 237.69 50.73 237.7 50C237.7 49.27 237.07 48.48 235.98 47.85C234.57 47.04 232.67 46.63 230.77 46.63H230.76Z" fill="#057A71"/>
<path d="M256.799 62.59C254.379 62.59 251.969 62.05 250.089 60.96C248.009 59.75 246.859 58.07 246.869 56.21C246.869 54.35 248.019 52.67 250.099 51.47C253.859 49.3 259.749 49.3 263.529 51.47C265.599 52.67 266.749 54.35 266.749 56.21C266.749 58.07 265.609 59.76 263.529 60.96C261.649 62.04 259.229 62.59 256.809 62.59H256.799ZM256.799 52.85C254.899 52.85 252.999 53.26 251.589 54.07C250.489 54.7 249.869 55.48 249.869 56.21C249.869 56.94 250.499 57.73 251.599 58.36C254.419 59.99 259.189 59.99 262.029 58.36C263.119 57.73 263.749 56.94 263.749 56.21C263.749 55.48 263.119 54.7 262.029 54.07C260.619 53.26 258.709 52.85 256.809 52.85H256.799Z" fill="#057A71"/>
<path d="M283.229 76.12C280.809 76.12 278.399 75.58 276.509 74.49C274.429 73.29 273.289 71.61 273.289 69.75C273.289 67.89 274.429 66.21 276.509 65.01C280.279 62.84 286.179 62.84 289.939 65.01C292.019 66.21 293.159 67.89 293.159 69.75C293.159 71.61 292.009 73.29 289.929 74.49C288.049 75.57 285.639 76.12 283.219 76.12H283.229ZM283.229 66.39C281.329 66.39 279.429 66.8 278.009 67.61C276.919 68.24 276.299 69.02 276.299 69.75C276.299 70.48 276.929 71.26 278.019 71.89C280.849 73.52 285.629 73.52 288.449 71.89C289.549 71.26 290.169 70.48 290.169 69.75C290.169 69.02 289.539 68.24 288.449 67.61C287.039 66.79 285.139 66.39 283.239 66.39H283.229Z" fill="#047A71"/>
<path d="M296.059 46.65C291.179 46.65 286.059 45.45 281.979 43.09C277.819 40.69 275.439 37.4 275.439 34.07C275.439 31.21 277.159 28.64 280.279 26.85L301.859 14.39C302.319 14.12 302.899 14.12 303.359 14.39L328.689 29.01C329.149 29.28 329.439 29.77 329.439 30.31C329.439 30.85 329.149 31.34 328.689 31.61L307.099 44.07C304.099 45.8 300.169 46.65 296.059 46.65ZM302.609 17.42L281.779 29.45C280.249 30.33 278.439 31.84 278.439 34.07C278.439 36.3 280.279 38.64 283.479 40.49C290.039 44.28 299.959 44.72 305.599 41.47L324.939 30.31L302.609 17.42Z" fill="#047A71"/>
<path d="M327.939 40.67C327.109 40.67 326.439 40 326.439 39.17V30.31C326.439 29.48 327.109 28.81 327.939 28.81C328.769 28.81 329.439 29.48 329.439 30.31V39.17C329.439 40 328.769 40.67 327.939 40.67Z" fill="#047A71"/>
<path d="M189.049 209.12C201.149 216.1 201.149 227.43 189.049 234.42C176.949 241.4 157.329 241.4 145.229 234.42C133.129 227.43 133.129 216.1 145.229 209.12C157.329 202.13 176.949 202.13 189.049 209.12ZM173.809 225.62C177.499 223.49 177.499 220.04 173.809 217.92C170.129 215.79 164.159 215.79 160.469 217.92C156.789 220.04 156.789 223.49 160.469 225.62C164.159 227.75 170.129 227.75 173.809 225.62Z" fill="white"/>
<path d="M173.809 217.92C177.499 220.04 177.499 223.49 173.809 225.62C170.129 227.75 164.159 227.75 160.469 225.62C156.789 223.49 156.789 220.04 160.469 217.92C164.159 215.79 170.129 215.79 173.809 217.92Z" fill="#73CAC4"/>
<path d="M114.36 174.5C126.46 181.48 126.46 192.81 114.36 199.8C102.26 206.78 82.6395 206.78 70.5395 199.8C58.4295 192.81 58.4295 181.48 70.5395 174.5C82.6395 167.51 102.26 167.51 114.36 174.5ZM92.4495 194.41L105.02 187.15L92.4495 179.89L79.8695 187.15L92.4495 194.41Z" fill="#D5FCF5"/>
<path d="M105.019 187.15L92.4491 194.41L79.8691 187.15L92.4491 179.89L105.019 187.15Z" fill="#73CAC4"/>
<path d="M54.3891 131.37C66.4891 138.36 66.4891 149.68 54.3891 156.67C42.2891 163.66 22.6691 163.66 10.5691 156.67C-1.53086 149.68 -1.53086 138.36 10.5691 131.37C22.6691 124.38 42.2891 124.38 54.3891 131.37Z" fill="white"/>
<path d="M32.48 163.38C24.27 163.38 16.07 161.58 9.82 157.97C3.49 154.31 0 149.35 0 144.02C0 138.68 3.49 133.73 9.82 130.07C22.31 122.85 42.65 122.85 55.14 130.07C61.48 133.73 64.96 138.68 64.96 144.02C64.96 149.35 61.47 154.31 55.14 157.97C48.89 161.58 40.69 163.38 32.48 163.38ZM32.48 127.61C24.82 127.61 17.15 129.29 11.32 132.66C5.95 135.76 3 139.79 3 144.01C3 148.23 5.96 152.26 11.32 155.36C22.99 162.1 41.97 162.1 53.64 155.36C59.01 152.26 61.97 148.23 61.96 144.01C61.96 139.79 59 135.76 53.64 132.66C47.81 129.29 40.14 127.61 32.48 127.61Z" fill="#056F67"/>
<path d="M92.4509 206.5C84.2409 206.5 76.0409 204.7 69.7909 201.09C63.4509 197.43 59.9609 192.47 59.9609 187.13C59.9609 181.79 63.4509 176.84 69.7909 173.19C82.2809 165.97 102.611 165.97 115.111 173.19C121.441 176.84 124.931 181.79 124.941 187.13C124.941 192.47 121.451 197.43 115.111 201.09C108.861 204.69 100.661 206.5 92.4509 206.5ZM92.4509 170.74C84.7909 170.74 77.1209 172.43 71.2909 175.8C65.9209 178.9 62.9609 182.92 62.9609 187.14C62.9609 191.36 65.9209 195.4 71.2909 198.5C82.9609 205.23 101.941 205.23 113.611 198.5C118.981 195.4 121.941 191.36 121.931 187.14C121.931 182.92 118.971 178.89 113.611 175.8C107.781 172.43 100.111 170.74 92.4509 170.74Z" fill="#056F67"/>
<path d="M167.14 241.12C158.93 241.12 150.73 239.32 144.48 235.71C138.14 232.05 134.65 227.09 134.65 221.75C134.65 216.41 138.14 211.46 144.48 207.81C156.97 200.59 177.31 200.59 189.8 207.81C196.13 211.46 199.62 216.41 199.62 221.75C199.62 227.09 196.13 232.05 189.8 235.71C183.55 239.31 175.35 241.12 167.14 241.12ZM167.14 205.36C159.48 205.36 151.81 207.05 145.98 210.42C140.61 213.52 137.66 217.54 137.66 221.76C137.66 225.98 140.62 230.02 145.98 233.12C157.65 239.85 176.63 239.85 188.3 233.12C193.67 230.02 196.63 225.99 196.62 221.76C196.62 217.54 193.66 213.51 188.3 210.42C182.47 207.05 174.8 205.36 167.14 205.36Z" fill="#056F67"/>
<path d="M189.061 210.62C188.621 210.62 188.181 210.42 187.881 210.05C187.371 209.4 187.481 208.46 188.131 207.94L193.521 203.7C200.251 198.41 203.811 192.2 203.811 185.74C203.811 179.28 200.311 173.18 193.691 167.91C185.891 161.71 181.911 154.01 182.481 146.24C182.871 140.93 185.321 135.85 189.571 131.32C180.901 134.27 171.011 135.84 160.711 135.84C148.641 135.84 137.061 133.66 127.231 129.54C107.781 121.39 81.7009 121.43 62.3309 129.64L54.9809 132.75C54.2109 133.07 53.3409 132.71 53.0109 131.95C52.6909 131.19 53.0409 130.31 53.8109 129.98L61.1609 126.87C81.2309 118.37 108.241 118.33 128.381 126.77C137.851 130.74 149.021 132.83 160.701 132.83C175.411 132.83 189.211 129.54 199.571 123.56C200.291 123.15 201.201 123.39 201.621 124.11C202.031 124.83 201.791 125.74 201.071 126.16H201.061C191.571 131.65 186.031 138.85 185.471 146.45C184.961 153.3 188.451 159.91 195.551 165.56C202.911 171.42 206.811 178.39 206.811 185.73C206.811 193.07 202.861 200.17 195.381 206.05L189.991 210.29C189.711 210.51 189.391 210.61 189.061 210.61V210.62Z" fill="#057A71"/>
<path d="M114.371 176C113.851 176 113.351 175.73 113.071 175.25C112.661 174.53 112.901 173.62 113.621 173.2L199.581 123.57C200.301 123.16 201.211 123.4 201.631 124.12C202.041 124.84 201.801 125.75 201.081 126.17L115.121 175.8C114.881 175.94 114.631 176 114.371 176Z" fill="#057A71"/>
<path d="M92.4491 195.91C92.1891 195.91 91.9291 195.84 91.6991 195.71L79.1191 188.45C78.6591 188.18 78.3691 187.69 78.3691 187.15C78.3691 186.61 78.6591 186.12 79.1191 185.85L91.6991 178.59C92.1591 178.32 92.7391 178.32 93.1991 178.59L105.769 185.85C106.229 186.12 106.519 186.61 106.519 187.15C106.519 187.69 106.229 188.18 105.769 188.45L93.1991 195.71C92.9691 195.84 92.7091 195.91 92.4491 195.91ZM82.8691 187.15L92.4491 192.68L102.019 187.15L92.4491 181.62L82.8691 187.15Z" fill="#057A71"/>
<path d="M167.151 228.72C164.481 228.72 161.811 228.12 159.731 226.92C157.461 225.61 156.221 223.78 156.221 221.76C156.221 219.75 157.471 217.92 159.731 216.62C163.901 214.22 170.421 214.22 174.571 216.62C176.831 217.92 178.081 219.75 178.091 221.76C178.091 223.77 176.841 225.6 174.571 226.92C172.491 228.12 169.821 228.72 167.151 228.72ZM167.151 217.83C164.991 217.83 162.831 218.29 161.231 219.22C159.951 219.96 159.221 220.88 159.221 221.77C159.221 222.65 159.951 223.59 161.231 224.33C164.441 226.18 169.861 226.18 173.071 224.33C174.351 223.59 175.091 222.66 175.091 221.77C175.091 220.89 174.351 219.96 173.081 219.23C171.481 218.3 169.321 217.84 167.161 217.84L167.151 217.83Z" fill="#057A71"/>
<path d="M38.6809 149.1C38.4309 149.1 38.1709 149.04 37.9309 148.9L25.5309 141.74C24.8109 141.33 24.5709 140.41 24.9809 139.69C25.3909 138.97 26.3109 138.73 27.0309 139.14L39.4309 146.3C40.1509 146.71 40.3909 147.63 39.9809 148.35C39.7009 148.83 39.2009 149.1 38.6809 149.1Z" fill="#047A71"/>
<path d="M44.9502 145.48C44.7002 145.48 44.4402 145.42 44.2002 145.28L31.8102 138.12C31.0902 137.7 30.8502 136.79 31.2602 136.07C31.6802 135.35 32.5902 135.11 33.3102 135.52L45.7002 142.68C46.4202 143.09 46.6602 144.01 46.2502 144.73C45.9702 145.21 45.4702 145.48 44.9502 145.48Z" fill="#047A71"/>
<path d="M32.3994 152.72C32.1494 152.72 31.8894 152.66 31.6494 152.52L19.2594 145.37C18.5394 144.96 18.2994 144.04 18.7094 143.32C19.1194 142.6 20.0394 142.36 20.7594 142.77L33.1494 149.92C33.8694 150.33 34.1094 151.25 33.6994 151.97C33.4194 152.45 32.9194 152.72 32.3994 152.72Z" fill="#047A71"/>
</g>
<defs>
<clipPath id="clip0_813_2049">
<rect width="361.05" height="241.12" fill="white"/>
</clipPath>
</defs>
</svg>
